<?xml version="1.0" encoding="UTF-8"?><svg xmlns="http://www.w3.org/2000/svg" viewBox="0 0 1377.25 1419.88"><defs><style>.d{stroke-width:5px;}.d,.e{fill:#2d6254;stroke:#2d6254;stroke-miterlimit:10;}</style></defs><g id="a"/><g id="b"><g id="c"><g><g><path class="d" d="M668.75,1363.16c-.15-1.08-.25-2.16-.38-3.27-.25-2.29-.96-4.47-.98-6.76-.08-.05-.13-.13-.2-.18-3.49-37.75-.98-74.72,2.09-112.55,2.64-32.37,2.92-65.42-9.68-95.81-.88-1.33-1.66-2.69-2.04-4.22-.1-.1-.2-.23-.33-.3-4.05-12.44-8.09-24.88-12.14-37.32-4.1-12.59-7.79-25.56-14.5-37.07-7.97-13.62-19.65-25.31-30.19-36.92-10.13-11.21-20.48-22.19-31.09-32.93-21.54-21.84-43.43-43.93-70.73-58.54-28.28-15.18-58.34-27.52-87.54-40.84-.38-.4-.85-.7-1.48-.88-.4-.1-.78-.23-1.18-.33-.23-.08-.48-.15-.7-.18-8.72-2.39-17.29-5.28-25.61-8.72-13.17-47.33-26.77-94.68-47.98-139.14-.43-.9-1.13-1.46-1.91-1.71-1.53-18.55-14-37.48-23.5-52.63-10.15-16.24-23.12-30.39-40.72-38.51-.6-.28-1.21-.33-1.73-.25-.43-1.13-.88-2.29-1.33-3.42-.23-.58-.55-.98-.93-1.31-4.9-43.53-25.03-113-82.11-98.88-5.28-11.89-12.29-22.87-22.19-32.02-10.2-9.43-23.1-16.54-37.02-18.32-9.75-1.23-20.38-.85-20.43,11.08-.08,16.04,6.89,34.33,11.69,49.31,5.6,17.52,12.09,34.76,17.19,52.43,9.48,32.93,12.19,67.76,15.83,101.87-3.44-5.13-6.81-10.28-10.15-15.48-9.78-15.21-18.8-33.3-32.65-45.39,.23-.38,.35-.8,.4-1.26-.3-1.16-.7-2.26-1.18-3.37-14.85-26.44-37.3-51.25-68.92-55.57-9.58-1.31-24.36-1.56-30.16,8.12-6.51,10.88,6.84,21.77,12.77,29.48,21.79,28.35,39.96,59.44,53.89,92.37,13.85,32.7,23.05,66.96,41.02,97.82,21.09,36.17,44.16,71.36,67.21,106.32-.2,.73-.08,1.56,.55,2.36,11.13,14.48,9.73,34.38,20.69,49.26,10.93,14.88,27.32,23.9,42.53,33.71,16.56,10.68,28.88,25.46,44.51,37.15,14.65,10.93,30.81,19.55,45.07,30.97,.2,.43,.53,.83,1.03,1.16,.58,.38,1.16,.78,1.73,1.16,.78,.65,1.56,1.28,2.31,1.94,.58,.5,1.18,.73,1.76,.78,24.41,16.24,48.51,33.15,71.43,51.45,24.05,19.2,45.87,42,53.23,72.76,.28,1.16,.98,1.76,1.83,1.96,6.16,17.92,5.98,38.28,5.73,56.85-.35,24.76-3.22,49.41-6.89,73.87-3.69,24.76-8.17,49.39-11.94,74.12h6.26c4.15-26.92,9.1-53.76,12.89-80.73,3.27-23.1,5.63-46.37,5.86-69.72,.18-21.69,.13-45.52-9.78-65.35-.08-.13-.15-.23-.25-.35-8.29-25.74-26.64-46.3-47.28-63.51-25.61-21.34-53.39-40.39-81.16-58.76-14.02-11.84-30.16-20.56-45.04-31.24-15.78-11.31-27.97-26.44-44.24-37.2-15.61-10.33-33.15-19.13-44.54-34.51-9.78-13.25-9.65-30.51-17.54-44.44,.18-.73,.05-1.51-.45-2.29-23.12-35.04-46.02-70.33-67.56-106.37-20.64-34.48-30.41-73.07-46.75-109.48-15.13-33.7-34.61-65.22-57.71-94.03-4.4-5.45-9.3-14.73-.1-18.47,5.05-2.04,11.06-1.83,16.34-1.28,10,1.06,19.63,4.68,28.2,9.85,16.79,10.15,28.68,26.14,38.15,43-.08,.05-.13,.15-.18,.23,.93,1.51,1.86,3.02,2.76,4.52,2.56,3.09,5.33,6.03,7.36,9.53,10,11.81,17.62,26.72,25.66,39.18,4.88,7.57,9.83,15.06,14.98,22.37,.15,.25,.3,.48,.48,.68,5.15,7.29,10.51,14.43,16.21,21.31-4.3-.83-8.72-1.38-13.3-1.58-.13-.05-.25-.1-.35-.13-6.16-2.21-16.41-5.2-22.57-1.18-6.53,4.22-5.2,13.87-3.8,20.36,.73,3.27,1.76,6.33,3.02,9.27-.4,.88-.48,1.91,.13,2.97,23.9,41.87,55.5,79.12,93.25,109.18,20.03,15.94,42.88,28.07,62.33,44.71,20.01,17.09,36.09,38.23,47.7,61.81,1.73,3.54,7.57,1.48,5.83-2.09-10.13-20.56-23.32-39.34-39.71-55.42-19.2-18.83-42.8-31.47-64.17-47.55-29.99-22.55-56.25-49.59-78.12-79.93,4.65,4.32,9.3,8.57,13.55,12.94,1.86,1.91,4.27,.38,4.8-1.68,10.28-7.36,36.65-21.94,29.88-36.87-3.77-8.39-13.35-15.21-20.74-20.03-3.59-2.36-7.34-4.7-11.21-6.91,19.03,5.66,35.84,17.62,51.27,30.19,19.25,15.66,37.85,30.59,59.54,42.73,11.84,6.64,23.45,13.35,34.21,21.67,1.51,1.16,2.99,2.34,4.47,3.49,.38,.8,1.01,1.23,1.73,1.36,7.41,5.81,14.78,11.61,22.72,16.74,9.93,6.41,20.33,11.89,31.12,16.51,.08,.23,.13,.45,.2,.68,.65,2.39,3.14,2.46,4.67,1.31,7.94,3.17,16.09,5.88,24.38,8.17,28.28,12.97,57.1,25.16,84.83,39.26,27.85,14.18,49.79,35.57,71.63,57.53,11.16,11.21,22.07,22.7,32.7,34.43,9.78,10.81,20.43,21.64,28.33,33.96,8.27,12.89,12.19,28.1,16.89,42.53,3.34,10.28,6.69,20.53,10.03,30.79,1.26,2.44,2.29,5,3.09,7.64,.05,.13,.1,.25,.15,.4,.35,.78,.75,1.56,1.01,2.41,1.53,2.59,2.79,5.4,3.07,8.24,9.12,29.96,7.06,61.83,4.27,93.02-3.17,35.06-4.4,69.6-.9,104.63,.68,2.11,1.28,4.27,1.16,6.46,.05,.05,.08,.13,.13,.18,.9,18.3,1.78,36.57,2.66,54.87h6.18c-.88-18.07-1.76-36.14-2.64-54.21ZM195.67,784.17c5.78,8.17-.88,13.85-7.52,19.25-5.63,4.6-11.59,8.85-17.42,13.2-10.91-10.76-23.58-20.36-31.95-33.3-3.92-6.06-9.45-15.78-8.34-23.4,1.56-10.58,11.39-8.75,19.58-5.48,.18,.1,.38,.18,.55,.23,3.14,1.28,5.98,2.74,8.02,3.77,12.79,6.41,28.58,13.7,37.07,25.74Zm-20.84-31.44c-.05-.45-.25-.93-.68-1.41-7.06-8.22-13.6-16.81-19.83-25.64-3.52-30.21-5.76-60.98-11.59-90.84-5.6-28.63-16.76-55.6-25.23-83.37-2.14-7.01-4.1-14.08-5.76-21.21-1.41-6.23-7.46-21.04,1.38-24.3,6.08-2.24,16.84,1.78,22.45,4.07,6.48,2.64,12.44,6.53,17.74,11.08,23.68,20.18,31.14,51.75,36.85,81.08-.98,.68-1.53,1.89-.85,3.32,14.83,31.57,19.05,67.16,28.6,100.51,9.22,32.2,20.16,63.82,31.19,95.41-23.6-18.67-46.15-39.96-74.27-48.71Zm132.43,85.61c-10.36-6.66-21.34-12.24-31.95-18.47-6.16-3.62-12.11-7.72-17.95-12.06,.13-.53,.13-1.11-.1-1.76-11.84-33.81-23.68-67.64-33.55-102.1-9.17-32.02-13.45-66.13-26.92-96.74,.28-.5,.38-1.11,.23-1.83-3.14-16.39-6.64-33.4-12.77-49.11,52.53-12.59,69.55,56.28,73.67,94.81,.13,1.06,.65,1.78,1.36,2.21,6.91,17.74,13.52,35.51,17.14,54.26,3.09,16.06,5,32.17,10.58,47.65,5.83,16.19,13.37,31.67,19.13,47.88,5.08,14.3,9.3,28.88,12.87,43.63-3.8-2.92-7.69-5.76-11.74-8.37Zm30.89,23.25c-3.87-2.87-7.62-5.86-11.39-8.82-3.95-17.54-8.8-34.84-14.83-51.78-5.76-16.21-13.3-31.69-19.13-47.88-6.26-17.42-7.79-35.74-11.79-53.71-2.87-12.82-7.14-25.21-11.79-37.48,14.68,7.87,25.49,20.31,34.36,34.43,9.63,15.38,22.72,35.09,22.6,53.71-.03,2.26,1.94,3.07,3.64,2.61,19.55,41.82,32.55,86.08,44.94,130.45-12.89-5.88-25.18-13.04-36.62-21.54Z"/><path class="d" d="M1373.01,609.56c-5.81-9.68-20.58-9.43-30.16-8.12-32.2,4.4-54.89,30.04-69.72,57-.63,1.16-.5,2.29,.03,3.19-13.85,12.09-22.87,30.19-32.65,45.39-3.34,5.2-6.71,10.38-10.15,15.48,3.64-34.11,6.36-68.94,15.86-101.87,5.08-17.67,11.56-34.91,17.17-52.43,4.8-14.98,11.76-33.28,11.69-49.31-.05-11.94-10.68-12.32-20.43-11.08-13.92,1.78-26.82,8.9-37.02,18.32-9.9,9.15-16.92,20.13-22.19,32.02-57.08-14.13-77.21,55.35-82.11,98.88-.38,.33-.7,.73-.93,1.31-.45,1.13-.9,2.29-1.33,3.42-.53-.08-1.13-.03-1.73,.25-17.59,8.12-30.56,22.27-40.72,38.51-9.5,15.16-21.97,34.08-23.5,52.63-.78,.25-1.48,.8-1.91,1.71-21.21,44.46-34.81,91.82-47.98,139.14-8.32,3.44-16.89,6.33-25.61,8.72-.23,.03-.48,.1-.7,.18-.4,.13-.78,.23-1.18,.33-.63,.18-1.11,.48-1.48,.88-29.21,13.32-59.27,25.66-87.54,40.84-27.4,14.65-49.34,36.85-70.98,58.76-10.83,11.01-21.39,22.29-31.79,33.73-10.25,11.29-21.52,22.7-29.23,35.89-6.71,11.51-10.41,24.48-14.5,37.07-3.17,9.7-6.31,19.43-9.48,29.13-.85,2.64-2.51,6.89-3.64,9.43-9.63,21.46-12.52,44.34-12.52,67.38,0,10.58,.6,21.19,1.46,31.72,2.89,35.87,5.3,70.93,2.59,106.67-.15,1.94-.4,3.92-.98,5.78-.03,.83-.25,1.68-.4,2.54-.45,2.79-.65,5.68-.68,8.52,0,.05-.03,.1-.05,.18-.73,15.21-1.48,30.41-2.21,45.62h6.18c.73-15.11,1.48-30.21,2.21-45.32,.05-1.01,.38-1.96,.68-2.94,.08-.2,.13-.43,.15-.65,4.15-36.72,2.94-72.86-.38-109.56-2.64-29.38-4.62-59.39,2.79-87.84,.68-2.56,2.04-4.88,3.34-7.21,.08-.18,.18-.38,.25-.6,5.08-15.61,10.15-31.22,15.23-46.85,4.7-14.4,8.62-29.63,16.89-42.53,7.82-12.19,18.32-22.92,28.02-33.6,9.7-10.71,19.58-21.26,29.76-31.52,22.92-23.1,45.64-45.92,74.88-60.8,27.72-14.1,56.55-26.29,84.83-39.26,8.29-2.29,16.44-5,24.38-8.17,1.66,1.26,4.4,1.06,4.8-1.89,.03-.05,.05-.08,.08-.1,10.78-4.62,21.19-10.1,31.12-16.51,7.94-5.13,15.31-10.93,22.72-16.74,.73-.13,1.36-.55,1.73-1.36,1.48-1.16,2.97-2.34,4.47-3.49,10.76-8.32,22.37-15.03,34.21-21.67,21.69-12.14,40.32-27.07,59.54-42.73,15.43-12.57,32.27-24.53,51.27-30.19-3.87,2.21-7.62,4.55-11.21,6.91-7.39,4.83-16.97,11.64-20.74,20.03-6.76,14.93,19.6,29.51,29.88,36.87,.53,2.06,2.94,3.59,4.8,1.68,4.25-4.37,8.9-8.62,13.55-12.94-21.87,30.34-48.13,57.38-78.12,79.95-21.36,16.06-44.97,28.7-64.17,47.53-16.39,16.09-29.58,34.86-39.71,55.42-1.73,3.57,4.1,5.63,5.83,2.09,11.61-23.58,27.7-44.71,47.7-61.81,19.45-16.64,42.3-28.78,62.33-44.71,37.75-30.06,69.35-67.31,93.25-109.18,.6-1.06,.53-2.09,.13-2.97,1.26-2.94,2.29-6.01,3.02-9.27,1.41-6.48,2.74-16.14-3.8-20.36-6.16-4.02-16.41-1.03-22.57,1.18-.1,.03-.23,.08-.35,.13-4.57,.2-9,.75-13.3,1.58,5.71-6.89,11.06-14.02,16.21-21.31,.18-.2,.33-.43,.48-.68,5.15-7.31,10.1-14.8,14.98-22.37,10.48-16.26,20.23-36.7,35.54-48.96,1.68-1.36,1.28-3.34,.08-4.5,9.48-16.86,21.36-32.85,38.15-43,8.57-5.18,18.22-8.8,28.2-9.85,5.28-.55,11.29-.75,16.34,1.28,9.2,3.74,4.3,13.02-.1,18.47-23.1,28.8-42.58,60.32-57.71,94.03-16.34,36.42-26.11,75-46.75,109.48-21.54,36.04-44.44,71.33-67.56,106.37-.5,.78-.63,1.56-.45,2.29-7.89,13.92-7.77,31.19-17.54,44.44-11.39,15.38-28.93,24.18-44.51,34.51-16.29,10.76-28.48,25.89-44.26,37.2-14.88,10.68-31.02,19.4-45.04,31.24-27.77,18.37-55.55,37.42-81.16,58.76-20.64,17.22-38.98,37.78-47.28,63.51-.1,.13-.18,.23-.25,.35-9.9,19.83-9.95,43.66-9.78,65.35,.23,23.35,2.59,46.62,5.86,69.72,3.44,24.43,7.82,48.71,11.69,73.07h6.28c-3.52-22.17-7.47-44.26-10.76-66.45-3.67-24.46-6.53-49.11-6.89-73.87-.25-18.57-.43-38.93,5.73-56.85,.05,0,.1-.03,.13-.03,.35-2.56,1.58-5.15,3.19-7.31,8.47-28.08,29.13-49.31,51.75-67.39,22.92-18.3,47.03-35.21,71.43-51.45,.58-.05,1.18-.28,1.76-.78,.75-.65,1.53-1.28,2.31-1.94,.58-.38,1.16-.78,1.73-1.16,.5-.33,.83-.73,1.03-1.16,14.25-11.41,30.41-20.03,45.07-30.97,15.63-11.69,27.95-26.47,44.51-37.15,15.21-9.8,31.59-18.83,42.53-33.71,10.96-14.88,9.55-34.79,20.69-49.26,.63-.8,.75-1.63,.55-2.36,23.05-34.96,46.12-70.12,67.21-106.32,17.97-30.86,27.17-65.12,41.02-97.82,13.92-32.93,32.1-64.02,53.89-92.34,5.93-7.74,19.28-18.62,12.77-29.51Zm-322.52,250.86c-3.77,2.97-7.52,5.96-11.39,8.82-11.44,8.5-23.73,15.66-36.62,21.54,12.39-44.36,25.41-88.62,44.94-130.45,1.71,.45,3.67-.35,3.64-2.59-.13-18.65,12.97-38.35,22.6-53.74,8.87-14.13,19.68-26.57,34.36-34.43-4.65,12.27-8.92,24.66-11.79,37.48-4,17.97-5.53,36.29-11.79,53.71-5.83,16.19-13.37,31.67-19.13,47.88-6.03,16.94-10.88,34.23-14.83,51.78Zm69.4-44.97c-5.83,4.35-11.79,8.45-17.95,12.06-10.61,6.23-21.59,11.81-31.95,18.47-4.05,2.61-7.94,5.45-11.74,8.37,3.57-14.75,7.79-29.33,12.87-43.63,5.76-16.21,13.3-31.69,19.13-47.88,5.58-15.48,7.49-31.59,10.58-47.65,3.62-18.75,10.23-36.52,17.14-54.24,.7-.45,1.23-1.18,1.36-2.24,4.15-38.53,21.14-107.4,73.69-94.81-6.16,15.73-9.65,32.72-12.79,49.11-.15,.73-.05,1.33,.23,1.83-13.47,30.61-17.74,64.72-26.92,96.74-9.88,34.46-21.72,68.29-33.55,102.1-.23,.65-.23,1.23-.1,1.76Zm98.78-49.36c2.04-1.03,4.88-2.49,8.02-3.77,.18-.05,.38-.13,.55-.23,8.19-3.27,18.02-5.1,19.58,5.48,1.11,7.62-4.42,17.34-8.34,23.4-8.37,12.94-21.04,22.55-31.95,33.3-5.83-4.35-11.79-8.6-17.42-13.2-6.64-5.4-13.3-11.08-7.52-19.25,8.5-12.04,24.28-19.33,37.07-25.74Zm4.27-32.75c-6.23,8.82-12.77,17.44-19.83,25.64-.43,.48-.63,.96-.68,1.41-28.13,8.75-50.67,30.04-74.27,48.71,11.03-31.59,21.97-63.21,31.19-95.41,9.55-33.35,13.77-68.94,28.6-100.51,.68-1.43,.13-2.64-.85-3.32,5.81-29.83,13.42-61.96,38.05-82.11,5.91-4.83,16.84-10.58,24.15-12.84,5.13-1.58,10.96-2.71,14.83-1.28,8.85,3.27,2.79,18.07,1.38,24.3-1.66,7.14-3.62,14.2-5.76,21.21-8.47,27.77-19.63,54.77-25.23,83.37-5.83,29.86-8.07,60.62-11.59,90.84Z"/></g><g><g><path class="e" d="M918.07,322.39c-1.56,2.36-3.12,4.72-4.6,7.08-.04,.04,0,.04,0,.04-.38,.55-.76,1.05-1.14,1.64v.04c-.13,.21-.25,.38-.38,.59-.17,.21-.25,.38-.34,.59,0,.04-.04,.04-.04,.08-.17,.13-.25,.3-.34,.42-.04,.08-.13,.17-.21,.3,0,.04-.04,.13-.08,.17-.13,.13-.17,.21-.25,.3v.04c-.08,.21-.17,.34-.34,.55-.04,.08-.13,.17-.21,.3v.04s-.04,.08-.04,.13c-.13,.21-.25,.34-.38,.55v.04c-.13,.08-.17,.17-.21,.34-.04,0-.04,.04-.04,.04-.51,.76-1.01,1.56-1.43,2.32-6.24,9.78-12.23,19.65-17.96,29.68-.04,0-.04,.04-.04,.04v.04c-1.35,2.23-2.66,4.55-3.88,6.83v.04c-.13,.13-.17,.25-.25,.38-.04,0-.08,.04-.13,.13-.04,.13-.08,.25-.13,.34,0,.08-.04,.13-.08,.17-.08,.13-.13,.21-.17,.29,0,0,0,.04-.04,.08-.08,.13-.13,.21-.25,.34v.08c-.13,.17-.21,.38-.34,.55-.13,.25-.25,.51-.42,.76l-.04,.04c-.08,.25-.25,.51-.42,.76,0,.04-.04,.08-.04,.13v.04c-.34,.63-.67,1.18-1.05,1.81,0,0,0,.08-.04,.13v.04c-.04,.17-.17,.3-.25,.46l-.04,.04c-.38,.67-.67,1.27-.93,1.9,0,.04-.04,.08-.04,.08l-.04,.04-.08,.08c-.13,.17-.21,.3-.21,.42-.04,.04-.04,.13-.04,.17-.08,.04-.13,.13-.17,.21-.04,.04-.08,.13-.08,.21-7.55,13.79-14.59,27.87-20.95,42.28-.63,1.43-1.31,2.91-1.94,4.38v.08s-.04,.04-.04,.04c0,0,0,.04-.04,.04l-.04,.04c-.21,.51-.46,.93-.51,1.43-.13,.13-.21,.25-.25,.42t-.04,.08s-.04,.04-.04,.08c-6.45,15.01-12.14,30.31-17.03,45.87-.29,1.01-.59,1.98-.93,2.99-.08,.25-.17,.59-.21,.84l-.08,.08v.04c-.13,.42-.21,.72-.34,1.14-.04,.13-.08,.21-.08,.34,0,.04-.04,.04,0,.08-.04,.08-.08,.17-.08,.21-.13,.34-.21,.76-.34,1.1v.04c-.13,.42-.3,.84-.38,1.22v.04c-.08,.25-.17,.46-.17,.67v.08s-.04,.04-.04,.04c-2.49,8.6-4.72,17.2-6.62,25.93-3.33,15.09-5.78,30.1-7.12,45.57v.17s.04,.04,.04,.08v.08s.04,0,.04,.04c0,0-.04,0-.04,.04-.13,1.22-.21,2.49-.3,3.75v.13c-.04,.17-.04,.38-.08,.59,.04,.04,0,.04,0,.08-.04,.46-.08,.89-.13,1.39v.08c-.08,1.35-.17,2.74-.21,4.17-.13,1.35-.21,2.66-.25,4.01-.04,.76-.08,1.56-.08,2.32v.13c-.55,13.7-.3,27.44,.93,41.15,.04,.17,0,.3,.04,.46,.17,2.36,.42,4.72,.67,7.04,.21,1.9,.46,3.79,.72,5.69-.42-.04-.76-.17-1.14-.21-.55-.13-1.1-.21-1.6-.34-.25-1.85-.46-3.71-.67-5.56-.25-2.4-.46-4.81-.63-7.21-.97-10.33-1.31-20.66-1.18-30.99v-.04c-.04-.13-.04-.3,0-.51-.04-.46-.04-.93,0-1.43v-.76c0-1.1,0-2.23,.08-3.37v-.08c.08-4.72,.34-9.4,.67-14.12v-.04s.04-.04,0-.08c0-.63,.08-1.26,.17-1.85v-.04c0-.51,.04-1.01,.08-1.48,.04-.59,.08-1.22,.13-1.81,.04-.42,.08-.84,.17-1.26,.04-.04,0-.08-.04-.13l.04-.04c0-.08-.04-.13,0-.17v-.04c.04-.51,.13-.8,.21-1.26,0-.08,0-.17-.04-.25,.21-2.49,.51-4.97,.8-7.46v-.3c2.61-22.43,7.34-44.52,13.83-66.1,.04-.04,0-.04,0-.04,.17-.67,.38-1.35,.59-2.02,.04,0,.04-.04,.04-.04v-.04c.08-.51,.25-.89,.38-1.35v-.04c.08-.3,.17-.51,.25-.76,.04-.04,.04-.08,.04-.08,0,0,.04-.04,0-.08,.08-.21,.17-.42,.21-.67t.04-.08c.21-.67,.42-1.39,.63-2.02,0-.04,.04-.04,.04-.04v-.04c-.04-.13,.04-.21,.08-.25v-.04c.04-.08,.04-.13,.08-.17v-.04s.04-.04,.04-.04c-.04-.13,.04-.21,.08-.3,0-.08,0-.17,.08-.21,0,0-.04-.04,0-.04v-.13c.13-.42,.21-.76,.42-1.14,3.92-12.39,8.47-24.62,13.53-36.63,0-.08,0-.13,.04-.17,.34-.89,.67-1.77,1.05-2.61,0-.04,.04-.08,.04-.08,.04-.04,.04-.08,.08-.13,.04-.08,.04-.17,.08-.25,.04-.13,.08-.17,.13-.25,.04-.04,.04-.08,.04-.17,.04-.17,.13-.3,.25-.38l-.04-.04,.04-.04v-.08l.04-.08s0-.08,.04-.08c0,0-.04,0,0-.04,0-.04,.04-.04,.04-.04v-.04c.08-.21,.17-.46,.3-.67v-.04s.04-.13,.08-.17v-.08c.08-.13,.13-.21,.21-.38,0-.04,.04-.08,.04-.13s.04-.08,.04-.13l.04-.04v-.04c.13-.25,.21-.51,.38-.8,.17-.46,.34-.89,.55-1.35v-.04c.21-.55,.46-1.1,.76-1.64,3.67-8.39,7.55-16.69,11.59-24.87,11.13-22.47,23.65-44.14,37.06-65.34,.38-.63,.72-1.26,1.14-1.85,.04-.13,.08-.17,.13-.25h.04c.04-.08,.08-.17,.08-.21,.13-.13,.21-.29,.34-.46v-.04c.08-.13,.17-.25,.25-.38v-.04c.08-.08,.08-.17,.17-.25,.08-.13,.17-.25,.3-.38,0-.04,.04-.08,.04-.13,.08-.17,.21-.3,.34-.51v-.04c.08-.08,.13-.21,.21-.34,.08-.08,.08-.13,.17-.21v-.04c.08-.13,.13-.17,.17-.3,.04,0,.04-.04,.04-.04h.04c.04-.08,.04-.13,.08-.17l.04-.04c.04-.13,.13-.21,.25-.34v-.04c.21-.38,.46-.76,.67-1.14v-.04c.38-.51,.67-.97,1.01-1.48,1.64-2.61,3.37-5.23,5.1-7.84,.97-1.43,3.12,.13,2.19,1.56Z"/><g><path class="e" d="M894.03,638.7c-.25,0-.51,0-.76-.04-.46,0-.97,0-1.39-.04h-.08c-.17,.13-.34,.13-.55,0-.08,0-.17-.04-.25,0l-.04-.25c-.13-.59-.25-1.22-.38-1.81,0,0-.08-.04-.04-.08-.04-.21-.08-.42-.13-.67,0,0,0-.04-.04-.08,0-.21-.08-.38-.13-.59,0-.04-.04-.04-.04-.08v-.08c-.08-.42-.17-.8-.3-1.22v-.04l-.04-.42h-.04v-.08c0-.17-.08-.34-.13-.55l-.04-.3c-.04-.21-.13-.42-.17-.67v-.04l-.04-.3-.04-.21c-.17-.63-.3-1.26-.42-1.9-.13-.59-.25-1.22-.42-1.81,0,0,.04-.04,0-.08v-.04c-.08-.42-.17-.84-.25-1.31-.25-1.26-.55-2.49-.8-3.84-.17-.72-.34-1.43-.46-2.15v-.04c-.13-.51-.21-1.01-.3-1.56-.08-.38-.17-.76-.25-1.18-.21-.93-.42-1.85-.59-2.82v-.08c-.21-.93-.34-1.77-.55-2.7-.55-2.66-1.1-5.27-1.69-7.93v-.08c-.08-.51-.21-1.01-.3-1.52-.04-.04-.04-.08-.04-.13-.08-.55-.21-1.05-.34-1.56l-.04-.04c-.08-.55-.21-1.05-.34-1.52-.04-.25-.13-.46-.17-.72v-.04c-.46-2.15-.97-4.22-1.48-6.32v-.13c-.13-.34-.21-.67-.25-1.01,0,0,.04,0,0-.04-.55-2.07-1.1-4.17-1.6-6.2,0-.08,0-.17-.08-.25-1.14-4.59-2.4-9.19-3.75-13.7,0-.04-.04-.04-.04-.08-.89-2.95-1.77-5.94-2.74-8.85v-.08c-2.19-6.91-4.55-13.62-7.12-20.4-.04-.17-.13-.3-.17-.42-2.53-6.75-5.27-13.36-8.18-19.98-.04-.08-.08-.17-.13-.25-.13-.17-.17-.38-.25-.55-.04-.08-.04-.13-.08-.21-1.1-2.4-2.23-4.81-3.29-7.21-.8-1.69-1.6-3.46-2.49-5.14,0-.08-.04-.13-.08-.17-.08-.21-.21-.42-.3-.67-1.39-2.91-2.82-5.82-4.3-8.73,0-.04-.04-.04-.04-.08-1.31-2.7-2.66-5.4-4.01-8.14-.34-.63-.63-1.31-1.01-1.9-.08-.17-.17-.42-.25-.59,0-.04-.04-.04-.04-.04,.04-.04,0-.04-.04-.04,0-.04-.04-.08-.04-.13-.46-.97-.93-1.85-1.39-2.82-.08-.17-.17-.34-.3-.55v-.08c-.04-.13-.13-.21-.17-.34-.17-.34-.34-.59-.51-.93v-.04c-.08-.21-.21-.51-.34-.72-.04-.08-.04-.13-.04-.21-.25-.55-.46-.84-.8-1.35v-.04s-.04-.04-.04-.04c0,0,.04-.04,0-.08-.51-1.05-1.01-2.15-1.6-3.2-.04-.13-.08-.25-.17-.38-.21-.42-.38-.84-.63-1.26-.04-.08-.08-.13-.13-.25l-.04-.04c-.59-1.31-1.26-2.57-1.9-3.88-.04-.13-.13-.25-.17-.38-.55-1.1-1.05-2.19-1.64-3.29-.34-.72-.67-1.43-1.01-2.15,0-.04-.04-.08-.04-.13s-.04-.04,0-.08c0-.04-.04-.08-.04-.08,0-.08-.04-.13-.08-.17-.38-.63-.72-1.39-1.05-2.11v-.08s.04-.04-.04-.08c-.04-.08-.08-.21-.17-.3,0-.04-.04-.08-.08-.13-1.18-2.53-2.36-5.1-3.54-7.67v-.04c-.72-1.52-1.43-3.12-2.11-4.68v-.04c-1.56-3.33-2.95-6.7-4.34-10.12-.3-.59-.55-1.18-.76-1.77-2.19-5.4-4.26-10.79-6.16-16.32-.34-1.01-.67-2.07-1.01-3.16-3.79-11.59-6.83-23.57-8.64-35.67,0-.13-.04-.25-.04-.38l-.04-.17c-.21-1.22-.38-2.49-.51-3.67-.08-.76-.21-1.52-.3-2.28-.08-.55-.13-1.01-.17-1.56-.04-.08-.04-.21-.04-.34,0,0-.04-.04,0-.08-.04,0-.04-.04-.04-.04,0,0,0-.04,.04-.04-.08-.38-.08-.76-.13-1.14v-.04c-.08-.8-.17-1.6-.21-2.45l-.04-.04c-.13-1.1-.21-2.19-.3-3.33v-.17c-.04-.34-.04-.72-.08-1.1v-.17c-.04-.42-.08-.8-.13-1.18-.04-.97-.13-1.77-.17-2.7v-.04c0-.34-.04-.63-.04-.97l-.04-.04c0-.25-.04-.51-.04-.76,.04-.04,0-.08,0-.13,0-.25-.04-.46-.04-.72v-.13c-.04-.55-.08-1.05-.13-1.6v-.21c-.04-.3-.04-.55-.04-.89,.04-.04,0-.04,0-.08l-.08-.38v-.04c.04-.08,.04-.13,.04-.21v-.04l-.04-.25c0-.38-.04-.76,0-1.14,0-.04-.04-.08-.04-.13-.08-1.6-.21-3.29-.29-4.89v-.13l-.04-.04c-.46-6.79-1.05-13.57-2.15-20.32v-.04c-.17-.89-.34-1.81-.51-2.74v-.04s-.04-.04-.04-.08v-.04c0-.13-.04-.17,.04-.29v-.04c-.08-.13-.04-.17,.04-.25-.04,0,0-.04,0-.04,.04-.3,.21-.51,.46-.63,0-.04,.04-.04,.04-.04,.04-.04,.08-.04,.13-.04h.04l.04-.04s.04-.04,.08-.04l.04-.04,.04,.04,.04-.04h.04c.13-.04,.25,0,.42,0h.04c.25,0,.51,.13,.67,.3,.17,.13,.25,.25,.3,.38v.04s.04,.04,.04,.08v.04s0,.04,0,.04c.08,.04,.08,.08,.08,.17l.21,1.18c.13,.63,.25,1.35,.38,2.02,1.14,7.25,1.73,14.54,2.15,21.8,0,.21,.04,.42,.08,.63,0,.21,.04,.38,.04,.59,.08,1.05,.13,2.19,.21,3.25v.04c.04,.63,.04,1.14,.13,1.77v.04c.04,1.01,.13,2.07,.21,3.08v.25c.08,1.52,.17,2.95,.34,4.47v.04c-.04,.13,0,.21,0,.3l-.04,.04s.04,.08,.04,.08v.3s0,.08,.04,.13v.08s0,.08,.04,.13c-.04,.08-.04,.13,0,.17v.17s0,.08,.04,.13v.04c-.04,.13-.04,.21,0,.34v.3c0,.3,0,.55,.13,.84v.04c-.04,.67,.04,1.31,.13,1.98v.04c0,.34,.08,.67,.13,1.01v.38s0,.13,.04,.17c0,.42,.04,.89,.13,1.35v.08c0,.21,.04,.38,.08,.59v.04c.04,.76,.13,1.56,.21,2.32v.08l.04,.17c2.11,17.03,6.32,33.98,12.31,50.08,4.17,11.21,8.94,22.17,14.08,33.01,0,.08,.04,.17,.13,.21,.04,.13,.08,.21,.13,.34,.13,.3,.25,.59,.38,.89t.04,.08c1.56,3.29,3.16,6.66,4.76,9.91,.38,.72,.84,1.81,1.39,2.91,.3,.55,.55,1.14,.89,1.69,.25,.51,.51,1.01,.76,1.56,.04,.17,.17,.42,.3,.59,.46,.93,.89,1.86,1.35,2.7,6.45,13.11,13.07,26.18,19.14,39.42,7.38,16.15,13.41,32.71,18.38,49.62v.04c3.25,10.88,6.07,21.88,8.43,33.01v.13c.17,.42,.25,.84,.34,1.35v.04c.13,.51,.25,1.1,.34,1.69v.04c.13,.38,.17,.72,.25,1.1v.08c.08,.13,.08,.25,.13,.42v.04l.08,.46c0,.17,.04,.34,.08,.51,.04,.04,.04,.08,.04,.13v.04c.04,.13,.13,.3,.13,.46v.04c.04,.08,.04,.21,.08,.3v.04c.04,.42,.17,.76,.21,1.18l.08,.3c.34,1.56,.63,3.08,.97,4.6v.08c.34,1.81,.76,3.67,1.14,5.52v.04c.17,.72,.34,1.39,.46,2.07,.21,.97,.42,1.85,.63,2.82v.04c.08,.46,.21,.93,.3,1.39l.04,.3c.08,.13,.08,.21,.13,.34v.13l.04,.17c.04,.13,.08,.3,.13,.46v.13c.04,.3,.13,.51,.17,.8,.08,.21,.13,.46,.17,.67,.04,.17,.08,.38,.13,.55v.04l.04,.08v.04c.04,.17,.04,.25,.13,.42v.04c.08,.46,.17,.89,.25,1.35v.04c.13,.38,.17,.67,.25,.97v.04l.04,.3v.08c.17,.51,.3,1.05,.38,1.48v.13c.25,1.1,.55,2.11,.76,3.2,.04,.04,0,.08,0,.08,.08,.25,.13,.51,.21,.76Z"/><path class="e" d="M902.26,675.08c-.63,.3-1.31,.59-1.98,.89-.21,.08-.38,.17-.63,.25-.08-.34-.17-.67-.25-1.01,.21-.13,.42-.21,.63-.34,.67-.34,1.31-.67,1.94-1.05,.13,.42,.21,.84,.3,1.26Z"/></g><path class="e" d="M820.74,564.54c-11.17-21.47-26.4-40.31-40.16-60.11-13.84-19.93-25.69-41.11-39.06-61.34-.94-1.42,1.11-3.14,2.05-1.71,14.06,21.27,26.53,43.52,41.19,64.41,13.28,18.92,27.7,37.04,38.4,57.62,.79,1.53-1.63,2.64-2.42,1.12h0Z"/><path class="e" d="M907.7,335.37c12.17-.2,22.9-7.11,29.78-16.88,.89-1.26,7.67-11.01,6.17-12.61-.54-.58-7.96,1.59-9.43,1.52-9.99-.46-8.9-11.92-8.75-19.5,.8,.31,1.61,.61,2.41,.92-3.31,4.55-7.31,7.93-11.95,11.13-.64,.44-1.33,.37-1.88-.17-6.21-6.15-10.37-13.36-14.7-20.88,.84-.26,1.69-.52,2.53-.78,.7,8.46,2.1,15.25-.16,23.63-3.3,12.23-7.57,25.1,5.21,33.56,1.44,.95-.12,3.12-1.55,2.17-6.87-4.54-10.25-10.34-10-18.68,.14-4.66,1.37-9.07,2.54-13.54,2.56-9.8,2.16-16.75,1.33-26.71-.13-1.52,1.77-2.1,2.53-.78,2.98,5.17,5.91,12.62,10.57,16.35,5.38,4.31,9.99-2.21,13.37-6.86,.83-1.14,2.44-.37,2.41,.92-.1,4.98-.87,9.77,2.74,13.66,4.12,4.44,8.77,2.13,14.36,1,.79-.16,1.71,.61,1.55,1.46-3.63,18.29-20.66,33.42-39.35,33.73-1.71,.03-1.42-2.63,.28-2.66h0Z"/><path class="e" d="M940.22,313.68c20.34-13.16,44.78-31.2,55.98-53.2,.77-1.51,3.28-.58,2.49,.95-11.52,22.63-35.93,40.82-56.77,54.3-1.43,.92-3.15-1.12-1.71-2.05h0Z"/><path class="e" d="M997.9,261.52c-6.07,.72-14.1-3.58-19.5,.17-1.4,.97-3.12-1.07-1.71-2.05,6.37-4.42,13.81,.07,20.76-.75,1.7-.2,2.15,2.43,.44,2.63h0Z"/><path class="e" d="M938.41,304.96c6.43-5.15,13.03-10.39,18.04-17,4.72-6.22,7.98-13.4,12.56-19.73,7.52-10.39,12.53-25.13,23.14-32.82,.24,.78,.48,1.57,.71,2.35-8.12-.46-16.53-2.09-24.46,.46-1.62,.52-2.75-1.9-1.12-2.42,8.48-2.73,17.13-1.18,25.86-.69,1.11,.06,1.64,1.69,.71,2.35-7.35,5.32-9.92,12.99-14.34,20.48-3.71,6.29-8.64,11.72-12.48,17.91-7.89,12.72-15.16,21.74-26.93,31.16-1.34,1.07-3.05-.98-1.71-2.05h0Z"/><path class="e" d="M925.59,289.72c3.36-5.73,7.69-10.33,12.19-15.13,6.14-6.55,10.46-13.31,14.98-20.99,3.85-6.55,8-11.74,13.26-17.19,7.22-7.5,10.81-14.24,14.47-23.73,.62-1.6,3.11-.66,2.49,.95-2.7,7-4.81,13.45-9.74,19.21-5.63,6.58-12.02,11.91-16.62,19.41-4.08,6.66-7.53,13.49-12.61,19.48-5.53,6.53-11.88,12.08-16.26,19.54-.87,1.48-3.04-.08-2.17-1.55h0Z"/><path class="e" d="M982.52,214.05c-8.76,3.5-19.33,.85-27.33,5.65-9.41,5.64-13.31,18.39-16.59,28.21-5.65,16.92-13.52,34.06-23.74,48.74-.98,1.41-3.15-.14-2.17-1.55,6.38-9.17,11.17-19.68,16.24-29.64,5.05-9.92,7.22-20.9,11.84-31,2.87-6.27,6.71-13.34,12.75-17.08,8.33-5.17,18.89-2.16,27.89-5.76,1.59-.64,2.72,1.78,1.12,2.42h0Z"/><path class="e" d="M912.02,296.72c-3.62-27.38,16.73-54.32,1.06-80.19-.89-1.47,1.54-2.58,2.42-1.12,15.98,26.39-4.53,53.08-.85,80.87,.22,1.7-2.41,2.14-2.63,.44h0Z"/><path class="e" d="M915.53,215.58c-.23,9.82-5.75,18.69-8.92,27.8-4.89,14.06-5.34,26.1-1.88,40.47,.4,1.67-2.23,2.1-2.63,.44-2.55-10.59-3.78-20.62-1.24-31.34,2.95-12.46,11.71-24.83,12.01-37.65,.04-1.72,2.7-1.43,2.66,.28h0Z"/><path class="e" d="M945.97,224.23c-.48-4.04,.16-7.98-1.38-11.86-1.55-3.9-3.78-7.6-5.92-11.19-.88-1.48,1.55-2.58,2.42-1.12,2.4,4.03,5.13,8.34,6.56,12.83,1.12,3.55,.53,7.27,.95,10.9,.2,1.7-2.43,2.15-2.63,.44h0Z"/><path class="e" d="M940.82,200.88c-1.62,5.85-4.4,10.85-8.38,15.43-4.2,4.83-9.67,8.98-10.95,15.6-.32,1.67-2.98,1.41-2.66-.28,.99-5.13,3.89-8.73,7.37-12.5,5.43-5.88,9.93-11.34,12.12-19.21,.46-1.65,2.95-.7,2.49,.95h0Z"/><path class="e" d="M883.09,376.39c2.73-12.64,22.03-12.54,32.03-13.15,25.89-1.56,58.41-2.3,72.07-28.83,.78-1.51,3.28-.58,2.49,.95-8.33,16.18-25.59,24.91-42.94,27.92-10.91,1.89-22.02,1.97-33.04,2.71-8,.53-25.78,.61-27.96,10.69-.36,1.66-3.02,1.4-2.66-.28h0Z"/><path class="e" d="M989.99,334.72c-2.8,17.61-10.65,31.8-26.84,40.4-21.52,11.45-39.9-.56-60.16-8.09-1.61-.6-.66-3.09,.95-2.49,18.1,6.72,34.86,18.4,54.78,9.8,17.15-7.41,25.78-22.06,28.61-39.9,.27-1.69,2.93-1.43,2.66,.28h0Z"/><path class="e" d="M989.71,335.09c-9.99,11.24-23.68,12.97-38,14.05-7.76,.58-15.63,.86-23.29,2.32-11.32,2.16-16.26,6.49-23.63,14.8-1.13,1.27-3.31-.27-2.17-1.55,3.73-4.2,6.07-8.43,11.15-11.28,6.11-3.43,13.42-4.65,20.27-5.5,18.15-2.23,40.13,.65,53.51-14.39,1.13-1.27,3.31,.27,2.17,1.55h0Z"/><path class="e" d="M855.72,429.38c22.41-17.04,53.27-6.65,76.11-22.39,1.41-.97,3.12,1.08,1.71,2.05-22.92,15.8-53.83,5.45-76.11,22.39-1.37,1.04-3.08-1.01-1.71-2.05h0Z"/><path class="e" d="M933.4,409.06c-8.29,7.73-12.27,18.12-24.68,19.94-9.39,1.38-19.21-1.27-26.3-7.48-1.28-1.12,.26-3.3,1.55-2.17,8.37,7.33,20.59,9.64,30.6,4.44,7.88-4.09,10.98-11.05,17.12-16.78,1.26-1.18,2.96,.89,1.71,2.05h0Z"/><path class="e" d="M933,409.4c-5.5,3.01-12.25,3.21-18.42,3.3-3.92,.06-7.6-.85-11.47-1.11-6.28-.43-17.39,.5-17.97,8.61-.12,1.71-2.78,1.44-2.66-.28,.61-8.46,5.29-9.91,13.28-10.73,11.84-1.22,25,3.88,36.12-2.21,1.51-.83,2.62,1.6,1.12,2.42h0Z"/><path class="e" d="M854.47,430.76c-4.4-25.96-14.5-46.92-40.38-56.52-1.61-.6-.66-3.09,.95-2.49,26.78,9.94,37.5,31.63,42.07,58.58,.29,1.69-2.35,2.13-2.63,.44h0Z"/><path class="e" d="M847.77,403.46c7.53-1.67,3.64-11.57,1.37-15.47-3.14-5.4-7.62-9.89-13.26-12.65-8.71-4.26-19.39-5.8-28.74-3.02-1.64,.49-2.06-2.15-.44-2.63,13.86-4.13,31.17,.41,40.72,11.35,5.05,5.79,13.31,22.27,.78,25.05-1.68,.37-2.11-2.26-.44-2.63h0Z"/><path class="e" d="M806.87,369.85c7.27,2.97,11.58,7.9,14.74,14.99,2.15,4.83,3.43,10.33,6.86,14.47,2.68,3.24,15.05,11.93,19.31,5.08,.91-1.46,3.08,.1,2.17,1.55-4.08,6.57-14.73,2.41-19.57-1.19-11.87-8.81-9.36-26.24-24.46-32.41-1.59-.65-.65-3.15,.95-2.49h0Z"/><path class="e" d="M815.78,281.05c2.84,17.67-6.27,32.41-15.96,46.36-.98,1.41-3.15-.14-2.17-1.55,9.27-13.34,18.22-27.43,15.5-44.37-.27-1.7,2.36-2.14,2.63-.44h0Z"/><path class="e" d="M798.11,328.32c-16.75-2.37-25.26-24.67-22.41-39.61,.32-1.67,2.98-1.41,2.66,.28-2.55,13.39,4.78,34.52,20.03,36.68,1.7,.24,1.43,2.9-.28,2.66h0Z"/><path class="e" d="M793.03,300.94c-1.98-2.34-4.01-4.74-6.6-6.43-2.9-1.88-6.26-2.97-9.34-4.51-1.52-.76-.59-3.26,.95-2.49,3.28,1.64,6.86,2.8,9.94,4.83,2.77,1.83,4.98,4.38,7.1,6.89,1.11,1.32-.94,3.02-2.05,1.71h0Z"/><path class="e" d="M792.48,300.12c.49-2.85,.3-5.75,.69-8.61,.43-3.19,1.21-6.33,1.71-9.51,.27-1.69,2.92-1.43,2.66,.28-.5,3.18-1.29,6.32-1.71,9.51-.38,2.86-.19,5.76-.69,8.61-.29,1.68-2.95,1.42-2.66-.28h0Z"/><path class="e" d="M797.33,281c3.93,5.7,6.41,11.95,7.63,18.76,.3,1.69-2.33,2.13-2.63,.44-1.14-6.34-3.39-12.18-7.05-17.49-.97-1.41,1.08-3.12,2.05-1.71h0Z"/><path class="e" d="M802.2,300c.94-7.25,6.23-14.42,11-19.74,1.14-1.27,3.32,.27,2.17,1.55-4.41,4.92-9.65,11.8-10.52,18.47-.22,1.7-2.88,1.43-2.66-.28h0Z"/><path class="e" d="M799.58,355.81c-6.48-15.05-18.83-23.08-31.85-31.95-10.49-7.14-17.51-16.87-26.14-25.99-17.17-18.15-44.9-15.36-61.51-33.37-1.17-1.27,.89-2.97,2.05-1.71,9.44,10.24,22.98,12.73,35.61,17.05,11.42,3.9,20.01,9.67,28.04,18.68,4.59,5.15,8.75,10.73,13.73,15.51,5.66,5.43,12.44,9.29,18.84,13.75,10.29,7.17,18.62,15.24,23.64,26.9,.68,1.58-1.74,2.7-2.42,1.12h0Z"/><path class="e" d="M681.83,262.58c7.95,10.89,13.43,19.29,26.4,25.01,8.09,3.57,14.72,7.41,20.6,14.11,6.98,7.96,12.65,17.92,22.87,22.15,9.68,4.01,20.49,2.08,30,6.88,1.52,.77,.59,3.27-.95,2.49-9.86-4.97-21.39-2.84-31.35-7.42-8.12-3.74-13.52-11.19-18.96-17.94-3.49-4.33-7.05-8.67-11.63-11.91-6.36-4.49-14.07-6.09-20.63-10.16-8.32-5.17-12.78-13.81-18.4-21.51-1.01-1.38,1.04-3.1,2.05-1.71h0Z"/><path class="e" d="M813.88,283.12c4.43-8.3,8.56-17.27,9.56-26.74,1.07-10.07-.91-22.42-2.54-32.46-.27-1.7,2.36-2.14,2.63-.44,3.61,22.32,3.63,40.36-7.16,60.59-.8,1.49-3.3,.57-2.49-.95h0Z"/><path class="e" d="M823.21,223.95c-2.19,3.94-4.72,7.67-6.78,11.68-.78,1.51-3.28,.58-2.49-.95,2.17-4.21,4.8-8.14,7.1-12.28,.83-1.5,3,.07,2.17,1.55h0Z"/><path class="e" d="M809.42,285.09c-1.2-7.4-1.87-13.96-.53-21.38,1.44-8,4.02-15.76,4.67-23.91,1.75-22.19-10.58-41.95-27.25-55.45-1.33-1.08,.21-3.26,1.55-2.17,13.35,10.81,23.55,24.59,27.28,41.64,2.03,9.27,1.22,18.27-.74,27.49-2.49,11.72-4.3,21.28-2.34,33.34,.28,1.69-2.36,2.14-2.63,.44h0Z"/><path class="e" d="M788.06,182.92c-.07,7.8-3.08,14.52-4.15,22.17-1.21,8.67,.11,17.69,1.42,26.3,2.57,16.85,5.28,35.41,12.49,50.93,.72,1.56-1.7,2.68-2.42,1.12-7.34-15.81-10.11-34.47-12.7-51.61-1.08-7.18-2.18-14.55-1.92-21.83,.34-9.38,4.54-17.98,4.62-27.36,.01-1.71,2.67-1.43,2.66,.28h0Z"/><path class="e" d="M780.02,215.38c-3.71-9.72-15.39-14.09-24.45-17.32-1.62-.58-.67-3.07,.95-2.49,9.67,3.45,21.95,8.3,25.92,18.69,.61,1.6-1.81,2.73-2.42,1.12h0Z"/><path class="e" d="M756.8,196.42c1.83,6.86,.42,12.9-.11,19.84-.77,9.94,2.7,16.35,6.18,25.07,.64,1.59-1.79,2.72-2.42,1.12-2.88-7.21-6.21-12.38-6.61-20.41-.44-8.59,2.63-16.61,.34-25.17-.44-1.66,2.19-2.09,2.63-.44h0Z"/><path class="e" d="M791.73,299.12c-2.39-12.66-9.1-24.1-15.28-35.25-6.17-11.14-14.13-22.14-27.66-23.95-1.7-.23-1.43-2.88,.28-2.66,12.38,1.66,20.58,10.22,26.9,20.43,7.72,12.48,15.66,26.48,18.4,40.99,.32,1.69-2.31,2.13-2.63,.44h0Z"/><path class="e" d="M749.61,238.11c3.85,8.65,5.69,17.86,9.17,26.64,4.07,10.26,11.19,17.66,19.34,24.86,1.28,1.13-.26,3.31-1.55,2.17-6.55-5.78-13.03-11.88-17.3-19.6-5.68-10.26-7.32-22.27-12.07-32.94-.7-1.57,1.72-2.69,2.42-1.12h0Z"/><path class="e" d="M799.91,370.41c4.39-7.8,9.66-15.08,16.83-20.57,3.94-3.02,8.42-5.2,12.49-8.02,6.29-4.35,8.84-8.59,12.58-15.06,9.6-16.59,29.8-15.43,42-29.56,1.11-1.29,3.3,.25,2.17,1.55-5.26,6.09-11.44,10.46-18.93,13.45-4.56,1.82-9.35,2.87-13.54,5.53-6.04,3.84-8.34,8.96-11.84,14.93-3.31,5.64-7.2,9.07-12.71,12.5-11.64,7.25-20.08,14.73-26.87,26.79-.84,1.5-3.01-.07-2.17-1.55h0Z"/><path class="e" d="M886.74,297.67c.61,7.78,.28,16.79-4.06,23.59-4.84,7.57-13.94,12.21-19.87,18.97-4.22,4.82-8.26,9.87-14.73,11.73-4.37,1.25-8.5,.59-12.93,.42-7.62-.29-14.25,1.56-21.54,3.45-1.66,.43-2.09-2.2-.44-2.63,7.04-1.83,13.34-3.9,20.64-3.58,12.66,.56,18.58-1.49,26.83-10.94,3.48-3.99,7.04-7.39,11.18-10.72,10.01-8.05,13.3-16.89,12.29-29.84-.13-1.7,2.5-2.15,2.63-.44h0Z"/><path class="e" d="M829.72,349.68c13.71,.64,25.37,12.3,30.53,24.44,5.54,13.05,1.4,29.65-6.04,41.14-.94,1.44-3.1-.11-2.17-1.55,6.95-10.71,10.82-26.28,5.79-38.46-4.66-11.28-15.71-22.32-28.38-22.9-1.72-.08-1.44-2.73,.28-2.66h0Z"/><path class="e" d="M813.95,353.06c7.08-.6,9.18,1.72,12.53,7.38,4.38,7.39,13.64,8.66,16.89,16.87,.63,1.59-1.79,2.72-2.42,1.12-2.67-6.76-9.35-7.58-13.85-12.53-1.69-1.85-2.77-4.01-4.02-6.15-2.14-3.69-4.42-4.42-8.69-4.06-1.7,.14-2.15-2.49-.44-2.63h0Z"/><path class="e" d="M890.4,631.98c1.48-8.6,6.09-14.57,11.91-20.88,4.76-5.17,9.65-10.06,12.17-16.78,2.54-6.8,2.78-14.2,4.37-21.24,2.62-11.56,8.82-22.55,13.08-33.59,5.37-13.9,10.14-28.01,14.69-42.2,.52-1.64,3.02-.68,2.49,.95-4.18,13.02-8.53,25.99-13.38,38.78-4.92,12.97-12.22,25.8-14.85,39.46-1.85,9.57-2.54,18.83-8.37,27.02-6.97,9.77-17.28,16.09-19.46,28.76-.29,1.68-2.95,1.42-2.66-.28h0Z"/><path class="e" d="M949.63,497.29c-2.46,11.02-8.78,19.3-15.88,27.84-8.43,10.14-12.81,22.03-20.34,32.61-8.2,11.52-12.94,20.02-14.82,34.28-1.78,13.52-7.11,26.4-7.74,40.05-.08,1.72-2.73,1.44-2.66-.28,.63-13.67,5.89-26.55,7.74-40.05,1.24-9,2.81-17.57,7.68-25.41,3.13-5.05,7.34-9.27,10.37-14.41,3.43-5.83,5.84-12.22,9.5-17.92,8.12-12.63,20.05-21.61,23.49-36.99,.37-1.65,3.03-1.4,2.66,.28h0Z"/><path class="e" d="M891.39,632.59c-13.65-8.29-19.24-21.62-24.48-36.09-3.33-9.21-7.4-16.7-15.35-22.73-5.74-4.36-10.79-7.46-14.29-13.95-.82-1.51,1.61-2.63,2.42-1.12,4.08,7.54,11.07,10.34,17.1,15.78,4.71,4.24,7.92,9.4,10.37,15.17,6.68,15.71,10.07,31.24,25.78,40.78,1.47,.89-.09,3.06-1.55,2.17h0Z"/><path class="e" d="M893.36,630.82s.04,0,0,.04c.04,.17,.04,.38-.04,.59-.04,.21-.13,.38-.21,.55v.04s-.04,.13-.04,.17c-.04,.08-.08,.17-.13,.25-.04,.13-.08,.25-.13,.38-.04,.04-.08,.13-.13,.21-.21,.42-.42,.76-.63,1.1l-.04,.04c-.04,.08-.08,.13-.21,.21-.04,.13-.17,.25-.25,.34-.25,.34-.59,.63-.89,.89-.08,.04-.13,.08-.17,.13-.04,0-.08,.04-.08,.04-.08,.04-.17,.08-.21,.13-.3,.21-.59,.34-.93,.46-.08,.04-.13,.08-.21,.08-.13,.04-.21,.08-.34,.13-.25,.08-.55,.13-.8,.17h-.04c-.21,.04-.38,.08-.59,.08-.89,.08-1.86,.04-2.87-.17-4.51-.84-9.65-4.13-13.41-7.46h-.04c-1.9-1.64-3.46-3.33-4.34-4.68-3.67-5.48-6.2-11.64-10.24-16.91-3.5-4.64-7.42-8.73-10.08-13.95-5.44-10.5-7.21-22.34-9.06-33.85v-.04c-.04-.21-.08-.46-.13-.67-.04-.25-.08-.46-.13-.72-.3-1.69,2.36-2.11,2.61-.42,.04,.25,.08,.55,.13,.8,.13,.84,.3,1.69,.42,2.57,0,0,0,.04,.04,.04,.04,.46,.13,.93,.21,1.43,.08,.63,.21,1.26,.3,1.9,1.1,6.41,2.28,12.82,4.34,18.97,2.91,8.81,7.93,14.97,13.41,22.26,4.64,6.15,7.17,14.04,12.27,19.77,.8,.89,2.28,2.23,4.13,3.54,1.35,.97,2.87,1.94,4.43,2.78,.8,.38,1.6,.76,2.36,1.05h.04c1.48,.59,2.91,.97,4.17,1.01,1.01,0,1.9-.17,2.7-.59,.04,0,.08-.04,.13-.08t.08-.04c.08-.04,.17-.08,.25-.17,.04,0,.08-.04,.13-.08,.21-.13,.38-.3,.55-.51,.17-.21,.38-.46,.55-.76,.08-.17,.21-.42,.29-.63,.04-.08,.08-.13,.08-.21,.08-.17,.17-.34,.21-.55,0-.04,.04-.08,.04-.13,.04-.08,.08-.17,.13-.21v-.04c.21-.3,.51-.42,.8-.46h.17c.17,0,.3,.04,.46,.08h.04c.17,.08,.34,.17,.46,.3,.08,.08,.17,.17,.21,.25v.04c.13,.13,.21,.3,.21,.51Z"/><path class="e" d="M889.46,635.02c-4.08-7.25-4.63-14.51-5.7-22.64-1.6-12.26-5.33-22.8-13.64-32.15-5.63-6.34-10.96-12-13.98-20.05-3.1-8.27-5-17.02-6.53-25.69-.3-1.69,2.33-2.13,2.63-.44,1.75,9.92,3.62,20.83,8.32,29.82,4.35,8.33,12.18,13.98,17.25,21.78,9.71,14.91,5.65,33.29,14.07,48.24,.84,1.5-1.59,2.61-2.42,1.12h0Z"/><path class="e" d="M851.83,532.71c5.24,8.16,9.86,16.45,16.31,23.76,4.57,5.17,9.15,9.93,11.7,16.46,7.36,18.88,6.52,41.05,12.02,60.61,.46,1.65-2.17,2.08-2.63,.44-5.08-18.05-5.71-36.91-10.46-54.99-2.65-10.11-8.64-15.85-15.02-23.44-5.5-6.55-9.37-13.95-13.98-21.13-.92-1.43,1.13-3.15,2.05-1.71h0Z"/><path class="e" d="M884.96,618.81c3.19-14.23,4.36-28.77,6.79-43.13,2.26-13.33,6.85-26.33,8.3-39.77,1.63-15.11-3.19-29.67-5.98-44.35-1.45-7.6-3.7-15.29-3.94-23.04-.18-5.9,1.86-12.28,.88-18.13-.28-1.69,2.35-2.13,2.63-.44,.82,4.92-.56,10.06-.76,15-.36,8.88,2.18,17.5,3.82,26.17,2.59,13.71,7.11,27.42,6.31,41.52-.8,14.05-5.83,27.64-8.27,41.42-2.65,14.97-3.8,30.17-7.13,45.02-.37,1.65-3.03,1.4-2.66-.28h0Z"/><path class="e" d="M894.52,495.12c2.97-3.66,6.49-7.37,8.4-11.73,3.12-7.1,.7-13.56-1.02-20.56-1.42-5.79-1.66-11.75-3.51-17.44-1.85-5.68-5.34-10.45-7.57-16-.64-1.59,1.78-2.72,2.42-1.12,2.23,5.57,5.95,10.41,7.87,16.1,2.6,7.72,3.42,16.73,5.29,24.69,2.71,11.56-2.71,18.98-9.71,27.6-1.08,1.33-3.26-.22-2.17-1.55h0Z"/><path class="e" d="M893.19,428.79c-1.09,4.42-2.77,8.51-4.23,12.81-2.22,6.56-2.11,12.21-2.27,19-.31,13.38-4.56,25.03,8.37,34.43,1.39,1.01-.16,3.18-1.55,2.17-9.06-6.59-11.89-15.55-10.64-26.55,.87-7.66-.12-15.76,1.46-23.3,1.4-6.69,4.73-12.86,6.36-19.51,.41-1.66,2.9-.7,2.49,.95h0Z"/><path class="e" d="M899.36,523.42c-.68-3.51-1.15-8.02-3.4-10.87-2.83-3.58-7.93-5.1-11.76-7.26-2.83-1.6-5.91-3.27-7.93-5.92-3-3.95-2.23-8.22-3.32-12.75-1.61-6.68-6.86-11.45-9.88-17.42-.78-1.54,1.65-2.65,2.42-1.12,2.56,5.06,7.19,9.09,9.17,14.44,.87,2.36,.63,4.58,1.28,6.88,2.28,8.08,6.24,11.66,13.32,15.46,8.71,4.68,10.91,8.6,12.74,18.13,.32,1.69-2.31,2.12-2.63,.44h0Z"/><path class="e" d="M865.51,467.89c.58,6.42-.8,18.7,1.51,24.39,2.03,5.02,7.64,12.18,10.63,17.04,5.18,8.42,11.36,6.4,19.07,9.31,3.31,1.25,5.28,2.81,6.35,6.25,.51,1.62-1.91,2.76-2.42,1.12-2.32-7.42-13.09-5.31-18.65-8.33-4.06-2.21-5.74-5.56-7.9-9.48-3.11-5.65-8.98-11.2-10.47-17.71-.68-2.96-.12-3.71-.11-6.59,.02-5.25-.16-10.3-.64-15.56-.15-1.7,2.48-2.15,2.63-.44h0Z"/><path class="e" d="M900.7,525.49c4.31-8.82,13.69-13.28,17.59-22.41,5.65-13.24,3.45-28.3,2.08-42.15-.17-1.7,2.46-2.15,2.63-.44,1.24,12.51,2.93,25.31-.31,37.68-1.35,5.14-3.41,9.94-6.92,14-4.26,4.94-9.58,8.15-12.57,14.26-.75,1.53-3.25,.6-2.49-.95h0Z"/><path class="e" d="M922.58,460.12c.93,8.78-3.02,19.23-6.76,26.99-6.04,12.5-10.26,23.98-12.83,37.79-.31,1.68-2.97,1.42-2.66-.28,1.87-10.02,3.92-20.5,8.41-29.7,4.96-10.15,12.45-22.54,11.2-34.35-.18-1.7,2.45-2.15,2.63-.44h0Z"/><path class="e" d="M828.28,461.5c-6.68-9.52-17.81-11.48-26.14-18.8-3.2-2.81-5-6.28-7.53-9.61-7.17-9.42-15.7-9.1-26.5-8.54-1.7,.09-2.15-2.54-.44-2.63,14.76-.76,21.75-.47,30.69,12.05,8.45,11.84,23.67,14,31.98,25.83,.98,1.4-1.07,3.11-2.05,1.71h0Z"/><path class="e" d="M767.96,422.26c6.02,3.48,8.89,8.49,11.91,14.55,6.1,12.2,13.7,14.32,26.32,16.44,16.75,2.81,26.62,8.22,32.69,24.57,.59,1.6-1.83,2.73-2.42,1.12-4.77-12.88-12.08-19.33-25.67-22.18-6.27-1.32-13.02-1.41-19.04-3.78-13.57-5.35-13.4-21.65-25.34-28.55-1.49-.86,.08-3.02,1.55-2.17h0Z"/><path class="e" d="M742.63,444.66c1.27-6.21,2.81-12.13,6.89-17.14,8.82-10.82,14.5-15.9,10.13-31.21-1.65-5.77-2.72-10.51-1.06-16.35,1.77-6.2,4.55-11.15,4.28-17.84-.26-6.28-2.74-12.23-4.56-18.21-.5-1.64,2.14-2.06,2.63-.44,2.6,8.54,6.25,16.83,4.25,25.9-1.22,5.55-4,9.95-4.39,15.75-.41,6.08,2.12,10.68,3.14,16.5,1,5.65,.2,11.23-2.58,16.28-1.54,2.8-3.58,4.86-5.68,7.18-5.94,6.56-8.65,11.26-10.4,19.85-.34,1.67-3,1.41-2.66-.28h0Z"/><path class="e" d="M760.65,343.61c.1,15.51-12.98,25.88-14.32,40.81-.44,4.88,1.34,9.86,.38,14.74-.53,2.68-1.98,5.03-2.75,7.63-3.04,10.27-1.04,25.22,.45,35.77,.24,1.7-2.39,2.14-2.63,.44-1.29-9.16-1.94-18.8-1.69-28.04,.1-3.78,.83-6.75,1.84-10.36,1.57-5.6,2.02-10.53,1.78-16.4-.7-16.7,14.41-28.26,14.3-44.86-.01-1.71,2.64-1.43,2.66,.28h0Z"/><path class="e" d="M741.96,443.86c-5.09-10.38-11.84-18.92-15.51-30.05-3.61-10.96-6.53-21.91-13.37-31.43-5.8-8.08-14.26-13.43-20.63-21-5.97-7.1-10.1-15.19-11.86-24.31-.33-1.69,2.31-2.12,2.63-.44,4.36,22.56,24.91,31.16,35.5,49.66,4.48,7.83,6.99,16.35,9.69,24.89,3.7,11.65,10.66,20.75,15.96,31.55,.76,1.55-1.67,2.66-2.42,1.12h0Z"/><path class="e" d="M683.14,336.11c1.75,11.48,2.18,23.26,4.86,34.59,3.43,14.46,12.89,22.58,21.15,34.08,6.31,8.79,10.94,17.92,19.47,24.95,5.72,4.71,13.02,7.07,16.95,13.63,.88,1.47-1.55,2.58-2.42,1.12-4.82-8.04-16.83-12.27-23.33-19.42-7.65-8.4-12.52-18.84-20.04-27.44-15.83-18.1-15.79-38.24-19.27-61.07-.26-1.7,2.37-2.14,2.63-.44h0Z"/><path class="e" d="M744.52,445.47c-15.18-2.62-30.35,4.77-44.36-3.69-16.27-9.83-23.42-25.69-45.55-20.01-1.66,.43-2.09-2.21-.44-2.63,15.55-3.99,25.26,1.51,36.62,11.73,7.77,6.99,15.62,13.18,26.69,12.63,9.71-.49,17.5-2.37,27.31-.68,1.68,.29,1.42,2.95-.28,2.66h0Z"/><path class="e" d="M653.32,419.32c6.29-3.89,12.35-7.84,20.01-7.66,9.28,.22,17.89,5.35,26.43,8.34,16.84,5.9,31.88,10.69,45.1,23.14,1.25,1.18-.82,2.87-2.05,1.71-11.79-11.11-25.31-16.25-40.42-21.17-6.5-2.11-12.63-5.14-19.12-7.25-11.35-3.68-19.33-.58-28.82,5.3-1.46,.9-2.57-1.53-1.12-2.42h0Z"/><path class="e" d="M777.19,498.76c-15.82-3.67-30.26-12.55-46.24-16.43-13.31-3.22-21.13-12.94-30.59-22.57-1.21-1.23,.86-2.92,2.05-1.71,5,5.09,10.44,10.49,15.79,15.23,5.94,5.27,12.32,5.86,19.57,7.94,13.52,3.88,26.1,11.72,39.69,14.87,1.65,.38,1.4,3.04-.28,2.66h0Z"/><path class="e" d="M702.7,458.69c2.96,10.76,8.37,16.79,14.97,25.36,2.74,3.56,3.77,7.47,7.12,10.63,4.73,4.46,9.5,4.25,15.71,3.22,12.83-2.13,25.08-7.07,37.5-.53,1.5,.79,.57,3.3-.95,2.49-17.02-8.95-33.84,6.84-50.24,.26-7.36-2.95-9.17-11.87-14.01-17.4-6.37-7.27-10.13-14.16-12.73-23.6-.46-1.65,2.18-2.08,2.63-.44h0Z"/><path class="e" d="M820.28,562.09c-1.23-7.19-1.1-14.12-1.17-21.37-.11-11.83-2.58-20.28-9.21-30.32-8.69-13.16-11.72-28.17-18.21-42.42-.71-1.57,1.71-2.69,2.42-1.12,3.14,6.9,5.72,13.88,8.11,21.07,3.43,10.32,8.59,17.94,13.98,27.18,8.37,14.34,4.03,30.92,6.7,46.55,.29,1.69-2.34,2.13-2.63,.44h0Z"/><path class="e" d="M794.11,466.5c1.53,10.17,1.33,20.64,3.09,30.74,1.36,7.79,4.63,15.24,6.89,22.8,2.81,9.39,5.86,17.94,10.44,26.58,3.83,7.22,7.67,14.01,9.2,22.11,.32,1.69-2.31,2.13-2.63,.44-1.92-10.18-7.81-18.44-12.19-27.62-3.25-6.82-5.36-13.84-7.45-21.07-2.2-7.59-5.58-14.97-6.89-22.8-1.69-10.12-1.56-20.56-3.09-30.74-.26-1.7,2.38-2.14,2.63-.44h0Z"/><path class="e" d="M818.15,583.73c-3.24-8.53-7.27-17.27-14.51-23.16-4.89-3.98-10.83-6.32-14.89-11.32-8.14-10.01-7.36-24.64-21.67-29.1-1.64-.51-.69-3.01,.95-2.49,13.1,4.09,14.33,15.74,20.4,26.33,4.57,7.98,13.05,10.53,19.33,16.62,6.11,5.92,9.85,14.19,12.81,22.01,.61,1.6-1.81,2.73-2.42,1.12h0Z"/><path class="e" d="M767.94,517.75c3.37,7.49,5.04,14,5.89,22.11,.89,8.51,3.81,12.9,10.05,18.8,9.58,9.06,20.32,27.47,35.97,25.24,1.7-.24,2.14,2.39,.44,2.63-13.76,1.97-24.31-11.02-32.34-19.87-4.96-5.47-11.99-9.87-14.94-16.87-1.27-3.02-1.46-6.27-1.81-9.49-.83-7.58-2.53-14.43-5.68-21.43-.71-1.57,1.72-2.69,2.42-1.12h0Z"/><path class="e" d="M760.4,347.26c1.84,17.28-8.94,31.93-7.45,49.19,.51,5.89-.37,11.26-1.91,16.92-2.44,9-7.87,24.18-4.65,33.23,.34,.96-1.11,1.64-1.45,.67-5.17-14.51,6.21-30.87,6.68-45.56,.24-7.57-1.59-13.52,.38-20.87,3.03-11.34,8.11-21.18,6.82-33.33-.11-1.02,1.47-1.29,1.58-.26h0Z"/><path class="e" d="M818.68,585.95c-7.89-10.57-20.87-14.89-29.08-25.64-9.07-11.88-15.67-24.87-21.2-38.71-.38-.95,1.07-1.63,1.45-.67,5.85,14.63,12.95,28.55,22.92,40.86,7.77,9.6,19.81,13.32,27.15,23.14,.62,.82-.61,1.85-1.23,1.02h0Z"/><path class="e" d="M818.33,583.95c-2.46-6.55-7.88-10.12-12.71-14.79-4.32-4.17-8.18-9.08-12.34-13.46-.24-.25,.18-.59,.41-.34,4.97,5.23,9.64,11.1,15.01,15.86,4.16,3.69,8.11,7.18,10.11,12.5,.12,.32-.36,.55-.48,.22h0Z"/><path class="e" d="M768,519.67c8.6,3.77,8.06,13.61,12.71,20.54,.19,.28-.22,.63-.41,.34-4.55-6.78-4.05-16.68-12.49-20.38-.31-.14-.13-.64,.19-.5h0Z"/><path class="e" d="M772.02,528.98c1.44,6.4,5.29,12.05,7.59,18.16,2.64,7.03,6.28,13.05,11.22,18.72,4.93,5.67,10.32,10.23,17.21,13.29,3.98,1.76,7.7,2.85,11.22,5.47,.28,.2-.03,.64-.31,.43-5.38-4-12.04-5.07-17.57-8.76-5.04-3.36-9.31-7.93-13.07-12.62-4.21-5.25-6.74-10.04-9.18-16.31-2.39-6.15-6.18-11.86-7.63-18.3-.08-.34,.45-.42,.53-.09h0Z"/><path class="e" d="M820.97,559.72c-2.95-16.33-8.29-32.56-16.48-47.05-2.71-4.8-5.78-9.41-7.2-14.8-1.85-7.03-1.24-14.62-2.14-21.8-.04-.34,.48-.43,.53-.09,.84,6.66,.3,13.65,1.74,20.22,1.79,8.16,7.15,14.88,10.71,22.28,6.31,13.11,10.78,26.86,13.36,41.16,.06,.34-.47,.43-.53,.09h0Z"/><path class="e" d="M807.48,313.3c-2.02,2.14-2.71,5.01-4.45,7.3-1.37,1.8-3.35,2.86-5.14,4.17-.68,.49-1.47-.13-1.26-.9,1.07-3.97,.1-8.68-1.97-12.17-.53-.89,.93-1.55,1.45-.67,2.3,3.89,3.19,9.03,2.01,13.42-.42-.3-.84-.6-1.26-.9,2.36-1.73,4.51-2.94,5.93-5.64,1.09-2.09,2.02-4.1,3.66-5.83,.71-.75,1.73,.49,1.02,1.23h0Z"/><path class="e" d="M799.45,323.92c-1.05,.52-2.38,2.04-3.63,1.19-.44-.3-.7-1.15-.7-1.63,0-.91,.79-1.26-.46-1.37-.67-.06-1.35,.34-2.11,.22-1.13-.17-2.23-.74-3.22-1.28-2.01-1.09-3.85-2.47-5.61-3.93,.36-.39,.72-.78,1.08-1.16,2.81,3.39,7.63,3.75,11.17,6.1,.72,.48,.19,1.45-.55,1.45-2.95-.02-6.4-1.35-8.04-3.91,.47-.21,.94-.43,1.41-.64,.77,2.81,5.54,3.49,7.9,4.35,.69,.25,.62,1.15,.05,1.48-2.16,1.25-4.32,.24-5.78-1.58-.45-.56,0-1.35,.7-1.31,.66,.04,1.28,.09,1.93,.22,1,.2,.85,1.79-.17,1.59-.65-.13-1.27-.18-1.93-.22,.23-.44,.47-.87,.7-1.31,.98,1.22,2.34,2.04,3.87,1.15,.02,.49,.03,.98,.05,1.48-3.11-1.13-7.89-1.87-8.91-5.58-.2-.74,.98-1.3,1.41-.64,1.43,2.24,4.39,3.33,6.97,3.34-.18,.48-.37,.97-.55,1.45-3.71-2.46-8.5-2.8-11.47-6.38-.57-.68,.36-1.76,1.08-1.16,1.52,1.26,3.1,2.46,4.79,3.47,1.16,.69,2.35,1.35,3.72,1.36,.79,0,1.62-.48,2.4-.4,.87,.09,1.74,.75,1.75,1.68,0,.19-.56,1.2-.54,1.24,.28,.61,1.53-.47,2-.7,.92-.46,1.59,.99,.67,1.45h0Z"/><path class="e" d="M797.58,320.47c-8.28,1.5-15.09-3.6-18.93-10.71-.49-.91,.97-1.58,1.45-.67,3.5,6.47,9.67,11.17,17.22,9.8,1.01-.18,1.28,1.4,.26,1.58h0Z"/><path class="e" d="M796.21,319.92c2.81,.25,5.61-1.18,7.5-3.19,.7-.75,1.72,.49,1.02,1.23-2.18,2.33-5.48,3.84-8.69,3.56-1.03-.09-.86-1.68,.17-1.59h0Z"/><path class="e" d="M796.88,323.6c2.68-2.64,3.29-6.37,5.07-9.55,2.37-4.24,4.21-7.9,5.35-12.65,.08-.33,.58-.14,.5,.19-1.21,5.02-3.27,8.75-5.63,13.21-1.66,3.14-2.35,6.65-4.95,9.21-.25,.24-.58-.17-.34-.41h0Z"/><path class="e" d="M798.23,321.5c-2.43-2.2-5.73-3.04-8.5-4.71-2.97-1.79-5.01-4.42-6.93-7.26-.19-.28,.22-.63,.41-.34,2.13,3.14,4.38,5.86,7.77,7.69,2.53,1.37,5.39,2.23,7.56,4.19,.25,.23-.06,.66-.31,.43h0Z"/><path class="e" d="M778.15,289.94c1.31,4.03,.43,8.5,2.81,12.19,.18,.29-.22,.63-.41,.34-2.43-3.76-1.55-8.2-2.88-12.3-.1-.32,.38-.55,.48-.22h0Z"/><path class="e" d="M939.91,514.98c-5.07,8.47-6.61,18.2-10.22,27.26-4.24,10.63-10.35,20.32-15.61,30.44-9.94,19.09-14.46,40.55-24.27,59.54-.16,.3-.66,.12-.5-.19,10.39-20.1,15.15-42.71,26.01-62.77,5.26-9.72,11.06-19.3,14.84-29.75,3.03-8.38,4.69-17.11,9.32-24.84,.18-.3,.61,.02,.43,.31h0Z"/><path class="e" d="M889.76,633.79c-1.52-.07-1.66-.73-3.1-1.32-1.36-.56-3-.77-4.42-1.2-2.66-.8-4.58-2.08-6.23-4.32-.2-.28,.21-.62,.41-.34,1.85,2.52,4.12,3.63,7.07,4.46,1.11,.31,2.27,.53,3.36,.9,1.07,.36,1.8,1.23,2.96,1.28,.34,.02,.29,.55-.06,.53h0Z"/><path class="e" d="M880.22,590.55c-1.74-11.32-10.7-22.55-17.5-31.54-5.2-6.89-8.13-13.21-11.13-21.35-.12-.32,.37-.55,.48-.22,3.85,10.47,9.22,17.93,15.46,27,5.39,7.83,11.75,16.49,13.21,26.04,.05,.34-.47,.43-.53,.09h0Z"/><path class="e" d="M896.06,622.51s0,.08,0,.08v.08c.04,.08,0,.21,0,.34-.17,.51-.29,1.01-.42,1.48l.04,.04c-.17,.59-.3,1.14-.42,1.69-.17,.93-.3,1.81-.38,2.74-.34,3.25-.25,6.53,0,9.78-.3,0-.59-.04-.84-.04s-.51,0-.76-.04c-.04-.08-.04-.13,0-.21-.13-1.26-.17-2.49-.21-3.79v-2.45s0-.13,.04-.17v-.04c0-.46,0-.89,.08-1.35v-.04c-.04-.13-.04-.17-.04-.25v-.08c0-.21,.04-.34,.08-.51,0-.25,.04-.46,.08-.72,.04-.93,.17-1.9,.34-2.87,.13-.63,.25-1.27,.42-1.94v-.04c.08-.3,.17-.59,.21-.89h.04c.04-.25,.13-.59,.21-.84,.25-.67,1.01-.63,1.35-.17,.08,.04,.17,.13,.17,.21Z"/><path class="e" d="M894.36,630.73c-.92,2.26-.89,4.47-.51,6.85,.16,1.02-1.42,1.28-1.58,.26-.42-2.64-.43-5.17,.59-7.68,.39-.95,1.89-.39,1.5,.57h0Z"/><path class="e" d="M890.62,638.58h-.67s-.04,0-.08-.04c-.42,0-.84-.04-1.26-.04-.46-.55-.89-1.1-1.31-1.64-.08-.13-.17-.21-.25-.34-.08-.13-.17-.29-.17-.42-.04-.67,.89-1.22,1.43-.59,.04,.08,.17,.21,.21,.3,.17,.21,.34,.42,.55,.67,.51,.67,1.05,1.39,1.56,2.11Z"/><path class="e" d="M891.8,638.62c-.17,.13-.34,.13-.55,0-.08,0-.17-.04-.25,0-.13-.04-.25,0-.38-.04h-.67s-.04,0-.08-.04c0-.04-.04-.08-.04-.13-.04-.04-.04-.08-.08-.08-.34-.55-.67-1.14-1.01-1.73-.04-.13-.13-.21-.17-.3-.13-.21-.08-.38-.04-.51,0-.25,.17-.38,.3-.46l.04-.04c.25-.13,.55-.13,.76-.04,0,0,.04,0,.04,.04,.17,0,.21,.08,.34,.25v.04l.04,.04c.04,.08,.13,.17,.17,.3,.13,.21,.21,.34,.34,.55-.04,.04,.04,.08,.04,.08,.38,.72,.8,1.39,1.22,2.07Z"/><path class="e" d="M892.35,638.03v.04c-.04,.25-.21,.42-.46,.55h-.08c-.17,.13-.34,.13-.55,0-.08-.04-.21-.08-.25-.17,0-.04-.04-.04-.04-.08-.59-.67-1.18-1.35-1.69-1.98-.13-.13-.17-.25-.3-.34-.21-.21-.25-.46-.17-.72l.04-.04c.04-.21,.25-.38,.51-.46,.13-.13,.3-.08,.46-.04,.08,0,.13,.04,.17,.13,.08,0,.13,.04,.21,.13,0,.04,.04,.04,.04,.08,.17,.13,.29,.34,.42,.46v.04s.08,.04,.13,.08v.04c.51,.55,.97,1.05,1.39,1.64l.04,.21c.21,.13,.21,.25,.13,.42Z"/><g><path class="e" d="M889.95,638.58s-.04,0-.08-.04c-.42,0-.84-.04-1.26-.04-.51,0-.93,0-1.39-.08-.84-.67-1.77-1.31-2.78-1.73,0-.04-.04-.04-.04-.04-.25-.13-.42-.25-.63-.34-.55-.21-.63-.8-.42-1.14l.04-.04c.21-.3,.55-.51,.93-.3,.51,.21,.93,.38,1.39,.59h.04c.38,.25,.76,.42,1.14,.67,.38,.21,.72,.42,1.01,.67h.04c.67,.51,1.26,1.01,1.81,1.56,.04,0,.04,.04,.08,.08s.08,.13,.13,.17Z"/><path class="e" d="M900.27,675.97c-.08-.38-.17-.72-.25-1.1-.21,.13-.42,.21-.63,.34"/></g><path class="e" d="M886.61,626.84c.45,2.52,3.75,4.57,1.73,7.28-1.64,2.2-4.83,1.14-6.98,.51-.99-.29-.42-1.78,.57-1.5,1.41,.41,5.01,1.7,5.45-.66,.18-.95-.71-2.05-1.18-2.79-.51-.82-1-1.62-1.17-2.59-.18-1.01,1.4-1.28,1.58-.26h0Z"/><path class="e" d="M890.78,629.36c2-2.25-1.89-7.52-2.46-9.7-.94-3.59-.62-7.4-.66-11.07-.01-1.03,1.58-.86,1.59,.17,.03,2.81-.19,5.69,.22,8.47,.41,2.76,1.8,4.78,2.69,7.32,.58,1.64,1.21,4.3-.08,5.75-.68,.76-1.99-.16-1.3-.93h0Z"/><path class="e" d="M895.85,623.02c-1.75,1.69-6.08,3.35-6.06-.54,0-1.03,1.6-.86,1.59,.17,0,1.78,2.87-.31,3.44-.85,.75-.72,1.76,.52,1.02,1.23h0Z"/><path class="e" d="M892.33,620.78c-.22,1.51,.48,2.62,1.19,3.88,.5,.9-.95,1.57-1.45,.67-.86-1.54-1.59-2.9-1.33-4.72,.15-1.02,1.74-.86,1.59,.17h0Z"/><path class="e" d="M896.31,621.95c-1.39,1.06-3.09,2.66-4.59,.67-1.4-1.84-.29-4.9-.57-7.01-.13-1.02,1.44-1.29,1.58-.26,.18,1.36,.04,2.67-.02,4.02-.02,.45-.21,1.73,.17,2.09,.51,.48,1.21,.21,1.64-.1,.27-.19,.5-.45,.76-.65,.82-.62,1.85,.61,1.02,1.23h0Z"/><path class="e" d="M885.23,625.23c1.15,2.31,4.12,5.23,1.94,7.83-2.82,3.36-6.99,.72-10.25-.21-.99-.28-.42-1.78,.57-1.5,2.33,.67,6.76,3.46,8.61,.49,1.09-1.76-1.56-4.43-2.32-5.94-.46-.92,.99-1.59,1.45-.67h0Z"/><path class="e" d="M887.41,633.14c-1.27-3.93-6.82-3.5-8.88-6.72-.55-.86,.68-1.89,1.23-1.02,1.06,1.66,3.43,2.22,5.09,3.14,1.74,.96,3.37,1.95,4.02,3.93,.31,.97-1.14,1.65-1.45,.67h0Z"/><path class="e" d="M889.03,632.77c-2.7-3.67-6.44-5.62-9.85-8.46-2.41-2-3.83-4.73-5.33-7.42-.17-.3,.32-.52,.48-.22,2.14,3.82,4.22,6.59,7.84,9.13,2.76,1.94,5.26,3.89,7.27,6.62,.2,.28-.21,.62-.41,.34h0Z"/><path class="e" d="M889.75,631.63c-11.97,.97-18.31-5.82-23.47-15.87-9.24-17.97-16.38-36.73-26.59-54.21-.17-.3,.31-.52,.48-.22,8.24,14.11,14.08,28.95,21.31,43.54,6.17,12.46,11.36,27.59,28.18,26.24,.34-.03,.43,.5,.09,.53h0Z"/><path class="e" d="M853.35,577.55c2.98,2.57,4.24,6.31,5.84,9.81,2.45,5.38,4.35,11.04,6.97,16.33,.15,.31-.33,.53-.48,.22-2.26-4.57-3.66-9.47-5.9-14.05-1.96-4-3.26-8.88-6.73-11.87-.26-.22,.05-.66,.31-.43h0Z"/><path class="e" d="M891.56,626.05c1.57-3.04,1.45-6.57,2.86-9.68,.14-.31,.64-.12,.5,.19-1.41,3.1-1.28,6.63-2.86,9.68-.16,.3-.66,.12-.5-.19h0Z"/><path class="e" d="M892.39,624.24c1.99-2.19,2.81-5.47,3.42-8.3,.07-.33,.6-.28,.53,.06-.63,2.92-1.46,6.29-3.52,8.55-.23,.25-.67-.06-.43-.31h0Z"/><path class="e" d="M892.96,623.25c-.92-4.88,.62-9.85,2.68-14.25,.14-.31,.64-.12,.5,.19-2.01,4.31-3.55,9.18-2.65,13.97,.06,.34-.46,.43-.53,.09h0Z"/><path class="e" d="M893.16,623.16c1.94-2.77,3.37-5.69,4.97-8.65,1.34-2.47,3.48-4.38,4.91-6.79,.17-.3,.61,.02,.43,.31-1.64,2.77-3.96,4.95-5.41,7.86-1.32,2.64-2.77,5.16-4.47,7.59-.2,.28-.63-.03-.43-.31h0Z"/><path class="e" d="M892.09,625.15c1.03-2.24,1.76-4.51,1.79-7,0-.34,.53-.29,.53,.06-.02,2.54-.76,4.84-1.82,7.13-.14,.31-.64,.12-.5-.19h0Z"/><path class="e" d="M893.3,623.35c.12-1.14,.46-2.27,.92-3.33,.13-.31,.63-.13,.5,.19-.43,1.01-.76,2.09-.88,3.19-.04,.34-.57,.29-.53-.06h0Z"/><path class="e" d="M892.65,621.65c0-.54,.15-.9,.28-1.4,.21-.79,.31-1.53,.35-2.35,.06-1.43,0-2.86,.16-4.28,.04-.34,.57-.29,.53,.06-.15,1.42-.1,2.85-.16,4.28-.02,.52,0,1.09-.11,1.6-.15,.74-.52,1.37-.52,2.14,0,.34-.53,.29-.53-.06h0Z"/><path class="e" d="M892.96,616.29c-.13,2.26-.66,5.75,.76,7.69,.2,.28-.21,.62-.41,.34-1.52-2.08-1.02-5.69-.88-8.09,.02-.34,.55-.29,.53,.06h0Z"/><path class="e" d="M941.66,513.82c-1.33,7.27-6.32,13.29-7.51,20.73-.05,.34-.59,.28-.53-.06,1.19-7.42,6.19-13.48,7.51-20.73,.06-.34,.59-.28,.53,.06h0Z"/><path class="e" d="M942.1,515.37c-1.83,4.04-5.58,7.9-8.32,11.36-3.61,4.55-6.66,9.77-10.57,14.02-.23,.25-.67-.06-.43-.31,3.59-3.9,6.28-8.68,9.63-12.83,3.01-3.74,7.22-8.04,9.2-12.43,.14-.31,.64-.12,.5,.19h0Z"/><path class="e" d="M941.21,515.59c-.48,3.12-2.32,5.45-4.39,7.74-.99,1.09-1.95,2.21-3.03,3.21-1.73,1.59-2.78,3.2-4.2,5.04-.21,.27-.64-.04-.43-.31,.81-1.05,1.37-2.28,2.23-3.29,1.16-1.37,2.68-2.45,3.92-3.77,2.36-2.53,4.83-5.12,5.38-8.67,.05-.34,.58-.29,.53,.06h0Z"/><path class="e" d="M940.59,515.28c-1.38,3.21-3.26,5.87-5.68,8.38-2.42,2.52-4.18,5.88-7.24,7.69-.3,.18-.52-.31-.22-.48,2.77-1.64,4.25-4.65,6.43-6.93,2.62-2.73,4.71-5.33,6.21-8.85,.13-.31,.63-.13,.5,.19h0Z"/><path class="e" d="M940.84,516.12c.14,3.52-3.88,6.78-6.67,8.27-.3,.16-.53-.32-.22-.48,2.55-1.36,6.5-4.48,6.37-7.7-.01-.34,.51-.43,.53-.09h0Z"/><path class="e" d="M940.33,517.61c-1.14,1.65-1.81,3.57-3.21,5.04-.24,.25-.58-.16-.34-.41,1.36-1.43,2.01-3.33,3.12-4.94,.2-.28,.63,.03,.43,.31h0Z"/><path class="e" d="M938.98,518.19c-.83,2.73-3,4.65-5.37,6.09-.29,.18-.51-.31-.22-.48,2.25-1.37,4.31-3.2,5.1-5.8,.1-.33,.6-.14,.5,.19h0Z"/><path class="e" d="M938.61,518.64c-1.76,3.07-3.91,6.21-7.13,7.88-.31,.16-.53-.33-.22-.48,3.13-1.63,5.2-4.73,6.92-7.71,.17-.3,.6,.01,.43,.31h0Z"/><path class="e" d="M939.37,518.33c-.15,1.65-1.16,3.24-2.11,4.55-1.01,1.39-2.27,2.87-3.9,3.53-.32,.13-.54-.35-.22-.48,1.55-.63,2.74-2.04,3.69-3.36,.9-1.24,1.87-2.74,2.01-4.3,.03-.34,.56-.29,.53,.06h0Z"/><path class="e" d="M937.87,520.32c-1.5,2.6-2.93,5.23-5.05,7.38-.24,.24-.58-.17-.34-.41,2.09-2.12,3.49-4.72,4.96-7.28,.17-.3,.6,.02,.43,.31h0Z"/><path class="e" d="M940.06,518c-2.06,3.02-4.45,5.94-7.52,7.99-.28,.19-.63-.22-.34-.41,3.04-2.02,5.39-4.9,7.43-7.89,.19-.28,.63,.03,.43,.31h0Z"/><path class="e" d="M938.96,519.27c-1.07,2.44-2.94,4.36-4.96,6.04-.99,.82-2.75,2.98-4.19,2.54-.33-.1-.14-.6,.19-.5,1.03,.31,3.66-2.43,4.34-3.04,1.69-1.49,3.21-3.16,4.13-5.24,.14-.31,.64-.13,.5,.19h0Z"/><path class="e" d="M935.24,523.19c-1.04,1.46-2.03,2.95-3.08,4.41-.81,1.13-1.51,2.39-2.6,3.27-.27,.22-.61-.19-.34-.41,1.15-.94,1.95-2.38,2.8-3.59,.94-1.33,1.84-2.67,2.78-4,.2-.28,.63,.03,.43,.31h0Z"/><path class="e" d="M934.86,524.35c-.34,.97-.9,1.67-1.63,2.39-1.32,1.32-2.44,2.7-3.54,4.21-1.52,2.08-2.41,4.54-4.51,6.14-.27,.21-.62-.2-.34-.41,2.07-1.56,2.93-4,4.42-6.04,.78-1.07,1.54-2.18,2.45-3.15,1-1.08,2.16-1.88,2.66-3.33,.11-.32,.61-.13,.5,.19h0Z"/><path class="e" d="M929.42,531.07c-.45,1.45-1.61,2.4-2.49,3.58-.21,.28-.64-.03-.43-.31,.85-1.14,1.99-2.06,2.43-3.46,.1-.33,.6-.14,.5,.19h0Z"/><path class="e" d="M929.41,531.28c-.24,1.18-1.02,2.21-1.71,3.18-.2,.28-.63-.03-.43-.31,.63-.88,1.39-1.84,1.61-2.92,.07-.33,.6-.28,.53,.06h0Z"/><path class="e" d="M940.43,518.92c-2.54,2.65-3.05,5.89-3.89,9.31-.67,2.72-1.83,5.27-2.54,7.97-.09,.33-.59,.14-.5-.19,.93-3.52,2.25-6.89,3.1-10.44,.65-2.7,1.55-5.03,3.49-7.06,.24-.25,.58,.17,.34,.41h0Z"/><path class="e" d="M939.01,519.4c-.53,3.6-2.76,7.07-3.88,10.57-1.61,4.98-2.71,10.16-3.66,15.31-.06,.34-.59,.28-.53-.06,.77-4.22,1.55-8.57,2.81-12.68,.64-2.09,1.21-4.27,1.98-6.31,.89-2.34,2.38-4.35,2.75-6.89,.05-.34,.58-.29,.53,.06h0Z"/><path class="e" d="M922.24,466.99c-3.18,11.15-3.65,22.67-7.15,33.77-2.86,9.06-7.34,16.55-12.63,24.42-.19,.29-.63-.03-.43-.31,5.88-8.74,10.64-17.36,13.57-27.54,2.89-10.04,3.28-20.49,6.14-30.52,.09-.33,.59-.14,.5,.19h0Z"/><path class="e" d="M902.87,520.44c4-11.8,10.5-22.54,14.5-34.34,.11-.33,.61-.14,.5,.19-4,11.8-10.5,22.54-14.5,34.34-.11,.33-.61,.14-.5-.19h0Z"/><path class="e" d="M899.66,521.75c-5.83-8.35-15.88-10.59-22.51-17.88-2.67-2.94-5.04-6.78-6.77-10.3-3.17-6.47-2.3-13.21-4.47-19.99-.1-.32,.38-.55,.48-.22,1.43,4.48,.95,9.04,2.07,13.59,1.76,7.17,7.07,15.51,12.97,19.95,6.54,4.92,13.8,7.6,18.63,14.52,.2,.28-.21,.62-.41,.34h0Z"/><path class="e" d="M893.18,494.18c4.89,4.61,6.25,11.54,7.66,17.76,.23,1.01-1.35,1.27-1.58,.26-1.34-5.91-2.66-12.61-7.31-17-.75-.71,.49-1.72,1.23-1.02h0Z"/><path class="e" d="M892.52,494.11c1.49,2.1,2.98,4.21,4.19,6.48,.55,1.03,1.09,2.1,1.54,3.17,.42,1.01,.52,2.16,1.04,3.12,.49,.91-.97,1.58-1.45,.67-.91-1.7-1.26-3.69-2.15-5.46-1.24-2.46-2.81-4.72-4.4-6.96-.59-.84,.63-1.87,1.23-1.02h0Z"/><path class="e" d="M904.63,523.22c-1.12,2.8-1.15,5.72-1.64,8.65-.43,2.58-1.32,5.07-1.34,7.71,0,1.03-1.6,.86-1.59-.17,.02-2.96,1.08-5.77,1.49-8.68,.39-2.76,.53-5.47,1.58-8.08,.38-.96,1.88-.39,1.5,.57h0Z"/><path class="e" d="M894.34,518.25c2.09,2.78,4.78,4.06,5.89,7.56,1.28,4.03,1,8.24,.57,12.38-.11,1.02-1.7,.86-1.59-.17,.37-3.6,.63-7.2-.26-10.75-.94-3.76-3.69-5.13-5.84-7.99-.62-.82,.61-1.85,1.23-1.02h0Z"/><path class="e" d="M900.36,521.81c.66,2.41,1.18,4.85,1.75,7.29,.24,1-1.34,1.26-1.58,.26-.58-2.43-1.09-4.87-1.75-7.29-.27-.99,1.31-1.25,1.58-.26h0Z"/><path class="e" d="M897.85,521.64c4.18,16.62-.21,30.42-3.66,46.61-1.8,8.44-2.73,17.43-3.9,26-.64,4.69-.34,8.87-2.09,13.29-.22,.55-.98,.7-1.36,.23-2.04-2.56-3.18-4.94-4.52-7.97-.42-.94,1.04-1.62,1.45-.67,1.98,4.48,3.22,10.79,4.48,2.23,.35-2.4,.11-4.86,.44-7.28,1.02-7.49,1.98-15.16,3.18-22.63,2.78-17.4,8.92-31.55,4.39-49.55-.25-1,1.33-1.26,1.58-.26h0Z"/><path class="e" d="M890.07,594.51c.2,2.78-.98,5.29-1.23,8.02-.17,1.82-.17,3.84-1.58,5.19-.32,.31-.85,.2-1.13-.1-2.01-2.22-3.18-5.65-4.25-8.42-.37-.96,1.08-1.64,1.45-.67,1,2.58,2.18,6.01,4.03,8.07-.38-.03-.75-.07-1.13-.1,1.19-1.14,.9-3.54,1.1-5.05,.3-2.26,1.32-4.35,1.15-6.67-.07-1.02,1.51-1.29,1.58-.26h0Z"/><path class="e" d="M883.79,595.35c.46,1.97,1.29,3.81,2.04,5.68,.53,1.31,1.06,2.84,2.37,3.56,.9,.49-.04,1.79-.93,1.3-1.41-.77-2.12-2.34-2.72-3.76-.9-2.13-1.81-4.27-2.34-6.53-.24-1,1.34-1.26,1.58-.26h0Z"/><path class="e" d="M890.1,593.64c-.19,2.49-.95,4.94-1.49,7.38-.35,1.55-.9,2.99-2.45,3.66-.95,.41-1.62-1.05-.67-1.45,1.52-.65,1.56-2.69,1.86-4.09,.41-1.9,1.01-3.7,1.16-5.65,.08-1.03,1.67-.86,1.59,.17h0Z"/><path class="e" d="M838.22,484.01c3.67,3.54,6.04,8.01,8.3,12.52,.46,.92-.99,1.59-1.45,.67-2.2-4.4-4.51-8.72-8.08-12.17-.74-.72,.5-1.73,1.23-1.02h0Z"/><path class="e" d="M838.13,482.4c1.7,1.75,3.45,3.65,4.32,5.97,.36,.96-1.09,1.64-1.45,.67-.82-2.2-2.49-3.97-4.1-5.62-.72-.74,.52-1.76,1.23-1.02h0Z"/><path class="e" d="M839.36,482.61c.27,1.42,.89,2.67,1.79,3.8,.64,.81-.59,1.84-1.23,1.02-1.07-1.35-1.81-2.87-2.13-4.56-.19-1.01,1.39-1.27,1.58-.26h0Z"/><path class="e" d="M840.56,484.39c1.56,6.14,7.26,13.88,10.23,19.71,3.12,6.12,6.18,11.99,8.63,18.43,5.38,14.15,11.82,27.82,16.81,42.12,.34,.97-1.11,1.65-1.45,.67-5.39-15.44-12.06-30.4-18.14-45.58-2.74-6.84-6.3-13.45-9.75-19.96-2.77-5.23-6.46-9.39-7.92-15.14-.25-1,1.33-1.26,1.58-.26h0Z"/><path class="e" d="M826.9,461.24c5.18,8.32,11.04,16.01,10.59,26.27-.05,1.03-1.64,.86-1.59-.17,.44-9.95-5.46-17.41-10.45-25.43-.54-.87,.92-1.54,1.45-.67h0Z"/><path class="e" d="M835.56,475.09c1.25,2.55,2.92,5.35,2.33,8.3-.2,1-1.8,.85-1.59-.17,.54-2.65-1.06-5.17-2.19-7.46-.46-.93,1-1.6,1.45-.67h0Z"/><path class="e" d="M829.54,465.62c-4.28-6.53-8.59-10.39-15.93-13.4-5.27-2.17-11.15-3.42-16.1-6.32-10.81-6.34-15.79-19.64-29.36-21.73-.34-.05-.29-.58,.06-.53,13.39,2.06,18.8,15.31,29.65,21.65,12.85,7.51,23.57,6.98,32.1,19.99,.19,.28-.22,.63-.41,.34h0Z"/><path class="e" d="M768.7,423.37c5.13,.12,10.6,1.65,15.05,4.19,4.96,2.82,7.06,8.28,11.51,11.67,.27,.21-.04,.64-.31,.43-3.95-3-5.95-7.81-9.97-10.7-4.51-3.24-10.87-4.93-16.34-5.06-.34,0-.29-.54,.06-.53h0Z"/><path class="e" d="M798.84,442.25c6.04,3.51,13.09,4.75,18.75,8.94,5.49,4.05,9.52,9.68,13.44,15.17,.2,.28-.21,.62-.41,.34-4.21-5.91-8.63-12.22-14.87-16.15-5.38-3.39-11.73-4.68-17.22-7.87-.3-.17,.02-.61,.31-.43h0Z"/><path class="e" d="M829.92,464.65c-8.3-12.83-24.94-10.19-37.4-15.8-4.11-1.85-6.01-4.13-8.72-7.81-4.8-6.51-9.51-11.09-15.84-16.18-.27-.21,.04-.65,.31-.43,5.41,4.35,9.17,7.2,13.36,12.81,6.58,8.81,13.38,12.28,24.26,14.75,9.44,2.15,18.83,3.65,24.43,12.33,.18,.29-.22,.63-.41,.34h0Z"/><path class="e" d="M765.06,494.86c-7.42-1.53-14.76-.39-22.07-1.75-5.97-1.11-10.74-4.88-16.39-6.87-11.2-3.95-15.86-16.04-23.8-23.91-.24-.24,.17-.58,.41-.34,4.47,4.42,7.57,9.89,12.06,14.43,4.42,4.48,8.68,7.17,14.16,10.09,5.08,2.7,10.64,5.76,16.38,6.43,6.77,.79,12.5-.02,19.31,1.39,.33,.07,.28,.6-.06,.53h0Z"/><path class="e" d="M703.85,464.18c3.79,5.13,7.46,10.38,11.63,15.22,5.04,5.85,10.97,14.76,19.01,16.23,10.67,1.95,20.79-3.99,31.69-1.05,.33,.09,.14,.59-.19,.5-11.46-3.1-26.49,5.42-37.21-.3-4.56-2.43-7.79-8.42-11.1-12.2-5.09-5.8-9.64-11.86-14.23-18.06-.2-.28,.21-.62,.41-.34h0Z"/><path class="e" d="M764.71,494.37c-5.33-1-10.12-3.04-15.19-4.93-6.86-2.56-14.11-3.61-21.02-5.97-11.2-3.82-18.71-12.95-26.55-21.41-.23-.25,.18-.59,.41-.34,8.98,9.67,17.02,18.64,30.07,22.35,10.65,3.03,21.53,7.73,32.34,9.77,.34,.06,.28,.59-.06,.53h0Z"/><path class="e" d="M742.09,442.86c-12.44-7.97-26.78-8.56-40.41-13.24-6.05-2.08-10.96-5.87-16.87-8.22-9.29-3.69-19.43-2.46-28.96-.38-.34,.07-.42-.45-.09-.53,7.86-1.71,16.81-3.16,24.8-1.18,6.62,1.65,12.08,6.14,18.3,8.7,14.42,5.93,30.11,5.82,43.54,14.42,.29,.19-.02,.62-.31,.43h0Z"/><path class="e" d="M656.25,420.14c13.93-3.46,28.05,1.55,39.67,9.43,9.84,6.68,15.5,13.25,28.79,12.31,5.77-.41,12.46-3.04,17.99-.62,.31,.14,.13,.64-.19,.5-7.27-3.18-17,1.53-24.8,.75-4.8-.48-8.92-2.31-12.79-5.14-14.52-10.64-29.43-21.45-48.59-16.69-.33,.08-.42-.44-.09-.53h0Z"/><path class="e" d="M741.13,441.94c-11.14-7.16-22.85-12.74-35.37-17.03-6.75-2.31-13.72-4.84-20.73-6.17-9.38-1.79-16.1,.75-25.18,1.88-.34,.04-.43-.48-.09-.53,7.3-.91,14.12-3.62,21.53-2.76,7.11,.82,14.19,3.65,20.94,5.85,13.92,4.53,26.91,10.41,39.21,18.32,.29,.19-.02,.62-.31,.43h0Z"/><path class="e" d="M742.26,442.51c-13.47-15.59-22.91-33.3-34.65-50.05-4.69-6.7-10.02-12.95-14.14-20.05-5.2-8.96-6.31-18.58-9.79-28.2-.12-.32,.37-.55,.48-.22,3.21,8.88,4.33,18.28,8.9,26.67,4.75,8.72,11.48,16.11,16.95,24.35,10.65,16.06,19.99,32.5,32.66,47.16,.23,.26-.19,.6-.41,.34h0Z"/><path class="e" d="M684.06,344.89c3.68,21.47,10.11,39.7,24.87,56.09,11.33,12.57,23.91,25.29,32.73,39.8,.18,.29-.31,.51-.48,.22-10.71-17.62-26.78-31.33-39.3-47.52-11-14.22-15.36-31.08-18.34-48.5-.06-.34,.47-.43,.53-.09h0Z"/><path class="e" d="M741.52,441.28c-12.37-15.06-20.55-32.17-30.5-48.76-9.42-15.7-23.71-30.56-28.98-48.38-.1-.33,.43-.41,.53-.09,5.25,17.77,19.5,32.51,28.93,48.24,9.91,16.53,18.09,33.62,30.43,48.64,.22,.27-.19,.61-.41,.34h0Z"/><path class="e" d="M760.22,347.31c8.22,14.48-3.83,27.28-5.16,41.88-.84,9.23,1.02,18.47-1.42,27.57-2.26,8.45-5.79,17.04-10.96,24.11-.2,.28-.64-.03-.43-.31,5.37-7.35,10.13-18.25,11.68-27.34,1.36-7.96-.12-16.09,.6-24.08,1.3-14.4,13.42-27.14,5.2-41.6-.17-.3,.32-.52,.48-.22h0Z"/><path class="e" d="M741.68,439.15c2.84-13.36,3.76-27.05,5.86-40.53,1.63-10.49-.54-20.71,2.57-31.02,.1-.33,.6-.14,.5,.19-3.36,11.12-1.32,22.96-3.13,34.43-1.95,12.32-2.67,24.77-5.27,36.99-.07,.33-.6,.28-.53-.06h0Z"/><path class="e" d="M884.41,300.02c.2,6.64-2.88,13.59-6.45,19.1-4.95,7.65-13.54,9.9-21.13,14.09-5.42,2.99-9.63,7.71-15,10.67-3.4,1.87-7.09,2.22-10.73,3.44-11.55,3.89-25.11,12.95-29.07,24.9-.11,.33-.61,.14-.5-.19,4.44-13.39,18.55-21.67,31.24-25.83,10.67-3.49,18.09-10.77,28.07-15.54,11.97-5.72,23.47-16.19,23.03-30.7-.01-.34,.52-.28,.53,.06h0Z"/><path class="e" d="M797.74,350.55c.46,1.25,1.19,2.36,1.65,3.61,.41,1.12,.6,2.33,.67,3.52,.02,.34-.51,.43-.53,.09-.08-1.3-.3-2.63-.82-3.84-.45-1.07-1.06-2.06-1.46-3.15-.12-.32,.37-.55,.48-.22h0Z"/><path class="e" d="M796.99,349.25c1.15,3.72,3.96,7.67,2.92,11.79-.08,.33-.58,.14-.5-.19,1.01-3.98-1.84-7.91-2.94-11.51-.1-.33,.43-.41,.53-.09h0Z"/><path class="e" d="M795.88,347.25c1.16,3.73,3.3,6.88,3.96,10.83,.83,4.99,.44,10.1,1.04,15.11,.04,.34-.49,.43-.53,.09-.53-4.5-.31-9.04-.84-13.54-.54-4.52-2.81-8.06-4.11-12.26-.1-.32,.38-.55,.48-.22h0Z"/><path class="e" d="M795.56,346.13c2.69,7.03,3.47,14.13,4.18,21.58,.76,7.91,3.04,15.12,4.56,22.86,.07,.34-.46,.42-.53,.09-1.29-6.58-3.47-12.79-4.23-19.5-.97-8.57-1.34-16.62-4.47-24.81-.12-.32,.36-.55,.48-.22h0Z"/><path class="e" d="M797.85,352.87c3.45,9.33,2.07,19.52,5.6,28.83,.12,.32-.36,.55-.48,.22-3.53-9.32-2.16-19.5-5.6-28.83-.12-.32,.37-.55,.48-.22h0Z"/><path class="e" d="M801.23,378c4.39,26.69,11.91,55.23,26.21,78.55,.18,.29-.31,.51-.48,.22-14.37-23.42-21.84-51.85-26.26-78.69-.06-.34,.47-.43,.53-.09h0Z"/><path class="e" d="M818.53,353.04c15.22,.56,27.68,14.16,35.1,26.47,4.62,7.66,4.22,14.04,2.77,22.57-.71,4.16-.72,11.07-4.44,13.91-.27,.21-.61-.2-.34-.41,3.78-2.89,3.77-10.72,4.52-15.11,1.74-10.22-.44-17.77-6.76-26-7.8-10.15-17.34-20.4-30.91-20.9-.34-.01-.29-.54,.06-.53h0Z"/><path class="e" d="M773.34,328.42c-14.04-.72-24.91-13.82-33.31-23.53-9.22-10.65-20.21-12.37-32.16-18.18-9.71-4.72-16.78-13.3-25.61-19.35-.28-.19,.03-.63,.31-.43,9.31,6.37,16.63,15.19,27.02,19.94,8.26,3.78,17.08,5.14,24.27,11.04,12.34,10.12,21.27,29.05,39.54,29.98,.34,.02,.29,.55-.06,.53h0Z"/><path class="e" d="M786.69,184.21c3.32,5.75,8.91,13.39,8.4,20.4-.02,.34-.56,.29-.53-.06,.49-6.73-5.14-14.56-8.35-20.12-.17-.3,.31-.52,.48-.22h0Z"/><path class="e" d="M787.06,184.01c2.18,5.27,6.65,8.6,9.79,13.2,3.02,4.43,5.63,9.35,7.51,14.36,.12,.32-.36,.55-.48,.22-2.23-5.93-5.46-12.17-9.57-17.01-2.91-3.42-5.99-6.35-7.73-10.56-.13-.32,.35-.54,.48-.22h0Z"/><path class="e" d="M787,185.24c4.56,12.27,4.54,24.9,5.87,37.78,1.33,12.87,6.75,24.63,8.12,37.36,.04,.34-.49,.43-.53,.09-1.22-11.37-6.14-21.94-7.65-33.37-1.86-14.11-1.26-28.08-6.3-41.63-.12-.32,.36-.55,.48-.22h0Z"/><path class="e" d="M802.57,295.74c2.64-10.13,1.75-19.6,1.66-29.91-.07-8.09,1.17-16.12,.13-24.19-.04-.34,.48-.43,.53-.09,1.31,10.11-.11,20.57,.18,30.76,.23,8.01,.03,15.83-2,23.62-.09,.33-.59,.14-.5-.19h0Z"/><path class="e" d="M821.36,225.64c.71,4.72,1.09,9.47,1.01,14.24-.12,6.65-2,13.04-1.32,19.72,.03,.34-.49,.43-.53,.09-.54-5.32,.62-10.28,1.11-15.55,.57-6.13,.11-12.34-.8-18.42-.05-.34,.48-.43,.53-.09h0Z"/><path class="e" d="M813.12,281.32c-.75-4.26,2.91-7.73,3.72-11.79,1.49-7.42-1.23-14.9-.2-22.43,.05-.34,.58-.29,.53,.06-.9,6.57,1.1,12.77,.7,19.27-.29,4.68-4.98,10.57-4.23,14.8,.06,.34-.47,.43-.53,.09h0Z"/><path class="e" d="M749.13,238.41c10.57,10.52,18.89,22.81,27.94,34.59,.21,.27-.2,.61-.41,.34-9.05-11.78-17.37-24.08-27.94-34.59-.24-.24,.17-.58,.41-.34h0Z"/><path class="e" d="M793.11,299.23c-8.81-14.06-28.82-21.01-31.86-38.61-.06-.34,.47-.43,.53-.09,3.02,17.48,23.01,24.41,31.82,38.48,.18,.29-.3,.51-.48,.22h0Z"/><path class="e" d="M757.45,197.12c3.12,10.17,9.78,18.61,13.15,28.66,4.08,12.17,6.76,24.28,12.95,35.66,.16,.3-.32,.52-.48,.22-5.57-10.23-8.59-20.97-11.91-32.04-3.44-11.48-10.74-21.02-14.24-32.41-.1-.33,.43-.41,.53-.09h0Z"/><path class="e" d="M761.4,238.81c1.04,2.88,2.52,5.64,4.6,7.9,.23,.25-.18,.59-.41,.34-2.11-2.29-3.62-5.1-4.67-8.01-.12-.32,.37-.55,.48-.22h0Z"/><path class="e" d="M760.79,239.79c1.46,1.49,2.62,3.23,3.98,4.82,.22,.26-.19,.6-.41,.34-1.36-1.58-2.52-3.33-3.98-4.82-.24-.25,.17-.59,.41-.34h0Z"/><path class="e" d="M760.89,238.35c1.33,1.75,2.67,3.52,3.88,5.36,.87,1.33,1.64,3.16,3.12,3.94,.3,.16,.11,.66-.19,.5-1.19-.63-1.91-1.81-2.61-2.93-1.43-2.25-2.99-4.41-4.6-6.52-.21-.27,.2-.62,.41-.34h0Z"/><path class="e" d="M762.28,241.03c1.25,1.78,2.44,3.59,3.85,5.25,.22,.26-.19,.6-.41,.34-1.41-1.65-2.6-3.47-3.85-5.25-.2-.28,.21-.62,.41-.34h0Z"/><path class="e" d="M761.6,239.79c2.68,4.12,6.51,7.31,9.14,11.47,.18,.29-.23,.63-.41,.34-2.63-4.16-6.47-7.35-9.14-11.47-.19-.29,.22-.63,.41-.34h0Z"/><path class="e" d="M774.08,287.81c1.61,1.8,2.05,4.16,2.43,6.46,.06,.34-.47,.43-.53,.09-.37-2.22-.77-4.48-2.31-6.21-.23-.26,.18-.6,.41-.34h0Z"/><path class="e" d="M774.04,287.41c1.02,2.96,2.76,5.82,2.39,9.08-.04,.34-.57,.29-.53-.06,.36-3.16-1.36-5.94-2.34-8.8-.11-.32,.37-.55,.48-.22h0Z"/><path class="e" d="M777.91,289.68c.9,1.09,1.68,2.28,2.76,3.21,.26,.22-.05,.66-.31,.43-1.11-.96-1.93-2.17-2.86-3.3-.22-.27,.19-.61,.41-.34h0Z"/><path class="e" d="M778.42,289.56c.73,1.25,1.88,2.4,3.26,2.88,.32,.11,.13,.61-.19,.5-1.52-.53-2.76-1.79-3.56-3.16-.17-.3,.31-.52,.48-.22h0Z"/><path class="e" d="M777.96,290.18c.75,.87,1.52,1.72,1.88,2.83,.11,.32-.38,.55-.48,.22-.35-1.06-1.1-1.88-1.81-2.71-.22-.26,.19-.6,.41-.34h0Z"/><path class="e" d="M777.91,289.88c.26,3.01,.48,6.01,.81,9.01,.23,2.07,.71,4.5,.35,6.56-.06,.34-.59,.28-.53-.06,.4-2.32-.22-5.11-.49-7.44-.3-2.65-.44-5.33-.67-7.99-.03-.34,.5-.43,.53-.09h0Z"/><path class="e" d="M778.2,290.46c3.11,1.72,6.68,2.51,9.65,4.52,1.18,.8,2.18,1.81,3.11,2.9,.74,.87,1.47,2.49,2.39,3.15,.28,.2-.03,.64-.31,.43-.89-.64-1.3-1.74-1.96-2.6-1.1-1.41-2.38-2.71-3.89-3.67-2.91-1.85-6.31-2.64-9.3-4.3-.3-.17,.01-.6,.31-.43h0Z"/><path class="e" d="M796.22,283.89c1.37,2.21,1.92,4.59,2.34,7.12,.06,.34-.47,.43-.53,.09-.42-2.49-.96-4.82-2.3-6.99-.18-.29,.31-.51,.48-.22h0Z"/><path class="e" d="M779.15,211.64c1.07,4.03,2.86,7.79,3.21,11.98,.03,.34-.5,.43-.53,.09-.35-4.18-2.15-7.97-3.21-11.98-.09-.33,.44-.42,.53-.09h0Z"/><path class="e" d="M780.03,213.66c.52,2.24,1.19,4.44,1.59,6.7,.06,.34-.47,.43-.53,.09-.4-2.27-1.06-4.47-1.59-6.7-.08-.33,.45-.42,.53-.09h0Z"/><path class="e" d="M780.89,214.4c.32,2.11,.06,4.69,1.22,6.56,.18,.29-.31,.51-.48,.22-1.19-1.92-.93-4.54-1.26-6.7-.05-.34,.48-.43,.53-.09h0Z"/><path class="e" d="M778.01,209.26c1.23,6.43,4.81,11.81,5.17,18.49,.02,.34-.51,.43-.53,.09-.36-6.64-3.95-12.1-5.17-18.49-.06-.34,.46-.43,.53-.09h0Z"/><path class="e" d="M775.78,207.47c2.09,2.95,3.72,6.13,5.09,9.48,1.59,3.88,1.59,7.81,2.09,11.92,.04,.34-.48,.43-.53,.09-.5-4.09-.49-7.86-2.05-11.79-1.31-3.29-2.97-6.47-5.01-9.36-.2-.28,.21-.62,.41-.34h0Z"/><path class="e" d="M885.01,298.36c-2.02,5.11-2.42,11.33-6.32,15.49-5.8,6.19-15.83,7.86-22.34,13.37-11.65,9.86-23.49,19.64-37.6,26.11-.31,.14-.54-.34-.22-.48,12.47-5.72,25.25-14.66,35.18-23.94,3.97-3.71,8.39-6.26,13.17-8.78,5.11-2.69,11.17-5.98,14.22-11.17,1.77-3.02,2.11-7.49,3.41-10.78,.13-.32,.63-.13,.5,.19h0Z"/><path class="e" d="M898.44,320.89c1.09,5.46,4.73,10.36,9.19,13.59,.84,.6-.09,1.91-.93,1.3-4.81-3.48-8.67-8.75-9.84-14.63-.2-1.01,1.38-1.27,1.58-.26h0Z"/><path class="e" d="M898.31,316.85c.62,3.82,7.2,17.67,12.11,12.02,.67-.77,1.98,.15,1.3,.93-6.44,7.4-14.15-7.47-15-12.69-.16-1.02,1.41-1.28,1.58-.26h0Z"/><path class="e" d="M910.58,331.56c-2.43,1.23-4.64,.99-6.85-.56-1.87-1.31-3.85-3.2-4.26-5.54-.18-1.02,1.4-1.28,1.58-.26,.31,1.76,1.89,3.24,3.26,4.26,1.86,1.38,3.49,1.73,5.59,.66,.92-.47,1.59,.99,.67,1.45h0Z"/><path class="e" d="M900.57,323.3c1.8,4.06,4.34,8.49,8.95,9.66,1,.25,.42,1.75-.57,1.5-4.99-1.27-7.87-6.08-9.83-10.49-.42-.94,1.04-1.62,1.45-.67h0Z"/><path class="e" d="M910.8,333.34c-1.6,1.26-4.75,3.32-6.09,.66-.47-.92,.99-1.59,1.45-.67,.62,1.22,2.97-.72,3.61-1.22,.81-.64,1.83,.59,1.02,1.23h0Z"/><path class="e" d="M908.87,332.31c-.78,.51-1.51,1.04-2.15,1.71-.71,.75-1.72-.49-1.02-1.23,.64-.68,1.37-1.21,2.15-1.71,.86-.56,1.89,.67,1.02,1.23h0Z"/><path class="e" d="M909.13,333.43c-1.22,.38-2.15,1.14-3.14,1.93-.81,.64-1.83-.59-1.02-1.23,1.08-.87,2.14-1.73,3.49-2.15,.97-.3,1.65,1.15,.67,1.45h0Z"/><path class="e" d="M913.48,329.3c-.94,5.48,6.38,2.37,8.98,1.24,2.95-1.29,6.33-2.82,8.67-5.09,.74-.72,1.76,.52,1.02,1.23-3.11,3.02-22.1,13.16-20.27,2.45,.17-1.01,1.77-.85,1.59,.17h0Z"/><path class="e" d="M912.22,330.51c.22,2.31,2.05,4.92,4.55,3.47,.89-.52,1.56,.94,.67,1.45-3.41,1.98-6.5-1.34-6.81-4.66-.1-1.02,1.48-1.29,1.58-.26h0Z"/><path class="e" d="M918.01,334.42c-1.65,.19-3.17,1.05-4.82,1.17-1.64,.12-2.87-.76-3.98-1.87-.73-.73,.51-1.75,1.23-1.02,1.18,1.19,2.23,1.52,3.81,1.04,1.17-.35,2.27-.76,3.5-.9,1.02-.12,1.29,1.46,.26,1.58h0Z"/><path class="e" d="M910.91,331.73c.92,1.47,3.29,1.77,4.71,.95,.89-.52,1.56,.94,.67,1.45-2.25,1.3-5.48,.45-6.83-1.73-.54-.87,.92-1.54,1.45-.67h0Z"/><path class="e" d="M916.15,334.61c-2.14,1.36-5.69,2.13-7.82,.36-.79-.65,.14-1.96,.93-1.3,1.53,1.27,4.31,.7,5.87-.29,.86-.55,1.89,.68,1.02,1.23h0Z"/><path class="e" d="M909.78,332.92c1.18,.34,2.26,1,3.51,1.09,1.03,.08,.86,1.67-.17,1.59-1.4-.11-2.59-.81-3.91-1.19-.99-.29-.42-1.78,.57-1.5h0Z"/><path class="e" d="M914.73,218.6c.55,8.73-1.43,17.16-2.58,25.76-.05,.34-.58,.29-.53-.06,1.15-8.55,3.14-16.93,2.59-25.62-.02-.34,.5-.43,.53-.09h0Z"/><path class="e" d="M910.09,253.72c.09,7.61-1.37,14.52-.63,22.22,.61,6.36,.76,12.85,2.95,18.92,.12,.32-.37,.55-.48,.22-2.21-6.11-2.36-12.64-3-19.06-.75-7.63,.71-14.78,.62-22.36,0-.34,.53-.28,.53,.06h0Z"/><path class="e" d="M946.99,219.78c.31,1.75-.13,3.53-.58,5.22-.43,1.6-1.07,3.42-1.78,4.92-.15,.31-.65,.12-.5-.19,.63-1.33,1.14-2.86,1.59-4.26,.56-1.72,1.06-3.8,.74-5.6-.06-.34,.47-.43,.53-.09h0Z"/><path class="e" d="M946.68,218.48c.2,4.2-1.74,8.43-2.7,12.45-.08,.33-.58,.14-.5-.19,.92-3.83,2.87-8.15,2.68-12.17-.02-.34,.51-.43,.53-.09h0Z"/><path class="e" d="M946.4,221.14c.19,1.25,.05,2.47-.19,3.7-.22,1.15-.8,2.16-1.05,3.29-.07,.33-.6,.28-.53-.06,.21-1,.73-1.88,.97-2.87,.31-1.29,.48-2.67,.27-3.99-.05-.34,.47-.43,.53-.09h0Z"/><path class="e" d="M946.96,216.7c-.05,3.37-.77,6.67-1.54,9.95-.44,1.88-1.11,3.91-2.28,5.47-.21,.27-.64-.04-.43-.31,1.47-1.95,2.02-4.53,2.53-6.84,.61-2.76,1.15-5.48,1.19-8.32,0-.34,.54-.29,.53,.06h0Z"/><path class="e" d="M922.2,228.6c-.06,1.94-.77,3.78-.95,5.71-.2,2.12-.25,4.26-.21,6.39,0,.34-.53,.28-.53-.06-.03-2.13,.01-4.27,.21-6.39,.18-1.93,.89-3.78,.95-5.71,.01-.34,.54-.29,.53,.06h0Z"/><path class="e" d="M940.42,202.79c.79,5.07,1.29,10.17,.69,15.3-.7,5.98-3.52,11.22-4.89,17.04-.08,.33-.61,.28-.53-.06,1.2-5.12,3.68-9.83,4.6-15.02,1.02-5.7,.48-11.49-.4-17.17-.05-.34,.47-.43,.53-.09h0Z"/><path class="e" d="M929.04,246.31c-3.65,8.49-4.66,18.37-7.94,27.16-2.37,6.36-3.14,14.71-6.74,20.44-.18,.29-.62-.02-.43-.31,1.83-2.91,2.2-6.75,3.16-10.03,1.31-4.49,3.03-8.76,4.62-13.14,2.88-7.94,3.52-16.59,6.84-24.31,.14-.31,.64-.13,.5,.19h0Z"/><path class="e" d="M979.92,215.18c-4.49,8.33-12.42,12.36-19.55,18.12-5.53,4.46-10.59,10.54-13.72,16.94-2.11,4.31-3.25,8.83-5.83,12.93-.18,.29-.62-.02-.43-.31,5.83-9.28,7.87-18.71,15.97-26.75,7.63-7.56,17.84-11.39,23.14-21.24,.16-.3,.6,.01,.43,.31h0Z"/><path class="e" d="M937.42,266.62c-3.59,5.77-7.8,11.16-11.24,17.02-2.79,4.75-5.04,9.52-9.01,13.45-.24,.24-.58-.17-.34-.41,4.38-4.34,6.69-9.78,9.89-14.92,3.27-5.25,7-10.19,10.26-15.45,.18-.29,.62,.02,.43,.31h0Z"/><path class="e" d="M944.25,306.15c-1.47,.22-2.86,.84-4.36,.86-1.45,.02-2.87-.43-4.29-.65-.34-.05-.29-.58,.06-.53,1.54,.24,3.13,.78,4.71,.63,1.29-.12,2.51-.64,3.8-.83,.34-.05,.43,.48,.09,.53h0Z"/><path class="e" d="M944.27,306.36c-3.78,1.99-11.53,2.77-14.41-1.29-.2-.28,.21-.62,.41-.34,2.68,3.78,10.24,3,13.77,1.15,.3-.16,.53,.32,.22,.48h0Z"/><path class="e" d="M943.65,306.74c-2.44,.82-5.4,1.82-7.89,.7-.31-.14-.12-.64,.19-.5,2.35,1.05,5.18,.09,7.48-.69,.32-.11,.55,.38,.22,.48h0Z"/><path class="e" d="M941.37,306.8c-1.68,.85-3.64,1.33-5.49,.79-.33-.1-.14-.59,.19-.5,1.71,.49,3.53,0,5.07-.78,.31-.16,.53,.33,.22,.48h0Z"/><path class="e" d="M940.48,307.05c-2.18,.37-4.32,.79-6.53,.45-.34-.05-.29-.58,.06-.53,2.16,.34,4.26-.08,6.39-.44,.34-.06,.43,.47,.09,.53h0Z"/><path class="e" d="M943.89,306.17c-1.22,.34-2.49,.46-3.72,.78-.65,.17-1.44,.42-2.08,.14-.31-.14-.13-.64,.19-.5,.66,.28,1.6-.13,2.25-.29,1.08-.27,2.19-.36,3.27-.66,.33-.09,.42,.44,.09,.53h0Z"/><path class="e" d="M942.05,307.01c-.55,.13-1.11,.23-1.66,.32-.34,.06-.43-.47-.09-.53,.56-.09,1.11-.19,1.66-.32,.33-.08,.42,.45,.09,.53h0Z"/><path class="e" d="M942.95,306.73c-.95,.16-1.9,.35-2.86,.47-.34,.04-.43-.48-.09-.53,.96-.12,1.9-.31,2.86-.47,.34-.06,.43,.47,.09,.53h0Z"/><path class="e" d="M942.91,306.12c-.78,1.13-.82,2.36-1.11,3.65-.28,1.27-.82,2.46-.88,3.78-.01,.34-.55,.29-.53-.06,.06-1.48,.71-2.83,.97-4.27,.23-1.24,.39-2.35,1.12-3.41,.2-.28,.63,.03,.43,.31h0Z"/><path class="e" d="M942.97,305.85c-.17,.88-.29,1.77-.54,2.64-.21,.74-.65,1.45-.73,2.22-.03,.34-.57,.29-.53-.06,.07-.66,.38-1.25,.6-1.86,.34-.96,.47-1.99,.66-2.99,.07-.33,.6-.28,.53,.06h0Z"/><path class="e" d="M942.88,306.13c-.19,1.45-.99,2.73-1.06,4.19l-.48-.18c.18-.2,.31-.43,.38-.69,.12-.32,.62-.13,.5,.19-.12,.31-.25,.54-.45,.81-.17,.22-.5,.08-.48-.18,.07-1.47,.88-2.75,1.06-4.19,.04-.34,.58-.29,.53,.06h0Z"/><path class="e" d="M943.25,306.59c-.37,.88-.61,1.79-.86,2.71-.09,.33-.59,.14-.5-.19,.24-.92,.48-1.83,.86-2.71,.13-.32,.63-.13,.5,.19h0Z"/><path class="e" d="M943.08,305.85c-.75,1.46-1.8,2.67-2.71,4.03-1.16,1.75-1.97,3.68-3.18,5.4-2.3,3.27-5.11,6.22-8.36,8.55-.28,.2-.62-.21-.34-.41,3.22-2.31,5.99-5.21,8.27-8.45,1.03-1.47,1.74-3.08,2.68-4.61,.99-1.62,2.27-3.01,3.14-4.7,.16-.3,.66-.12,.5,.19h0Z"/><path class="e" d="M908.09,331.7c-6.18-3.02-5.56-12.77-4.81-18.45,.04-.34,.58-.29,.53,.06-.71,5.41-1.39,15.03,4.47,17.89,.31,.15,.12,.65-.19,.5h0Z"/><path class="e" d="M905.2,308.4c1.36-4.41-.18-8.58-.81-12.94-.58-3.99-.85-7.95-2.24-11.78-.12-.32,.37-.55,.48-.22,1.56,4.31,1.74,8.84,2.49,13.32,.69,4.09,1.83,7.73,.57,11.81-.1,.33-.6,.14-.5-.19h0Z"/><path class="e" d="M901.62,283.08c5.87,16.16-5.5,32.34,1.45,48.6,.13,.32-.35,.54-.48,.22-6.91-16.18,4.41-32.49-1.45-48.6-.12-.32,.37-.55,.48-.22h0Z"/><path class="e" d="M926.25,289.64c-.85,5.4-3.1,10.87-4.6,16.15-1.52,5.38-3.38,10.5-6.31,15.28-.18,.29-.61-.02-.43-.31,2.92-4.77,4.73-9.81,6.24-15.16,1.48-5.2,3.73-10.69,4.56-16.01,.05-.34,.58-.29,.53,.06h0Z"/><path class="e" d="M980.44,259.73c-1.03,1.19-2.29,2.09-3.55,3.02-1.34,.99-2.44,2.25-3.87,3.12-.29,.18-.52-.31-.22-.48,1.39-.84,2.46-2.08,3.76-3.05,1.22-.91,2.45-1.76,3.45-2.92,.22-.26,.66,.05,.43,.31h0Z"/><path class="e" d="M980.8,259.74c-1.76,.8-3.77,1.65-5.19,3-.25,.24-.59-.18-.34-.41,1.46-1.39,3.5-2.25,5.3-3.07,.31-.14,.54,.34,.22,.48h0Z"/><path class="e" d="M977.83,261.62c-.55,.45-1.03,.96-1.6,1.38-.28,.2-.62-.21-.34-.41,.57-.42,1.05-.93,1.6-1.38,.27-.22,.61,.19,.34,.41h0Z"/><path class="e" d="M996.73,261.26c-3.11,.81-6.29,4.37-8.39,6.72-2.05,2.29-3.09,5.04-4.64,7.63-.18,.3-.61-.02-.43-.31,1.84-3.08,3.03-6.14,5.65-8.71,2.24-2.19,4.6-5.05,7.72-5.86,.33-.09,.42,.44,.09,.53h0Z"/><path class="e" d="M978.72,280.95c-4.29,6.75-9.89,12.19-16.04,17.26-5.79,4.77-12.25,10.56-18.94,13.93-.31,.16-.53-.33-.22-.48,6.55-3.31,13.14-9.18,18.82-13.86,6.1-5.02,11.7-10.46,15.95-17.16,.18-.29,.62,.02,.43,.31h0Z"/><path class="e" d="M991.27,236.82c-10.74,3.26-14.26,14.47-18.76,23.55-.15,.3-.65,.12-.5-.19,4.61-9.29,8.2-20.56,19.17-23.89,.33-.1,.41,.43,.09,.53h0Z"/><path class="e" d="M962.45,271.36c-.74,3.73-2.8,6.51-4.89,9.65-3.21,4.83-5.97,10.45-9.89,14.75-5.43,5.95-12.57,7.31-20.06,5.01-.33-.1-.14-.6,.19-.5,10.41,3.21,17.54-1.46,23.13-10.02,3.61-5.52,9.68-12.38,10.98-18.94,.07-.33,.6-.28,.53,.06h0Z"/><path class="e" d="M986.85,337.84c-.92,6.92-4.9,14.85-8.85,20.61-4.06,5.93-10.03,10.97-17.1,12.59-.34,.08-.42-.45-.09-.53,7.47-1.71,13.94-7.5,17.78-14.03,3.24-5.5,6.89-12.34,7.73-18.69,.04-.34,.58-.29,.53,.06h0Z"/><path class="e" d="M945.13,372.75c-13.39,2-25.06-5.71-38.25-6.1-.34-.01-.29-.54,.06-.53,13.12,.39,24.79,8.09,38.11,6.1,.34-.05,.43,.48,.09,.53h0Z"/><path class="e" d="M906.39,363.69c12.59-4.29,26.01-3.38,38.99-5.82,16.51-3.11,30.98-8.92,43.32-20.64,.25-.24,.59,.17,.34,.41-9.48,9-20.33,15.03-32.97,18.4-16.22,4.33-33.64,2.75-49.46,8.13-.32,.11-.55-.37-.22-.48h0Z"/><path class="e" d="M928.22,411.29c-5.87,4.75-12.23,8.94-19.59,10.97-8.8,2.42-15.19,.79-23.72-1.67-.33-.1-.14-.59,.19-.5,8.98,2.59,16.98,4.01,26.05,.81,6.2-2.18,11.66-5.92,16.73-10.02,.27-.22,.61,.19,.34,.41h0Z"/><path class="e" d="M884.7,419.34c5.85-5.19,14.59-6.01,22.18-5.81,.34,0,.29,.54-.06,.53-7.26-.19-16.2,.74-21.78,5.69-.26,.23-.6-.18-.34-.41h0Z"/><path class="e" d="M847.35,405.57c-4.17-1.71-8.08-6.07-10.64-9.69-5.33-7.53-8.32-13.93-17.08-18.17-.31-.15-.12-.65,.19-.5,5.4,2.61,9.29,5.63,12.64,10.72,3.88,5.92,7.98,14.23,15.09,17.14,.32,.13,.13,.63-.19,.5h0Z"/><path class="e" d="M808.71,370.35c5.08-.42,9.25,1.16,13.82,3.28,5.67,2.63,11.81,4.86,16.54,9.06,5.79,5.14,12.42,14.77,10.46,22.95-.08,.33-.58,.14-.5-.19,2.16-9.04-6.46-20-13.32-24.72-6.77-4.66-18.76-10.53-26.92-9.85-.34,.03-.43-.5-.09-.53h0Z"/><path class="e" d="M895.56,494.75c.72-4.66,2.17-9.2,2.76-13.87,.86-6.7-.97-11.82-2.36-18.15-2.18-9.97-3.83-20.36-4.04-30.56,0-.34,.52-.28,.53,.06,.26,12.22,2.65,24.63,5.55,36.48,2.26,9.24-.5,16.92-1.92,26.1-.05,.34-.58,.29-.53-.06h0Z"/><path class="e" d="M892.41,432.78c-1.17,10.19-1.7,20.17-2.59,30.31-.32,3.66-2.21,7.55-2.18,11.19,.05,7.84,4.47,14.3,8.1,20.86,.17,.3-.32,.52-.48,.22-4.44-8.03-9.22-14.6-7.66-24,2.1-12.61,2.81-25.78,4.28-38.63,.04-.34,.57-.29,.53,.06h0Z"/><path class="e" d="M938.06,517.12c-4.76,19.55-23.36,33.15-29.73,51.7-1.65,4.8-1.31,9.5-2.62,14.38-1.22,4.57-3.65,8.72-5.41,13.08-3.98,9.87-5.12,20.56-8.68,30.57-.12,.32-.61,.13-.5-.19,3.36-9.45,4.47-19.51,8.03-28.89,2.28-5.99,5.83-11.75,6.85-18.17,.61-3.81,.02-7.61,1.33-11.3,2.81-7.94,9.77-14.99,14.28-22,5.84-9.07,13.37-18.83,15.94-29.37,.08-.33,.58-.14,.5,.19h0Z"/><path class="e" d="M813.33,283.35c.2,.91,.66,1.72,.85,2.63,.19,.94,.13,1.93,.2,2.88,.03,.34-.5,.43-.53,.09-.08-.96,0-1.94-.2-2.88-.19-.91-.65-1.72-.85-2.63-.07-.34,.45-.42,.53-.09h0Z"/><path class="e" d="M812.96,283.27c1.59,3.97,.77,7.76,.42,11.91-.03,.34-.56,.29-.53-.06,.33-4.01,1.16-7.78-.38-11.63-.13-.32,.36-.54,.48-.22h0Z"/><path class="e" d="M813.52,283.53c-1.44,4.03-.83,8.22-1.55,12.38-.57,3.28-1.57,6.43-2.79,9.52-.13,.32-.63,.13-.5-.19,1.55-3.9,2.79-7.98,3.15-12.18,.29-3.35,.05-6.5,1.2-9.72,.12-.32,.61-.13,.5,.19h0Z"/><path class="e" d="M760.45,243.13c-3.58-.99-6.9-2.69-10.51-3.57-.33-.08-.14-.58,.19-.5,3.61,.89,6.94,2.58,10.51,3.57,.33,.09,.14,.59-.19,.5h0Z"/><path class="e" d="M760.91,243.68c-3.43-1.38-6.97-2.43-10.63-2.99-.34-.05-.29-.58,.06-.53,3.7,.56,7.29,1.63,10.76,3.02,.32,.13,.13,.63-.19,.5h0Z"/><path class="e" d="M766.11,248.95c-3.67-4.51-10.18-6.2-15.6-7.48-.33-.08-.28-.61,.06-.53,5.57,1.31,12.19,3.03,15.96,7.67,.22,.27-.19,.61-.41,.34h0Z"/><path class="e" d="M760.43,244.35c-2.92-1.84-6.57-1.47-9.64-2.96-.31-.15-.12-.65,.19-.5,3.11,1.51,6.79,1.14,9.76,3.02,.29,.18-.02,.62-.31,.43h0Z"/><path class="e" d="M760.51,244.34c-2.97-1.85-6.48-2.55-9.88-3.16-.34-.06-.28-.59,.06-.53,3.49,.62,7.08,1.36,10.13,3.26,.29,.18-.02,.62-.31,.43h0Z"/><path class="e" d="M756.62,242.86c-2.21-1.06-4.59-1.56-6.95-2.18-.33-.09-.14-.59,.19-.5,2.35,.62,4.74,1.12,6.95,2.18,.31,.15,.12,.65-.19,.5h0Z"/><path class="e" d="M750.45,240.67c3.41,2.51,1.89,6.77,1.79,10.34-.01,.34-.54,.29-.53-.06,.1-3.32,1.63-7.49-1.57-9.85-.28-.2,.03-.64,.31-.43h0Z"/><path class="e" d="M750.94,241.52c1.07,2.33,2.07,4.94,1.61,7.54-.06,.34-.59,.28-.53-.06,.44-2.52-.53-5.01-1.57-7.26-.14-.31,.34-.54,.48-.22h0Z"/><path class="e" d="M750.89,240.17c.62,1.89,1.65,3.69,1.99,5.66,.36,2.1,.02,4.26,.38,6.37,.06,.34-.47,.43-.53,.09-.32-1.87-.1-3.67-.29-5.54-.23-2.25-1.34-4.23-2.04-6.35-.11-.32,.38-.55,.48-.22h0Z"/><path class="e" d="M750.99,239.82c4.41,6.48,1.85,15.13,4.96,22.06,.14,.31-.34,.54-.48,.22-3.08-6.86-.52-15.54-4.88-21.94-.19-.28,.22-.63,.41-.34h0Z"/><path class="e" d="M685.95,269.63c2.8,1.6,5.32,3.62,8.46,4.56,2.6,.78,5.44,1.41,8.08,2.05,.33,.08,.14,.58-.19,.5-2.94-.71-6.13-1.31-8.98-2.36-2.83-1.04-5.1-2.84-7.67-4.32-.3-.17,.01-.6,.31-.43h0Z"/><path class="e" d="M706.38,277.31c-6.78-.73-13.56-3.56-19.57-6.65-.3-.16-.12-.66,.19-.5,5.96,3.07,12.73,5.9,19.44,6.62,.34,.04,.29,.57-.06,.53h0Z"/><path class="e" d="M686.86,270.63c3.66,2.45,7.15,3.42,11.3,4.68,3.55,1.07,7.59,1.44,10.94,2.88,.31,.14,.13,.64-.19,.5-1.67-.72-3.67-.79-5.42-1.28-2.25-.63-4.47-1.34-6.72-1.98-3.97-1.13-6.77-2.06-10.22-4.36-.29-.19,.02-.62,.31-.43h0Z"/><path class="e" d="M709.36,278.99c-3.65,.42-7.78-1.02-11.25-2.08-3.87-1.18-8.44-2.96-11.59-5.57-.26-.22,.05-.65,.31-.43,2.73,2.26,6.72,3.85,10.05,5.05,3.5,1.26,8.61,2.94,12.39,2.5,.34-.04,.43,.49,.09,.53h0Z"/><path class="e" d="M687.88,271.43c6.25,2.5,12.34,5.22,19.04,6.28,.34,.05,.29,.58-.06,.53-6.73-1.06-12.89-3.79-19.18-6.31-.32-.13-.13-.63,.19-.5h0Z"/><path class="e" d="M706.28,278.72c-6.57-1.96-12.56-2.17-18.18-6.49-.27-.21,.04-.64,.31-.43,3.11,2.39,6.17,3.83,10.01,4.65,2.7,.58,5.41,.99,8.05,1.78,.33,.1,.14,.6-.19,.5h0Z"/><path class="e" d="M689.33,272c4.75,1.98,9.94,5.26,15.31,4.59,.34-.04,.43,.48,.09,.53-5.47,.68-10.75-2.61-15.58-4.62-.32-.13-.13-.63,.19-.5h0Z"/><path class="e" d="M702.16,277.2c-5.69-.89-10.51-1.9-15.38-5.09-.29-.19,.02-.62,.31-.43,4.81,3.16,9.51,4.12,15.12,4.99,.34,.05,.29,.58-.06,.53h0Z"/><path class="e" d="M688.61,272.12c5.64,2.86,8.19,9.93,12.17,14.45,.23,.26-.18,.6-.41,.34-3.93-4.45-6.45-11.5-11.95-14.29-.3-.15-.12-.65,.19-.5h0Z"/><path class="e" d="M776.48,330.39c-1.87-2.27-4.76-2.87-7.08-4.5-2.64-1.85-4.59-4.67-7.1-6.71-.27-.22,.04-.65,.31-.43,2.67,2.17,4.78,5.26,7.67,7.08,2.28,1.43,4.84,2.07,6.61,4.22,.22,.27-.19,.61-.41,.34h0Z"/><path class="e" d="M762.29,318.67c4.28,4.95,8.69,9.62,14.96,11.94,.32,.12,.13,.62-.19,.5-6.36-2.35-10.84-7.08-15.19-12.09-.23-.26,.19-.6,.41-.34h0Z"/><path class="e" d="M745.72,321.6c10.17,5.07,21.9,4.9,32.03,9.49,7.09,3.21,13.15,8.1,17.43,14.5,.19,.28-.22,.63-.41,.34-6.05-9.04-15.32-14.17-25.75-16.55-8-1.82-16.1-3.6-23.48-7.28-.3-.15-.12-.65,.19-.5h0Z"/><path class="e" d="M800.54,344.02c1.01,5.87,1.62,11.64,2.25,17.55,.16,1.47,1.03,4.22-.19,5.39-.25,.24-.59-.17-.34-.41,1.23-1.18-.31-7.6-.43-8.97-.41-4.56-1.03-8.95-1.81-13.47-.06-.34,.47-.43,.53-.09h0Z"/><path class="e" d="M821.14,356.43c-4.78-2.49-9.06,2.69-12.93,4.81-.3,.17-.52-.32-.22-.48,3.99-2.19,8.38-7.42,13.34-4.83,.3,.16,.11,.66-.19,.5h0Z"/><path class="e" d="M817.22,355.63c-1.85,.31-3.4,1.46-5.12,2.13-.32,.12-.55-.36-.22-.48,1.77-.69,3.35-1.85,5.26-2.17,.34-.06,.43,.47,.09,.53h0Z"/><path class="e" d="M815.5,355.44c-1.03,.47-1.99,1.07-2.97,1.64-.3,.17-.52-.31-.22-.48,.98-.57,1.94-1.17,2.97-1.64,.31-.14,.54,.34,.22,.48h0Z"/><path class="e" d="M816.14,355.19c-.91,.4-1.84,.75-2.7,1.26-.29,.18-.52-.31-.22-.48,.86-.52,1.79-.86,2.7-1.26,.31-.14,.54,.35,.22,.48h0Z"/><path class="e" d="M815.56,355.76c-.61,.36-1.22,.66-1.88,.92-.32,.13-.54-.36-.22-.48,.65-.26,1.27-.57,1.88-.92,.3-.17,.52,.31,.22,.48h0Z"/><path class="e" d="M816.45,352.24c-.34,.06-.43-.47-.09-.53,.34-.06,.43,.47,.09,.53h0Z"/><path class="e" d="M818.79,349.62c-4.58,1.26-7.86,5.99-10.18,9.65-1.77,2.8-4.46,5.12-6.97,7.23-.26,.22-.6-.19-.34-.41,2.19-1.85,4.6-3.87,6.28-6.2,1.13-1.56,1.74-3.35,3-4.84,1.98-2.34,5.1-5.13,8.12-5.96,.33-.09,.42,.44,.09,.53h0Z"/><path class="e" d="M810.35,356.7c-1.53,1.97-3.24,3.77-4.73,5.77-1,1.34-2.03,2.75-3.51,3.59-.3,.17-.52-.32-.22-.48,1.67-.95,2.76-2.7,3.89-4.2,1.29-1.74,2.82-3.27,4.14-4.98,.21-.27,.65,.04,.43,.31h0Z"/><path class="e" d="M811.45,355.16c-1.24,1.87-3.04,3.17-4.52,4.82-1.67,1.86-3.18,3.65-5.25,5.1-.28,.2-.62-.21-.34-.41,2.04-1.43,3.54-3.23,5.19-5.06,1.47-1.63,3.26-2.9,4.49-4.76,.19-.29,.62,.02,.43,.31h0Z"/><path class="e" d="M807.04,360.76c-1.02,1.69-2.57,3.48-4.32,4.44-.3,.17-.52-.32-.22-.48,1.67-.92,3.14-2.65,4.11-4.27,.18-.29,.61,.02,.43,.31h0Z"/><path class="e" d="M806.83,361.07c-2.1,1.17-3.23,3.43-4.99,5-.26,.23-.6-.18-.34-.41,1.81-1.61,2.94-3.86,5.11-5.07,.3-.17,.52,.32,.22,.48h0Z"/><path class="e" d="M807.12,360.07c-1.31,1.56-2.17,3.44-3.72,4.79-.26,.23-.6-.19-.34-.41,1.51-1.31,2.36-3.17,3.63-4.69,.22-.26,.66,.05,.43,.31h0Z"/><path class="e" d="M806,361.88c-1.06,1.2-2.33,2.12-3.6,3.08-.27,.21-.62-.2-.34-.41,1.24-.93,2.48-1.81,3.51-2.98,.23-.26,.66,.05,.43,.31h0Z"/><path class="e" d="M803.48,364.13c-.68,.4-1.35,.82-2.03,1.22-.3,.17-.52-.31-.22-.48,.68-.4,1.35-.82,2.03-1.22,.3-.17,.52,.31,.22,.48h0Z"/><path class="e" d="M803.98,367.78c-.96,3.41-.87,6.76-1.04,10.26-.02,.34-.55,.29-.53-.06,.18-3.53,.1-6.94,1.07-10.39,.09-.33,.59-.14,.5,.19h0Z"/><path class="e" d="M805.09,366.31c-2.03,4.94-1.98,10.89-1.28,16.11,.05,.34-.48,.43-.53,.09-.72-5.36-.78-11.32,1.3-16.39,.13-.32,.63-.13,.5,.19h0Z"/><path class="e" d="M822.86,443.61c3.84,11.89,12.45,22.03,17.2,33.49,.08,.2-.11,.46-.34,.36l-.29-.13c-.31-.14-.12-.64,.19-.5-1.55-.7-3.37-5.32-4.38-7.15-1.51-2.73-2.7-5.61-4.13-8.38-2.96-5.73-6.75-11.31-8.74-17.46-.1-.32,.38-.55,.48-.22h0Z"/><path class="e" d="M829.03,457.37c2.23,6.73,6.54,12.75,9,19.3-.12-.32,.36-.55,.48-.22l.16,.42c.12,.32-.32,.53-.48,.22-1.68-3.1-3.02-6.35-4.76-9.42-1.86-3.28-3.69-6.49-4.88-10.08-.11-.32,.38-.55,.48-.22h0Z"/><path class="e" d="M827.38,455.24c5.03,6.24,7.65,13.8,11.34,20.82,.16,.31-.33,.53-.48,.22-3.67-6.98-6.26-14.5-11.26-20.7-.22-.27,.19-.61,.41-.34h0Z"/><path class="e" d="M854.62,424.37c.9,8.15-1.16,15.2-4.11,22.74-3.54,9.05-6.3,19.12-10.68,27.75-.15,.3-.65,.12-.5-.19,3.44-6.79,5.35-14.6,8.23-21.68,3.78-9.32,7.67-18.22,6.53-28.53-.04-.34,.49-.43,.53-.09h0Z"/><path class="e" d="M854.18,422.56c.03,2.79-.29,5.53-.16,8.31,.1,2.26,.15,4.52-.27,6.75-.06,.33-.6,.28-.53-.06,.49-2.59,.23-5.11,.2-7.72-.03-2.45,.27-4.88,.24-7.33,0-.34,.53-.28,.53,.06h0Z"/><path class="e" d="M854.55,424.76c.25,3.11-.33,6.39,.25,9.46,.06,.34-.46,.43-.53,.09-.59-3.1,0-6.34-.25-9.46-.03-.34,.5-.43,.53-.09h0Z"/><path class="e" d="M854.17,426.81c.68,1.94,.06,4.06,.34,6.07,.05,.34-.48,.43-.53,.09-.27-1.94,.35-4.08-.3-5.93-.11-.32,.37-.55,.48-.22h0Z"/><path class="e" d="M855.33,429.87c-.28,1.15-.8,2.37-.76,3.57,.01,.34-.51,.43-.53,.09-.05-1.3,.48-2.6,.78-3.85,.08-.33,.58-.14,.5,.19h0Z"/><path class="e" d="M854.13,428.14c.21,1.43-.15,2.84,0,4.26,.04,.34-.49,.43-.53,.09-.15-1.43,.21-2.84,0-4.26-.05-.34,.48-.43,.53-.09h0Z"/><path class="e" d="M853.46,420.91c.55,3.27,1.19,6.54,.78,9.86-.52,4.15-1.72,8.34-2.58,12.43-.07,.33-.6,.28-.53-.06,.77-3.67,1.64-7.34,2.32-11.03,.69-3.77,.13-7.38-.51-11.12-.06-.34,.47-.43,.53-.09h0Z"/><path class="e" d="M860,428.42c-.6,1.76-1.79,3.18-2.91,4.63-1.35,1.75-2.33,3.68-3.57,5.5-.19,.28-.63-.03-.43-.31,1.14-1.68,2.03-3.48,3.26-5.1,1.18-1.55,2.51-3.03,3.15-4.9,.11-.32,.61-.14,.5,.19h0Z"/><path class="e" d="M905.33,367.19c-6.31,.55-14.02,1.88-18.13,7.26-2.34,3.06-3.77,6.79-6.53,9.61-.24,.25-.58-.17-.34-.41,4.07-4.16,5.52-9.93,10.64-13.05,4.31-2.64,9.32-3.51,14.28-3.94,.34-.03,.43,.5,.09,.53h0Z"/><path class="e" d="M885.03,377.43c-.73,1.31-1.58,2.52-2.5,3.71-.21,.27-.64-.04-.43-.31,.91-1.18,1.77-2.4,2.5-3.71,.17-.3,.6,.01,.43,.31h0Z"/><path class="e" d="M903.78,367.03c-9.71,.27-16.31,6.07-22.03,13.24-.21,.27-.65-.04-.43-.31,5.86-7.35,12.61-13.19,22.52-13.46,.34,0,.28,.52-.06,.53h0Z"/><path class="e" d="M886.93,374.53c-.37,.73-.75,1.48-1.39,2.02-.26,.22-.6-.19-.34-.41,.56-.47,.9-1.15,1.23-1.8,.15-.3,.66-.12,.5,.19h0Z"/><path class="e" d="M886.28,375.34c-.65,1.9-1.82,3.29-2.94,4.94-1.3,1.91-2.45,3.91-3.69,5.86-.19,.29-.62-.02-.43-.31,1.13-1.76,2.15-3.59,3.32-5.32,1.2-1.76,2.55-3.32,3.25-5.35,.11-.32,.61-.13,.5,.19h0Z"/><path class="e" d="M863.62,426.86c-1.51,1.88-3.78,2.99-5.45,4.73-1.98,2.07-2.61,4.86-4.47,6.93-.23,.25-.66-.06-.43-.31,1.67-1.86,2.25-4.46,3.95-6.38,1.77-2.01,4.32-3.22,5.98-5.28,.21-.27,.65,.04,.43,.31h0Z"/><path class="e" d="M823.32,557.98c.59,3.72,1.27,7.61,.63,11.35-.82,4.79-2.29,9.53-2.02,14.45,.06,1.02-1.52,1.29-1.58,.26-.22-3.92,.52-7.88,1.26-11.72,.95-4.89,.91-9.14,.13-14.08-.16-1.02,1.42-1.28,1.58-.26h0Z"/><path class="e" d="M825.11,631.03c-.08-.04-.13-.04-.21-.08-.42-.04-.76-.17-1.14-.21-.25-1.9-.51-3.79-.67-5.65-.25-2.36-.46-4.72-.59-7.08-.72-11.13-.67-22.22-1.01-33.43v-.04c-.08-3.16-.21-6.2-.42-9.4v-.04c.04-.21,0-.46,0-.67,0-.25,.08-.46,.25-.63v-.04c.46-.42,1.26-.34,1.31,.42,.04,.51,.04,.97,.08,1.48v.04c.76,14.25,.08,28.41,1.05,42.58,.17,2.36,.34,4.68,.63,7.04,.17,1.9,.42,3.84,.72,5.73Z"/></g><g><path class="e" d="M909.93,640.56s-.04-.04-.04-.08l.04,.25c.08-.04,.17,0,.25-.04-.08,0-.17-.08-.25-.13Zm0,0s-.04-.04-.04-.08l.04,.25c.08-.04,.17,0,.25-.04-.08,0-.17-.08-.25-.13Zm0,0s-.04-.04-.04-.08l.04,.25c.08-.04,.17,0,.25-.04-.08,0-.17-.08-.25-.13Zm0,0s-.04-.04-.04-.08l.04,.25c.08-.04,.17,0,.25-.04-.08,0-.17-.08-.25-.13Zm0,0s-.04-.04-.04-.08l.04,.25c.08-.04,.17,0,.25-.04-.08,0-.17-.08-.25-.13Zm0,0s-.04-.04-.04-.08l.04,.25c.08-.04,.17,0,.25-.04-.08,0-.17-.08-.25-.13Zm0,0s-.04-.04-.04-.08l.04,.25c.08-.04,.17,0,.25-.04-.08,0-.17-.08-.25-.13Zm0,0s-.04-.04-.04-.08l.04,.25c.08-.04,.17,0,.25-.04-.08,0-.17-.08-.25-.13Zm-9.91,34.32c-.21,.13-.42,.21-.63,.34-.08,.04-.17,.08-.25,.17,.08,.34,.13,.63,.21,.97,.13,0,.21-.04,.3-.13,.25-.08,.42-.17,.63-.25,.67-.3,1.35-.59,1.98-.89-.08-.42-.17-.84-.3-1.26-.63,.38-1.26,.72-1.94,1.05Zm-6.15-45.83h-.55c-.21,.04-.42,.04-.67,.04h-.8c-.17,.04-.34,.04-.51,.04h-.59c-.21,.04-.42,.04-.63,.04h-.42c-.25,.04-.46,.04-.72,.04-.21,0-.38,.04-.59,0-.13,.04-.25,.04-.38,.04h-5.31c-1.18,.04-2.28,.04-3.41,.04h-1.52c-.97,0-1.94,0-2.91-.04-1.31,0-2.53,0-3.84-.04,3.75,3.33,8.9,6.62,13.41,7.46,1.01,.42,1.94,1.05,2.78,1.73,.46,.08,.89,.08,1.39,.08,.42,0,.84,.04,1.26,.04t.08,.04h.67c.13,.04,.25,0,.38,.04,.08-.04,.17,0,.25,0,.21,.13,.38,.13,.55,0h.08c.42,.04,.93,.04,1.39,.04,.25,.04,.51,.04,.76,.04s.55,.04,.84,.04c-.25-3.25-.34-6.53,0-9.78-.34,.04-.67,.08-1.01,.08Zm-69.69-3.79c-.38-.04-.72-.13-1.1-.17-.55-.08-1.05-.17-1.6-.25,.21,1.85,.42,3.71,.67,5.56,.51,.13,1.05,.21,1.6,.34,.38,.04,.72,.17,1.14,.21,.08,.04,.13,.04,.21,.08-.3-1.9-.55-3.84-.72-5.73-.08-.04-.13-.04-.21-.04Zm85.75,15.3s-.04-.04-.04-.08l.04,.25c.08-.04,.17,0,.25-.04-.08,0-.17-.08-.25-.13Zm0,0s-.04-.04-.04-.08l.04,.25c.08-.04,.17,0,.25-.04-.08,0-.17-.08-.25-.13Zm0,0s-.04-.04-.04-.08l.04,.25c.08-.04,.17,0,.25-.04-.08,0-.17-.08-.25-.13Zm0,0s-.04-.04-.04-.08l.04,.25c.08-.04,.17,0,.25-.04-.08,0-.17-.08-.25-.13Zm0,0s-.04-.04-.04-.08l.04,.25c.08-.04,.17,0,.25-.04-.08,0-.17-.08-.25-.13Zm0,0s-.04-.04-.04-.08l.04,.25c.08-.04,.17,0,.25-.04-.08,0-.17-.08-.25-.13Zm0,0s-.04-.04-.04-.08l.04,.25c.08-.04,.17,0,.25-.04-.08,0-.17-.08-.25-.13Zm0,0s-.04-.04-.04-.08l.04,.25c.08-.04,.17,0,.25-.04-.08,0-.17-.08-.25-.13Z"/><path class="e" d="M987.33,616.27c-25.76,5.9-50.55,9.78-74.41,11.68-.17,0-.29,.04-.46,.04-.38,.04-.76,.04-1.14,.08-.34,.04-.63,.08-.93,.04-.04,.04-.08,.04-.08,.04h-.55l-.13,.04s-.08,.04-.13,0c-.13,.04-.21,.04-.29,.04s-.13,.04-.17,0h-.08s-.08,0-.13,0c-.04,.04-.08,.04-.13,0-.34,.04-.67,.08-1.01,.04-.46,.08-.89,.13-1.31,.13-.08,0-.13,.04-.17,0-.08,0-.17,.04-.25,.04-.34,.04-.72,.04-1.05,.04-.13,.04-.25,.04-.38,0-.34,.08-.63,.13-.97,.08h-.04c-.08,.08-.17,.04-.3,.04-.59,.04-1.18,.08-1.77,.08-.3,.04-.67,.04-1.01,.04-.25,.04-.51,.08-.76,.04-.34,.04-.76,.08-1.14,.04-.3,.04-.63,.04-.97,.04-.46,.04-.93,.08-1.39,.04-.42,.04-.84,.04-1.31,.04-.34,3.25-.25,6.53,0,9.78-.3,0-.59-.04-.84-.04s-.51,0-.76-.04c-.46,0-.97,0-1.39-.04h-.08c-.17,.13-.34,.13-.55,0-.08,0-.17-.04-.25,0-.13-.04-.25,0-.38-.04h-.67s-.04,0-.08-.04c-.42,0-.84-.04-1.26-.04-.51,0-.93,0-1.39-.08-.84-.67-1.77-1.31-2.78-1.73-4.51-.84-9.65-4.13-13.41-7.46h-.04c-10.2-.17-20.19-.8-30.02-1.81-.08,0-.17,0-.25-.04-.34,.04-.72-.04-1.05-.08-.55-.04-1.1-.08-1.64-.21-4.6-.51-9.11-1.1-13.62-1.77,.17,1.9,.42,3.84,.72,5.73-.08-.04-.13-.04-.21-.08-.42-.04-.76-.17-1.14-.21-.55-.13-1.1-.21-1.6-.34-.25-1.85-.46-3.71-.67-5.56-64.63-10.41-120.28-39.16-166.31-86-61.17-62.1-81.66-134.74-81.91-135.66-39.84-128.83-10.88-225.88,20.45-284.56,33.98-63.83,78.12-97.55,78.54-97.89l25.88-19.56-31.37,8.43c-.93,.25-1.86,.46-2.82,.72-191.19,52.49-256.61,188.99-257.2,190.3-45.07,92.71-51.9,187.52-20.24,281.91,35.45,105.82,118.46,192.24,222,231.11,77.91,29.3,151.3,23.78,210.2,7.63,16.69-4.6,32.25-10.03,46.42-15.81,.13-.04,.17-.04,.3-.13,.21-.04,.38-.17,.59-.25,.34-.08,.63-.21,.89-.38,.13,.04,.17-.04,.25-.04,.13-.04,.25-.13,.38-.17,3.88-1.56,7.63-3.2,11.3-4.85,15.85-7.12,30.4-14.71,43.34-22.22,.13-.04,.17-.08,.25-.17,.25-.08,.42-.17,.59-.34,.67-.34,1.31-.67,1.9-1.05,41.86-24.54,66.82-47.51,68.17-48.78l17.24-16.02-22.98,5.23Zm-66.61,47.05c-.55,.34-1.14,.67-1.69,1.01-.25,.13-.46,.3-.76,.42-.04,.04-.08,.04-.17,.08-5.14,2.99-10.5,6.03-16.15,8.98,.13,.42,.21,.84,.3,1.26-.63,.3-1.31,.59-1.98,.89-.21,.08-.38,.17-.63,.25-.08,.08-.17,.13-.3,.13-.08-.34-.13-.63-.21-.97-11.34,5.9-23.65,11.76-36.76,17.16-.17,.13-.38,.21-.59,.25-.13,.08-.3,.13-.46,.21-.13,.04-.21,.13-.38,.17h-.08c-.17,.08-.34,.17-.55,.25-.17,.04-.3,.13-.51,.17-.13,.08-.25,.13-.38,.21-66.48,26.94-153.62,42.92-246.5,7.97-99.96-37.6-180.14-121.04-214.41-223.27-30.56-91.15-23.99-182.8,19.65-272.47,.55-1.26,58.09-121.2,225.21-176.3-16.57,16.65-40.09,44.18-60.58,82.38-32.59,60.92-62.81,161.51-21.67,294.6,.84,3.12,21.42,76.14,84.61,140.64,39.88,40.68,102.44,82.67,194.9,92.28,.55,.08,1.05,.13,1.6,.17,.42,.04,.76,.13,1.18,.13,.08,0,.13,0,.21,.04,19.52,1.85,40.34,2.28,62.52,.97,.51,0,.93-.04,1.39-.08,.42-.04,.84-.04,1.26-.08q.08,.04,.13,0l.63-.04c.13,.04,.25,0,.38,0l-.04-.25s.04,.04,.04,.08c.08,.04,.17,.13,.25,.13,.17,0,.34,0,.55-.04,0,0,.04,.04,.08,0,.46-.04,.93-.08,1.39-.08,.25,0,.51-.04,.76-.04,.25-.04,.59-.04,.84-.08,16.27-1.22,33.26-3.41,51.01-6.62-10.79,8.18-25.67,18.68-44.1,29.51Z"/></g></g></g></g></g></svg>