<?xml version="1.0" encoding="UTF-8"?><svg xmlns="http://www.w3.org/2000/svg" viewBox="0 0 2466.73 2064.24"><defs><style>.d{fill:#1c3d34;}</style></defs><g id="a"/><g id="b"><g id="c"><g><g><path class="d" d="M1328.95,1545.34c.23-4.74,.38-9.47,.47-14.22,.11-5.62,.11-11.23-.01-16.87-1.72-77.93-24.44-155.47-40.91-231.23-15.9-73.15-31.4-146.37-47.67-219.43-.13-.63-.27-1.27-.41-1.89-.78-3.48-1.56-6.98-2.35-10.47-16.54-73.03-36.03-145.78-66.31-213.49-1.32-2.96-2.66-5.9-4.02-8.83-16.03-34.53-34.98-67.64-57.92-98.73-5.57-7.57-11.39-15.02-17.46-22.33-.74-.91-1.49-1.81-2.25-2.7-.11-.13-.2-.26-.26-.4-.61-1.22,.41-2.62,1.56-2.6,.38,.01,.78,.18,1.14,.55,.63,.67,1.25,1.32,1.85,1.99,1.59,1.66,3.14,3.36,4.66,5.05,29.68,32.82,53.2,70.49,72.38,110.31,1.38,2.84,2.72,5.69,4.05,8.55,8.59,18.57,16.3,37.54,23.28,56.67,18.42,50.42,31.94,102.43,43.98,154.73,.94,4.04,1.86,8.09,2.77,12.14,2.13,9.39,4.22,18.78,6.29,28.18,12.53,56.88,24.89,113.79,37.24,170.7,2.05,9.4,4.08,18.8,6.13,28.2,.26,1.22,.53,2.45,.8,3.67,.44,2.02,.87,4.04,1.31,6.06,1.61,7.34,3.2,14.69,4.79,22.03,15.63,71.88,35.59,144.73,34.71,218.81-.04,3.28-.11,6.57-.24,9.85-.06,1.45-.11,2.92-.2,4.37l-7.41,1.34Z"/><path class="d" d="M1296.19,1293.98c5.81-32.9,38.57-59.31,63.42-78.88,27.57-21.71,56.41-37.54,88.91-50.55,2.94-1.18,1.89-5.5-1.33-4.82-34.95,7.32-66.43,30.35-93.78,52.25-14.81,11.86-28.99,24.62-40.86,39.49-9.55,11.96-19.97,26.13-20.12,42.01-.02,2.1,3.38,2.69,3.76,.51h0Z"/><path class="d" d="M1359.11,1212.98c2.04-17.84,17.15-35.07,29.94-46.56,12.19-10.94,26.53-19.41,41.62-25.7,16.76-6.98,34.58-11.14,52.52-13.73,18.64-2.69,38-1.6,56.42-5.07,3.05-.58,1.93-4.68-.68-4.99-21.33-2.5-45.71,1.43-66.78,5.31-18.93,3.49-37.63,8.98-54.8,17.79-15.01,7.7-29.06,17.98-40.3,30.62-9.5,10.68-22.46,27.22-20.51,42.32,.21,1.64,2.39,1.67,2.58,0h0Z"/><path class="d" d="M1353.98,1221.03c12.53-6.01,22.15-10.23,36.14-10.02,8.99,.13,17.73,.4,26.7-.72,17.6-2.2,34.74-7.53,50.57-15.51,31.79-16.03,57.49-42.35,75.73-72.67,2.31-3.84-3.62-7.28-5.99-3.5-20.58,32.84-48.4,60.6-84.73,75.44-18.61,7.6-37.99,10.92-58.05,10.98-16.64,.05-29.02,2.87-41.67,14.33-.95,.86,.26,2.18,1.3,1.68h0Z"/><path class="d" d="M1296.46,1281.32c-7.52-30.42,5.36-68.67,16.56-96.96,12.18-30.77,29.65-59.21,50.17-85.09,17.21-21.72,36.11-42.33,45.86-68.76,10.02-27.18,11.58-59.11,5.34-87.34-.82-3.71-7.08-2.98-6.73,.91,3.07,34.45,4.29,68.09-12.54,99.66-14.79,27.73-38.06,50.05-55.46,76.11-16.35,24.48-29.82,51.15-38.79,79.23-7.69,24.07-18.15,59.12-7.57,83.58,.8,1.85,3.62,.5,3.17-1.34h0Z"/><path class="d" d="M1411.41,1009.76c-23.26,7.1-25.81-30.59-25.82-45.3,0-16.89,3.5-33.58,9.06-49.48,9.43-26.99,32.39-52.95,31.15-82.74-.17-4.12-6.09-4.08-6.37,0-1.76,25.35-16.09,44.97-25.76,67.67-7.24,17-12.27,35.02-13.7,53.48-1.26,16.27-.74,37,7.76,51.49,5.16,8.8,16.36,14.82,25.08,7.27,1.09-.95-.07-2.8-1.39-2.39h0Z"/><path class="d" d="M1423.03,830.9c-.87,13.79-1.48,28.85,1.94,42.34,3.81,15.02,11.11,28.7,14.07,44.03,5.91,30.58,2.59,73.14-28.26,89.26-4.1,2.14-.5,7.89,3.56,6.09,27.76-12.3,34.64-48.15,33.71-75.37-.63-18.21-5.57-34.83-12.22-51.65-3.65-9.22-6.61-18.21-7.47-28.16-.79-9.1-.16-18.12-3.4-26.8-.39-1.04-1.87-.88-1.94,.26h0Z"/><path class="d" d="M1328.96,1147.14c18.53-14.12,39.73-17.92,60.52-27.26,19.07-8.57,41.11-22.92,51.92-41.36,1.8-3.07-2.28-6.04-4.81-3.71-8.99,8.25-16.44,17.55-26.3,24.95-11.03,8.27-23.11,14.58-36.06,19.29-16.29,5.93-37.07,10.87-46.34,27.01-.36,.63,.42,1.58,1.08,1.08h0Z"/><path class="d" d="M1397.52,1114.52c-10.24-12.62,10.37-31.67,18.49-38.99,8.43-7.6,18.04-13.68,28.45-18.16,17.04-7.33,39.77-6.9,53.41-20.56,2.07-2.08-.54-5.17-3.03-3.93-26.35,13.12-55.29,15.16-78.73,34.51-9.14,7.54-41.73,39.03-20.44,49.5,1.59,.78,2.91-1.04,1.83-2.38h0Z"/><path class="d" d="M1390.94,1114.74c1.16,9.85,13.82,10.59,21.87,10.19,13.51-.67,26.19-6.79,36.68-15.07,12.37-9.76,21.58-22.75,30.47-35.58,8.16-11.77,20.52-23.81,22.21-38.52,.44-3.83-6.15-4.75-6.77-.92-1.81,11.21-10.46,19.8-16.79,28.82-6.32,9.01-12.35,18.27-19.42,26.72-6.81,8.14-14.55,15.6-23.87,20.83-10.68,5.99-32.02,13.33-42.32,2.67-.67-.69-2.19-.22-2.07,.86h0Z"/><path class="d" d="M1331.35,1143.28c-3.14-17.82-7.34-35.01-8.28-53.2-.86-16.76,1.69-33,2.11-49.64,.06-2.5-3.64-2.95-4.32-.58-8.91,31.25-4.64,74.68,7.98,104.49,.65,1.53,2.75,.35,2.51-1.06h0Z"/><path class="d" d="M1323.14,1112.11c-22.15-25.09-23.64-54.67-18.82-86.56,2.07-13.69,4.79-27.3,8.06-40.75,2.82-11.62,7.7-23.44,7.03-35.54-.22-3.89-5.71-3.84-6.01,0-1.35,17.09-7.36,33.8-10.66,50.61-3.02,15.36-5.72,31.04-6.39,46.71-1.03,24.22,4.17,52.62,25.28,67.49,1.22,.86,2.41-.95,1.51-1.96h0Z"/><path class="d" d="M1316,949.88c-2.03,28.65,21.7,52.5,30.83,78.24,10.68,30.12,6.44,63.66-23.72,79.83-3.12,1.67-.99,6.94,2.44,5.79,25.91-8.73,36.52-38.99,33.71-64.14-4.17-37.44-35.33-63.61-40.69-100.05-.23-1.54-2.48-1.03-2.57,.35h0Z"/><path class="d" d="M995.35,596.72c-8.69,.58-15.32,11.14-11.76,19.35,4.21,9.69,16.89,5.22,23.03,.33,7.39-5.88,8.61-16.92-.36-22.01-7.99-4.54-19.81-.69-21.52,8.93-.58,3.27,3.54,5.26,5.45,2.3,2.26-3.49,5.34-6.38,9.82-5.61,6.2,1.07,6.8,6.93,2.52,10.75-2.6,2.32-8.93,6.33-12.32,3.88-2.3-1.67-1.46-5.67-.74-7.86,1.06-3.19,3.11-5.34,6.45-5.86,2.37-.36,1.83-4.36-.57-4.2h0Z"/><path class="d" d="M988.72,617.8c-6.91-4.12-14.04,1.32-16.66,7.89-3.31,8.3,3.76,13.95,11.66,13.24,7.4-.66,17.02-5.08,14.46-14.21-2.27-8.07-12.48-13.12-19.35-7.62-2.35,1.88,.31,4.89,2.63,4.52,3.59-.59,9.04,.76,10.1,4.93,1.13,4.45-5.47,5.76-8.51,6.06-1.45,.14-3.22,.19-4.53-.58-2.72-1.59-1.37-4.88-.13-7.01,1.95-3.35,5.14-5.5,9.08-4.24,1.79,.58,2.83-2.05,1.26-2.99h0Z"/><path class="d" d="M989.41,635.86c-7.06-.98-11.98,4.65-13.16,11.21-1.43,7.99,7.76,10.28,13.94,8.63,6.3-1.68,11.08-8.95,7.6-15.18-3.41-6.1-13.24-8.52-19.02-4.7-2.14,1.41-1.34,4.78,1.31,4.85,3.44,.09,7.29-.43,10.33,1.56,3.04,1.98,2.15,5.64-.87,7.16-1.4,.71-3.01,.89-4.56,.8-2.49-.16-3.98-.86-3.39-3.74,.83-4.06,3.67-7.28,7.82-8.05,1.22-.23,1.28-2.35,0-2.53h0Z"/><path class="d" d="M1000.87,647.88c-6.49-1.67-14.08,4.82-14.68,11.36-.76,8.25,10.57,11.49,16.78,9.71,7.2-2.07,13.55-10.11,8.36-17.17-4.41-6.01-16.47-8.29-21.55-2.02-1.28,1.58-.63,4.62,1.84,4.44,3.06-.22,6.05-1.37,9.14-.79,4.76,.89,7.41,4.61,2.82,7.99-2.9,2.14-8.13,3.11-10.83-.02-3.2-3.7,2.78-11.1,7.19-10.17,2.17,.46,3.1-2.78,.92-3.34h0Z"/><path class="d" d="M1015.58,657.54c-7.01-1.65-12.82,4.8-12.16,11.64,.71,7.35,8.66,12.08,15.49,9.65,8.33-2.96,9.73-12.32,6.02-19.44-1.73-3.31-3.98-5.95-7.92-6.11-4.27-.18-8.62,1.77-11.59,4.77-1.76,1.79,0,5.47,2.61,4.48,2.51-.95,7.61-3.43,9.81-1.23,2.79,2.78,3.34,8.38,.03,10.83-2.93,2.17-7.25,.97-8.81-2.35-1.98-4.21,1.59-9.32,6.1-9.15,1.76,.07,2.15-2.68,.42-3.09h0Z"/><path class="d" d="M1031.85,649.4c-6.37,1.27-10.79,7.59-8.59,13.98,2.38,6.93,11.08,8.76,16.69,4.52,5.68-4.29,6.8-13.45,1.47-18.5-5.29-5.01-14.76-4.58-18.91,1.64-1.7,2.55,1.55,5.17,3.95,3.95,2.77-1.42,5.64-2.75,8.73-1.38,3.35,1.49,3.64,5.63,1.54,8.37-2.08,2.71-6.57,2.93-8.35-.26-2.08-3.73,.96-7.46,4.54-8.42,2.53-.68,1.45-4.39-1.07-3.89h0Z"/><path class="d" d="M1044.99,634.21c-7.18-2.61-12.25,5.21-11.41,11.66,.94,7.23,9.06,11.93,15.76,8.86,6.41-2.93,9.11-11.92,5.73-18.06-1.76-3.21-5.18-5.16-8.71-5.8-4.63-.84-7.99,.51-11.5,3.4-1.98,1.63,.15,4.93,2.45,4.21,2.93-.91,8.59-1.37,10.94,1.08,2,2.08,1.18,6.06-.55,8.02-2.38,2.7-6.56,1.74-8.15-1.35-1.93-3.75,.37-9.51,5.02-9,1.82,.2,1.92-2.46,.41-3.01h0Z"/><path class="d" d="M1043.48,612.37c-6.31,.57-10.44,8.25-7.5,13.95,3.5,6.8,12.84,7.61,18.83,3.83,6.98-4.4,7.62-12.44,.66-17.27-5.58-3.86-17.93-3.75-17,5.78,.24,2.51,4.18,4.45,5.45,1.48,1.5-3.5,4.66-3.62,7.62-1.71,3.76,2.43,2.03,5.5-1.29,7.16-2.64,1.32-6.6,1.47-8.83-.77-2.69-2.71-1.13-7.79,2.61-8.49,2.21-.41,1.73-4.16-.54-3.96h0Z"/><path class="d" d="M1037.37,595.81c-6.56,.97-15.94,4.91-12.61,13.39,2.85,7.27,12.4,8.28,18.58,5.05,7.44-3.89,9.78-12.21,3.3-18.18-5.98-5.51-16.07-5.18-20.34,2.12-1.25,2.14,1.26,4.72,3.42,3.42,3.03-1.82,6.72-3.25,10.16-1.72,1.35,.6,3.41,1.98,3.75,3.56,.47,2.2-1.73,4.24-3.53,5.27-2.89,1.66-7.24,1.92-9.68-.74-4.4-4.8,4.54-8.15,7.79-9.09,2.02-.59,1.13-3.36-.85-3.07h0Z"/><path class="d" d="M1020.18,587.62c-6.22,2.32-12.72,8.07-9.62,15.41,3.1,7.34,13.19,6.06,17.86,1.14,5.39-5.67,2.87-14.93-4.58-17.28-7.68-2.42-15.86,3.5-16.4,11.35-.2,2.94,4.03,3.86,5.41,1.47,1.53-2.67,3.15-5.98,6.59-6.45,3.92-.53,6.97,3.53,4.05,6.7-2.19,2.38-7.56,3.45-8.32-.67-.76-4.1,3.36-6.61,6.55-7.98,2.08-.89,.59-4.48-1.55-3.69h0Z"/><path class="d" d="M923.92,601.81c-15.15-1.02-34.58-6.57-48.69,1.7-7.64,4.48-9.09,11.72-13,19.03-4.89,9.12-14.02,11.87-22.28,16.98-13.17,8.15-18.99,22.7-19.76,37.93-.62,12.3,5.75,30.67,16.09,38.01,2.88,2.05,5.24,2.24,8.39,3.43,6.31,2.39,10.04,4.82,14.94,9.36,6,5.56,12.79,10.24,20.17,13.78,15.78,7.56,33.58,9.66,50.71,6.15,38.86-7.96,59.54-42.95,76.67-75.35,2.13-4.04-3.99-7.63-6.13-3.58-14.94,28.3-31.86,59.19-64.17,69.98-16.38,5.47-34.43,4.67-50.33-1.91-8.13-3.36-15.48-8.06-21.98-14-3.58-3.27-6.5-7.4-11.04-9.45-2.36-1.07-4.6-1.03-6.99-1.69-6.36-1.75-9.32-5.09-12.63-10.59-4.07-6.77-7.17-16.19-6.81-24.14,.43-9.67,4.1-21.81,11.35-28.36,4.93-4.45,11.21-6.68,16.8-10.12,4-2.46,7.7-5.19,10.47-9.05,4.8-6.69,5.27-15.94,12.94-20.62,12.23-7.46,31.96-1.76,45.3-.89,4.25,.28,4.23-6.33,0-6.61h0Z"/><path class="d" d="M941.35,740.19c-10.36,7.12-10.62,19.31-6.65,30.38,4.62,12.84,12.61,27.79,28.05,27.3,7.39-.24,13.52-3.98,20.03-6.93,13.7-6.22,24.47-5.47,38.14-.63,19.6,6.94,37.81,11.46,58.65,12.73,13.4,.81,25.67,1.2,32.09-12.62,6.93-14.94,4.37-39.33-.06-54.87-4.47-15.67-14.62-29.1-26.83-39.65-12.91-11.16-31.47-24.37-48.25-28.15-2.4-.54-4.68,2.57-2.57,4.41,9.26,8.08,21.76,12.42,32.07,19.2,11.92,7.83,22.97,17.43,30.63,29.6,8.12,12.89,10.08,27.18,10.48,42.15,.24,8.85,1.61,22.15-5.43,28.87-6.2,5.92-16.88,3.89-24.44,3.43-15.16-.92-29.82-3.04-44.12-8.24-10.97-3.99-22.06-9.03-33.99-8.52-12.14,.52-20.54,8.97-31.96,11.42-12.1,2.6-18.31-4.87-23.53-14.54-5.96-11.04-10.3-22.91-1.02-33.69,.73-.84-.23-2.36-1.27-1.65h0Z"/><path class="d" d="M948.36,790.95c15.4,27.49,57.47,27.11,84.77,30.74,28.77,3.82,60.77,3.5,76.02-25.78,1.54-2.96-2.63-5.39-4.46-2.61-18.75,28.6-47.74,26.36-78.02,22.21-26.42-3.62-57.78-4.39-76.35-26.07-.94-1.1-2.64,.31-1.96,1.52h0Z"/><path class="d" d="M1059.28,684.24c21.36-4.94,39.42-2.89,59.41,6.37,12.04,5.58,25.14,17.38,39.17,16.6,24.25-1.35,45.54-30.17,54.32-50.27,10.28-23.53,7.73-57.32-8.41-78.01-15.35-19.68-40.36-34.79-65.25-36.58-4.08-.29-4.03,5.99,0,6.33,24.96,2.11,55.57,20.7,65.87,44.14,11.71,26.63,8.85,55.14-7.91,78.68-7.73,10.85-19.09,23.09-31.98,27.38-15.76,5.25-30.88-8.48-44.81-14.64-18.59-8.21-42.88-13.61-61.41-2.35-1.27,.77-.43,2.69,.99,2.36h0Z"/><path class="d" d="M1089.21,707.05c16.83,4.18,32.33,11.12,50.03,8.99,13.98-1.68,28.86-7.69,38.33-18.39,1.83-2.07-.61-5.91-3.15-4.09-13.33,9.55-26.02,16.89-42.97,17.25-14.39,.31-27.64-7.21-41.93-6.02-1.23,.1-1.64,1.93-.31,2.26h0Z"/><path class="d" d="M967.74,609.79c-21.49-.94-41.75-7.14-60.83-16.94-19.61-10.08-42.69-22.16-40.69-47.44,1.72-21.73,11.28-38.81,28.08-52.25,13.21-10.56,20.2-23.68,29.13-37.76,11.78-18.57,30.76-40.48,55.62-34.52,22.19,5.31,34.13,27.09,41.59,46.77,14.91,39.35,16.13,82.53,4.94,122.95-1.17,4.23,5.4,6.04,6.57,1.81,10.49-37.91,10.45-78.2-1.27-115.85-8.87-28.51-27.72-66.4-63.41-63.21-40.12,3.59-46.73,47.73-71.54,70.42-12.92,11.82-24.32,20.21-30.52,37.33-4.83,13.33-8.67,31.48-2.37,44.92,7.59,16.2,29.64,26.53,44.81,33.88,18.87,9.15,38.9,14.8,59.89,15.67,3.71,.15,3.7-5.61,0-5.77h0Z"/><path class="d" d="M1025.14,466.95c1.43-15.53,21.31-30.3,33.3-38.29,12.39-8.26,29.59-16.08,43.07-5.62,8.77,6.8,9,20.35,17.84,27.91,4.29,3.67,9.5,6.06,13.8,9.71,7.62,6.47,10.62,14.81,11.68,24.45,3.1,28.44-6.18,60.5-25.71,81.6-18.96,20.47-44.11,28.83-67.9,41.72-3.17,1.72-1.02,7.09,2.49,5.9,30.37-10.34,63.25-28.78,80.94-56.35,15.2-23.68,26.94-67.55,10.96-93.52-3.61-5.86-8.67-9.66-14.3-13.45-3.57-2.4-7.4-4.42-10.33-7.68-4.17-4.65-5.02-10.24-7.6-15.52-5.54-11.37-16.77-16.96-29.29-16.15-14.12,.92-27.03,9.76-37.57,18.5-10.73,8.89-25.55,21.5-24.39,36.79,.15,1.95,2.85,1.94,3.02,0h0Z"/><path class="d" d="M1111.83,439c.51,7.26-8.38,17.34-11.83,23.23-3.98,6.79-7.79,13.64-10.86,20.9-4.76,11.25-7.62,22.76-6.56,35,.31,3.56,5.44,3.65,5.61,0,.91-20.33,8.55-37.36,18.4-54.84,3.79-6.73,13.62-17.63,7.61-25.27-.74-.94-2.45-.16-2.38,.98h0Z"/><path class="d" d="M980.49,603.1c-18.96-20.46-34.19-39.44-43.53-66.2-.92-2.64-5.08-1.56-4.24,1.17,7.82,25.31,23.78,52.08,46.38,66.84,1.13,.74,2.25-.88,1.39-1.81h0Z"/><path class="d" d="M999.2,582.96c-1.06-10.96-5.28-22.37-8.73-32.78-.87-2.62-4.87-1.56-4.16,1.15,2.78,10.6,5.46,22.51,10.56,32.26,.55,1.06,2.45,.61,2.33-.63h0Z"/><path class="d" d="M911.61,467.9c.35,27.27,14.9,51.98,38.04,66.22,2.28,1.4,4.23-2.07,2.08-3.55-21.47-14.8-34.4-36.87-37.62-62.67-.19-1.55-2.52-1.66-2.5,0h0Z"/><path class="d" d="M1067.82,625.76c10.66,5.09,22.23,7.59,34.05,7.07,3.08-.14,3.1-4.71,0-4.8-11.27-.31-21.94-2.08-32.66-5.55-1.91-.62-3.23,2.4-1.38,3.28h0Z"/><path class="d" d="M848.95,640.45c21.39-5.67,39.36-1.29,60.23,4.1,3.18,.82,4.45-3.88,1.35-4.9-19.44-6.38-43.62-12.42-62.66-1.74-1.38,.78-.45,2.95,1.07,2.54h0Z"/><path class="d" d="M843.52,714.99c7.42,6.27,17.46,1.39,25.48-1.67,14.18-5.41,27.22-12.92,40.23-20.64,2.75-1.63,.31-5.79-2.5-4.28-9.17,4.91-18.37,9.81-27.73,14.36-7.99,3.88-24.62,14.64-33.49,9.67-1.56-.87-3.44,1.33-1.98,2.57h0Z"/><path class="d" d="M979.58,655.66c-6.27-.61-11.39,3.03-16.38,6.43-5.66,3.86-10.86,8.19-15.66,13.08-1.64,1.67,.87,4.18,2.57,2.57,4.17-3.96,8.49-7.83,13.09-11.29,4.71-3.54,10.25-8.3,16.39-8.13,1.74,.05,1.67-2.5,0-2.66h0Z"/><path class="d" d="M1025.21,671.59c-13.05,28.08-3.44,63.47,16.68,85.5,2.22,2.43,5.48-1.08,3.54-3.54-19.14-24.22-22.02-51.15-17.09-80.64,.29-1.75-2.25-3.23-3.13-1.32h0Z"/><path class="d" d="M1180.56,1539.84c-12.98-89.74-13.47-181.19,.67-270.82,14.16-89.81,44.15-173.13,81.14-255.81,17.8-39.77,33.98-79.86,45.01-122.1,11.5-44.02,19.33-88.99,27.24-133.76,16.2-91.69,29.44-184.03,35.48-276.99,6.77-104.11,4.11-208.83-13.23-311.84-.87-5.16-8.72-2.97-7.86,2.17,31.92,189.16,12.84,382.03-19.22,569.81-7.69,45.01-15.39,90.19-26.13,134.6-10.89,45.04-26.95,87.73-45.77,130.01-35.82,80.5-66.24,160.95-81.22,248.19-16.33,95.12-17.3,192.73-1.02,287.9,.56,3.25,5.36,1.83,4.9-1.35h0Z"/><path class="d" d="M1174.29,1292.07c9.19-26.32,1.48-52.09-8.3-77.07-11.97-30.57-21.96-59.33-25.04-92.3-6.11-65.47-7.84-134.22,5.13-198.93,23.92-119.34,92.94-223.79,176.95-309.73,23.04-23.57,47.31-45.9,72.31-67.37,23.4-20.09,47.3-39.95,62.04-67.59,2.23-4.19-4.14-7.92-6.37-3.72-13.77,25.83-35.8,44.65-57.7,63.41-22.67,19.42-44.78,39.48-65.93,60.56-42.03,41.89-80.51,87.67-112.18,137.94-31.25,49.6-55.9,103.74-70.35,160.64-16.02,63.07-16.04,127.36-12.63,191.95,1.74,33.02,4.8,65.86,16.48,97.06,12.4,33.13,33.3,67.84,22.25,104.23-.65,2.16,2.62,3.01,3.34,.92h0Z"/><path class="d" d="M1185.59,787.36c49.69-50.2,51.24-132.02,60.55-197.71,2.56-18.04,5.42-36.01,3.14-54.25-2.57-20.55-8.29-41.1-13.65-61.08-10.26-38.22-26.44-71.05-50.08-102.72-29.71-39.81-59.94-79.25-89.91-118.86-2.88-3.8-9.39-.07-6.48,3.79,31.36,41.46,63.36,82.51,94.04,124.47,14.58,19.94,26.96,40.71,35.44,64.02,8.05,22.1,13.56,45.13,18.92,68,6.72,28.71,4.74,53.29,.73,82.17-3.21,23.12-6.17,46.29-9.68,69.37-6.56,43.07-16.7,86.49-44.84,120.98-1.03,1.26,.63,3.03,1.83,1.82h0Z"/><path class="d" d="M1328.22,774.61c9.12-31.87,27.12-54.17,55.52-71.37,27.6-16.72,58.32-30.37,90.02-36.24,3.76-.7,2.78-6.51-.88-6.54-17.88-.11-34.99,8.04-50.98,15.26-16.94,7.65-33.92,15.54-49.37,25.97-23.7,16-48.26,41.89-48.43,72.35-.01,2.38,3.47,2.83,4.12,.56h0Z"/><path class="d" d="M1472.04,666.5c9.85-18.66,21.23-34.05,39.66-45.08,20.15-12.05,42.65-16.12,65.56-19.17,4.15-.55,4.44-7,0-6.73-41.69,2.52-98.73,23.01-108.98,69.39-.48,2.18,2.62,3.74,3.76,1.58h0Z"/><path class="d" d="M1474.57,667.29c6.1-18.87,35.41-20.19,51.68-19.07,19.27,1.32,34.9,8.89,51.72,17.54,3.06,1.57,6.93-2.67,3.91-5.07-18.55-14.74-45.32-20.96-68.69-19.4-14.05,.94-42.81,6.55-41.91,25.56,.09,1.89,2.7,2.27,3.29,.44h0Z"/><path class="d" d="M1469.39,669.19c15.01,11.52,42.53,12.25,60.9,12.06,17.86-.18,37.01-2.39,50.98-14.51,2.88-2.5-.92-7.49-4.11-5.32-16.25,11.09-34.66,13.12-53.95,12.71-9.94-.21-19.77-1.34-29.55-3.12-7.93-1.44-15.57-4.34-23.65-4.15-1.34,.03-1.57,1.61-.63,2.33h0Z"/><path class="d" d="M1530.96,647.95c12.12-1.93,23.76-11.81,32.39-20.07,8.38-8.02,17.73-18.06,18.06-30.28,.09-3.43-5.31-4.26-6.06-.82-2.7,12.39-11,21.46-20.1,29.88-7.84,7.25-17.74,12.18-25.26,19.63-.76,.75,.04,1.8,.96,1.65h0Z"/><path class="d" d="M1558.99,626.16c7.75-.26,14.58-1.89,22.33,.28,8.56,2.4,13.67,7.5,20.12,13.12,2.44,2.13,6.11-.52,4.53-3.49-7.57-14.23-34.21-22.62-47.66-12.42-.98,.74-.79,2.57,.68,2.52h0Z"/><path class="d" d="M1602.7,636.09c-3.41,4.86-6.48,9.68-11.24,13.36-2.34,1.81-4.91,3.34-7.67,4.42-2.37,.92-4.5,.97-6.24,2.93-.83,.94-.93,2.82,.44,3.42,5.46,2.4,13.16-3.03,17.26-6.44,5.15-4.28,9.36-10.21,10-16.99,.14-1.48-1.86-1.69-2.56-.69h0Z"/><path class="d" d="M1577.22,599.8c-.76-.18-1.52-.36-2.28-.54-.16,1.15-.31,2.3-.47,3.45,4.43-.17,8.41-.51,12.51,1.68,3.94,2.11,5.83,5.83,8.94,8.8,2.4,2.29,5.72-.58,4.4-3.4-4.29-9.14-17.32-16.1-26.74-10.36-1.62,.99-.55,4,1.35,3.21,.76-.2,1.52-.39,2.28-.59,1.44-.12,1.46-2.16,0-2.26h0Z"/><path class="d" d="M1596.62,610.09c-1.58,2.62-2.38,5.59-4.13,8.14-1.7,2.47-4.89,4.22-6.13,6.84-.7,1.48,.09,3.89,2.11,3.67,3.79-.41,6.66-4.2,8.53-7.31,1.95-3.23,3.52-7.14,2.72-10.94-.31-1.47-2.38-1.59-3.1-.4h0Z"/><path class="d" d="M1388.12,696.99c6.4-15.54,7.59-32.91,14.46-48.65,6.86-15.73,16.37-29.52,26.56-43.24,1.76-2.37-2.07-5.22-4.05-3.13-12.14,12.81-21.24,28.22-28.09,44.43-6.25,14.79-13.91,34.33-11.25,50.6,.22,1.35,1.97,.97,2.37,0h0Z"/><path class="d" d="M1391.86,659.01c-9.68-20.69,1.71-47.33,14.04-64.62,12.26-17.18,28.81-26.13,44.61-39.22,1.79-1.49-.13-4.5-2.24-3.84-21.05,6.55-40.44,28.04-51.33,46.5-9.88,16.75-20.63,45.14-8.04,62.9,1.28,1.81,3.9,.28,2.96-1.73h0Z"/><path class="d" d="M1389.83,667.4c20.24,8.13,41.72-15.69,51.36-30.95,13.92-22.05,17.09-49.73,8.74-74.37-1.09-3.22-6.01-1.93-5.13,1.42,5.75,22.02,5.08,44.42-5.68,64.88-9.21,17.51-27.62,37.92-48.98,36.81-1.37-.07-1.4,1.78-.3,2.22h0Z"/><path class="d" d="M1362.03,716.05c34.41-14.16,64.56-5.9,99.33,1.76,2.92,.64,4.06-3.52,1.23-4.47-30.9-10.41-72.4-19.28-101.31,.94-.83,.58-.34,2.22,.75,1.77h0Z"/><path class="d" d="M1410.38,706.69c11.02,22.95,27.33,34.89,50.88,42.91,22.8,7.77,48.64,3.82,69.6-7.81,2.63-1.46,.8-5.35-1.99-4.72-23.47,5.32-41.39,14.79-66,6.67-10.53-3.47-22.33-7.27-30.55-15.03-7.52-7.1-12.58-16.35-20.36-23.25-.87-.77-2.08,.19-1.58,1.22h0Z"/><path class="d" d="M1407.73,709.13c21.58-8.08,40.64-14.32,63.43-5.14,22.05,8.87,38.6,27.8,58.9,39.65,2.54,1.48,5.47-2.09,3.2-4.15-10.67-9.67-23.2-17.62-34.89-26.01-10.18-7.3-20.64-14.18-32.89-17.38-18.88-4.93-44.12-2.89-58.87,11.12-.8,.76,.02,2.33,1.12,1.92h0Z"/><path class="d" d="M987.79,922.97c14.29,12.29,29.92,22.89,44.06,35.43,14.69,13.03,28.47,27.08,41.2,42.03,26.64,31.28,48.99,69.4,60.31,108.81,.65,2.26,3.96,1.77,4.04-.55,.76-21.14-13.71-38.63-22.63-56.68-8.79-17.78-19.49-33.59-32.1-48.9-25.38-30.83-57.15-63.95-93.08-82.47-1.43-.74-3.16,1.18-1.81,2.34h0Z"/><path class="d" d="M1135.64,1114.03c6.55-13.68-15.83-28.78-24.86-35.79-17.74-13.78-38.67-24.64-60.74-29.28-2.89-.61-4.05,3.51-1.22,4.43,15.85,5.18,31.23,11.02,45.49,19.81,9.11,5.62,42.3,26.08,39.09,39.88-.3,1.29,1.62,2.26,2.25,.95h0Z"/><path class="d" d="M1084.79,1064.52c.74-16.5-20.32-26.24-33.19-31.2-19.12-7.35-40.56-9.34-60.45-4.11-2.89,.76-1.59,4.76,1.2,4.36,30.63-4.43,76.03-.71,90.71,31.42,.41,.89,1.69,.37,1.73-.47h0Z"/><path class="d" d="M984.06,1033.27c4.78,23.68,18.73,36.69,41.22,44.56,19.44,6.8,45.78,6.68,58.6-12.12,1.87-2.74-2.13-5.43-4.4-3.4-16.15,14.46-34.5,16.31-54.7,8.9-7.99-2.93-16.97-6.91-23.18-12.91-7.38-7.11-10.45-16.69-14.04-26-.83-2.16-3.97-1.36-3.5,.96h0Z"/><path class="d" d="M1051.68,976.35c-2.25-26.85-45.33-13.82-58.89-5.65-2.76,1.66-.35,5.43,2.46,4.21,13.33-5.79,46.07-18.15,53.5,1.84,.54,1.46,3.08,1.4,2.93-.4h0Z"/><path class="d" d="M1065.81,988.58c1.17-10.84-.7-21.77,.42-32.66,1.29-12.56,6.01-22.71,11.46-33.97,1.17-2.42-2.07-5.52-4.02-3.1-14.8,18.38-17.01,48.09-10.2,70.05,.42,1.35,2.2,.98,2.34-.32h0Z"/><path class="d" d="M1077.49,917.75c-9.42,1.09-4.89-18.59-3.34-22.67,2.41-6.33,9.63-17.86,17.68-17.33,13.66,.9,4.13,23.59,.69,28.48-5.22,7.43-13.12,10.16-21.93,9.39-3.91-.34-3.73,5.51,0,6.01,14.33,1.92,26.07-7.01,31.08-20.08,3.91-10.19,5.68-31.1-11.01-29.55-12.86,1.2-21.44,16.23-23.52,27.61-1.28,6.99-.92,25.88,10.83,19.9,.8-.41,.46-1.87-.48-1.77h0Z"/><path class="d" d="M992.63,975.15c5.92-11.36-12.87-12.64-19.4-11.67-10.9,1.62-26.47,8.72-26.05,21.88,.4,12.49,14.36,15.15,24.19,12.76,12.49-3.05,23.69-10.92,22.21-25.19-.4-3.89-6.41-4.06-6.21,0,.39,7.87-2.76,13.24-9.86,16.58-6.09,2.86-17.03,6.4-22.46,.33-13.06-14.59,33.05-31.6,35.41-14.96,.15,1.02,1.73,1.13,2.17,.28h0Z"/><path class="d" d="M991.95,918.33c-9.7,1.43-17.82,5.98-27.44-.23-6.78-4.38-16.09-9.69-20.79-16.56-5.39-7.88-5.83-20,10.13-17.09,4.58,.83,9.17,4.26,13.14,6.7,11.92,7.35,17.6,15.17,15.56,29.84-.64,4.58,5.73,5.5,6.3,.85,2.09-17-4.53-27.53-18.75-35.99-11.08-6.59-27.58-13.66-36.24,1.02-6.92,11.72,9.15,22.97,17.18,28.96,6.33,4.73,14.63,11.57,22.8,12.47,8.05,.89,11.56-5.79,18.84-7.36,1.73-.37,.96-2.85-.72-2.61h0Z"/><path class="d" d="M1243.73,586.94c4.82-6.74,6.98-15.09,10.41-22.61,3.77-8.28,7.97-16.34,12.72-24.11,9.77-15.97,21.76-30.14,34.58-43.71,2.41-2.55-1.22-6.1-3.82-3.82-14.47,12.64-26.49,27.8-36.27,44.31-8.04,13.56-19.71,33.21-19.31,49.48,.02,.95,1.18,1.17,1.69,.46h0Z"/><path class="d" d="M1252.4,568c18.12-21.39,41.55-27.77,68.01-32.68,2.61-.48,1.98-4.65-.62-4.59-26.66,.61-55.23,12.15-69.16,35.91-.63,1.07,.92,2.37,1.77,1.37h0Z"/><path class="d" d="M1320.26,535.11c1.81-2.14,3.02-4.7,4.97-6.75,1-1.05,2.45-2.57,3.86-3.01,3.37-1.06,3.71,1.81,3.48,4.27-.28,3.08-1.81,6.33-4.67,7.8-1.51,.77-3.14,.81-4.57-.17-1.55-1.06-1.6-2.51-2.13-4.16-.64-1.98-3.66-2.7-4.72-.62-3.03,6,4.06,11.76,9.74,11.46,6.45-.34,10.85-6.52,11.67-12.44,.73-5.34-1.6-13.26-8.56-11.6-5.52,1.32-11.38,8.74-10.93,14.45,.07,.85,1.2,1.55,1.86,.77h0Z"/><path class="d" d="M1300.55,494.57c-2.57-7.15-3.63-13.97,.25-20.96,2.11-3.8,11.68-14.69,16.26-10.72,2.49,2.16,1.04,4.49,.01,7.47-1.08,3.12-2.53,6.08-4.3,8.86-1.5,2.37-10.76,15.24-14.65,12.94-2.9-1.71-5.56,2.11-3.47,4.5,6.33,7.2,17.56-6.28,20.97-10.85,4.38-5.87,14.03-21.85,6.99-28.53-7.12-6.76-19.74,4.04-24.04,9.58-6.34,8.16-8.54,21.3-.59,29.2,1.03,1.02,3.1,0,2.56-1.49h0Z"/><path class="d" d="M1367.28,476.17c2.65-14.46-6.24-27.85-12.92-40.09-8.09-14.82-17.16-29.16-27.32-42.65-18.04-23.96-41.18-47.84-69.54-59.19-3.35-1.34-5.3,3.91-2.39,5.68,25.29,15.33,46.55,32.4,64.74,55.94,8.59,11.12,16.3,22.87,23.45,34.95,7.96,13.44,19.48,28.8,19.95,44.81,.06,2.22,3.61,2.92,4.04,.55h0Z"/><path class="d" d="M1327.56,405.23c-33.47-1.34-52.9-23.14-72.48-47.75-9.18-11.54-17.89-23.47-26.11-35.71-7.57-11.27-13.83-23.92-22.58-34.29-1.61-1.91-5.1,.13-4.25,2.47,5.39,14.78,15.88,28.37,24.84,41.21,9.68,13.87,20,27.3,30.89,40.24,16.57,19.68,41.4,45.41,70.09,36.76,1.63-.49,1.29-2.86-.4-2.93h0Z"/><path class="d" d="M1204.02,288.57c20.19,18.59,49.93,28.81,74.93,39.25,13.23,5.53,27.02,11.42,37.58,21.4,6.35,6,10.86,13.17,13.73,21.42,2.25,6.46,9.42,30.94-2.76,32.45-4.44,.55-4.58,7.57,0,7.1,14.41-1.49,14.87-15.57,13.07-27.2-2.66-17.24-10.15-32.1-23.92-42.95-14.43-11.37-32.25-17.09-49-24.05-21.14-8.79-40.87-22.08-62.36-29.62-1.24-.44-2.21,1.33-1.28,2.19h0Z"/><path class="d" d="M1369.88,303.47c1.38-44.27,18.71-82.39,53.74-110.2,2.44-1.94-.77-6.12-3.35-4.34-35.94,24.79-59.51,70.51-55.27,114.53,.3,3.08,4.78,3.19,4.88,0h0Z"/><path class="d" d="M1375.61,244.12c.48-26.5,5.6-50.89,25.08-70.33,17.54-17.51,39.9-23.96,61.89-33.69,2.83-1.25,.74-5.39-2.02-4.79-48.24,10.47-100.39,54.57-87.87,109.22,.38,1.67,2.9,1.26,2.93-.4h0Z"/><path class="d" d="M1373.55,248.61c10.65,21,36.68,6.73,46-7.22,9.94-14.87,16.83-32.45,24.21-48.68,7.65-16.82,14.8-33.85,21.61-51.02,1.6-4.03-4.91-5.77-6.49-1.79-9.98,25.07-20.75,49.82-32.46,74.13-7.75,16.08-27.77,57.06-49.77,32.18-1.55-1.75-4.08,.48-3.1,2.39h0Z"/><path class="d" d="M1353.4,173.29c-10.38-9.5-20.64-16.41-28.21-28.78-7.73-12.62-12.43-27.21-14.1-41.9-4-35.21,9.88-66.1,18.28-99.29,.7-2.75-3.43-4.75-4.75-2-15.28,31.77-24.82,72.45-18.95,107.63,4.11,24.61,19.58,59.73,46.61,66.27,1.07,.26,2-1.11,1.12-1.92h0Z"/><path class="d" d="M1325.21,3.15c6.15,27.4,31.83,46.62,41.44,72.81,6.24,17,4.12,35.13,1.68,52.67-2.27,16.27-6.33,31.37-19.11,42.53-2.86,2.49,1,7.63,4.1,5.32,11.64-8.65,17.11-21.64,20.04-35.53,3.6-17.09,6.32-36.67,3.41-53.92-2.58-15.25-10.43-28.67-19.08-41.24-10.01-14.55-19.63-29.26-29.41-43.93-1.05-1.57-3.48-.6-3.06,1.29h0Z"/><path class="d" d="M1320.43,225.06c-.01,2.89,.93,4.17,2.63,6.45,4.27,5.73,9.89,10.75,14.88,15.85,8.59,8.78,17.08,17.72,27.63,24.17,3.62,2.21,6.9-3.43,3.32-5.68-8.49-5.32-15.68-11.98-22.96-18.8-3.53-3.31-7.06-6.6-10.64-9.84-3.33-3.01-11.3-7.9-12.05-12.53-.26-1.62-2.81-1.19-2.81,.38h0Z"/><path class="d" d="M1341.37,247.58c-16.02-1.42-28.82,0-39.04-15.12-6.03-8.92-10.89-18.9-15.26-28.72-6.68-14.98-8.88-37.33-23.01-47.48-3.07-2.2-6.61,2.6-3.98,5.16,13.13,12.8,29.37,20.18,45.41,28.62,20.18,10.62,47.07,28.01,36.17,54.72-1.29,3.16,3.91,5.28,5.49,2.32,24.57-46.15-59.87-68.3-82.43-90.3-1.33,1.72-2.65,3.44-3.98,5.16,10.48,7.5,13.04,26.87,17.75,38.25,4.59,11.08,9.9,21.97,16.27,32.14,10.92,17.44,26.84,24.08,46.94,17.61,1.34-.43,1.02-2.26-.32-2.38h0Z"/><path class="d" d="M1338.93,99.87c5.2,26.78,2.4,58.56,13.76,83.72,.96,2.12,4.64,1.1,4.43-1.2-1.34-14.67-4.73-29.17-6.34-43.86-1.48-13.54-2.97-27.01-5.63-40.38-.81-4.07-7.01-2.34-6.22,1.72h0Z"/><path class="d" d="M1457.86,475.18c-5.06,.06-9.2-9.6-10.1-13.57-.9-4.01-1.78-8.03-2.68-12.04-1.6-7.19-3.25-14.37-4.81-21.57-3.48-16.07-6.12-32.61-1.9-48.8,5.41-20.74,23.04-33.78,43.8-23.49,13.92,6.9,22.4,17.65,30.01,30.74,5.19,8.94,11.48,16.75,19.76,23.03,6.03,4.57,14.45,7.74,18.15,14.7,5.1,9.59,1.34,21.42-5.69,28.88-10.75,11.41-27.39,15.1-42.28,17.64-16.58,2.83-35.48,4.91-51.68-.47-4.13-1.37-5.59,4.81-1.76,6.38,19.33,7.88,44.75,3.78,64.56-.64,17.01-3.8,35.59-11.23,43.34-28.16,6.05-13.23,2.63-27.72-8.92-36.45-11.2-8.46-20.82-14.28-28.49-26.63-4.8-7.73-8.59-15.66-15.31-21.97-11.14-10.46-27.58-20.63-43.53-17.29-16.73,3.5-26.2,20.72-29.28,36.21-4.32,21.7,1.9,43.76,6.82,64.8,2.58,11.01,3.53,36.63,20.56,32.84,2.32-.52,1.79-4.15-.56-4.12h0Z"/><path class="d" d="M1455.03,475.21c1.63-22.15,10.26-36.55,22.67-54.31,1.52-2.18-1.97-4.9-3.71-2.86-12.81,15.1-26.88,36.77-21.74,57.54,.4,1.62,2.66,1.15,2.77-.38h0Z"/><path class="d" d="M1449.3,473.52c17.68-6.38,34.01-17.24,47.25-30.54,2.42-2.43-1.16-5.85-3.71-3.71-14.12,11.9-28.95,21.82-44.87,31.12-1.63,.95-.55,3.81,1.32,3.13h0Z"/><path class="d" d="M1435.27,385.84c-1.38-25.07-3.4-48.72,8.91-71.86,3.65-6.86,7.62-5.33,10.91,1.23,2.59,5.17,4.52,10.64,6.73,15.97,3.18,7.64,6.65,15.29,13.15,20.64,2.19,1.8,6.33-.64,4.31-3.32-9.27-12.29-12.9-26.5-20.51-39.58-3.63-6.24-7.41-12.77-14-7.17-9.03,7.66-13.28,27.95-14.89,38.74-2.22,14.88-2.07,31.39,3.1,45.66,.42,1.16,2.37,1.09,2.3-.31h0Z"/><path class="d" d="M1554.66,443.24c7.9,5.25,17.99,7.22,26.42,11.79,7.81,4.23,14.56,10.69,22.97,13.58,3.16,1.08,4.5-3.34,2.13-5.05-13.1-9.44-33.98-24.05-51.07-22.01-.88,.1-1.25,1.16-.46,1.69h0Z"/><path class="d" d="M1476.95,480.22c23.42,8.93,43.65,16.22,69.17,12.76,21.12-2.87,45.92-10.45,62.85-23.84,2.42-1.91-.2-6.15-3-5.16-20.92,7.42-38.81,18.44-61.39,21.42-12.81,1.69-25.69,1.54-38.35-1.27-9.76-2.17-18.82-6.41-28.92-6.52-1.59-.02-1.69,2.1-.35,2.61h0Z"/><path class="d" d="M1518.8,354.71c.04-26.94,4.85-60.57,35.57-69.05,12.85-3.55,28.13,0,37.82,9.22,11.5,10.95,11.68,23.4,12.93,37.89,.25,2.93,3.87,3.3,4.95,.67,12.37-30.09-22.72-58.51-50.26-55.57-36.85,3.93-50.9,45.51-45.33,77.42,.43,2.48,4.31,1.84,4.32-.58h0Z"/><path class="d" d="M1590.93,341.14c9.47-10.27,31.17-2.44,36.87,7.58,7.76,13.62,5.51,29.27-4.32,40.77-18.06,21.12-41.83,22.73-67.51,19.07-2.85-.41-5.34,3.63-2.18,5.16,29.41,14.18,79.51-4.48,85.69-39.04,2.43-13.57-3.02-33.86-15.88-40.83-9.44-5.12-28.95-4.71-35.31,5.26-1.02,1.59,1.34,3.43,2.63,2.03h0Z"/><path class="d" d="M1630.26,385.24c4.33,.88,8.74,12.3,9.35,16.48,.4,2.72,.26,5.82,.06,8.56-.67,9.27-4.21,17.25-9.98,24.46-8.19,10.22-19.36,17.63-27.37,27.94-1.7,2.18,.45,5.97,3.23,4.18,16.5-10.63,36.67-28.99,40.1-49.32,1.88-11.16,2.06-37.2-14.97-35.3-1.57,.17-2.25,2.64-.41,3.01h0Z"/><path class="d" d="M1453.1,301.69c-3.91-9.32,34.53-22.86,39.75-24.07,17.85-4.11,35.18-1.45,50.86,7.97,3.54,2.13,6.65-3.29,3.22-5.5-19.55-12.63-44.01-13.4-65.44-5.18-7.53,2.88-39.7,16.08-31.11,27.93,.9,1.24,3.44,.54,2.73-1.15h0Z"/><path class="d" d="M1490.6,353.06c-.95-6.61,13.11-7.58,14.05-2.02,.98,5.79-4.69,8.54-8.19,11.67-1.76,1.57-.28,4.31,1.83,4.41,10.05,.47,17.59-16.96,8.78-23.06-6.84-4.74-25.14-.58-19.48,10.29,.94,1.8,3.27,.44,3.02-1.27h0Z"/><path class="d" d="M1503.64,363.6c-.97-2.58,4.33-3.95,6.02-3.95,2.24,0,4.25,1.08,5.54,2.9,3.01,4.25,.19,7.74-2.98,10.63-2.17,1.98,.09,5.92,2.9,4.99,9.53-3.17,9.46-16.84,1.54-21.74-3.56-2.2-8.35-2.42-12.02-.35-3.18,1.79-5.99,5.48-2.99,8.68,.78,.83,2.41-.03,1.99-1.16h0Z"/><path class="d" d="M1515.77,359.19c.94-4.34,6.56-5.24,10.21-3.85,4.03,1.54,3.2,4.47,3.88,7.87,.39,1.93,2.99,2.42,4.28,1.13,5.75-5.74-2.83-13.83-8.56-14.58-5.5-.72-14.76,2.66-11.62,9.67,.35,.77,1.64,.55,1.81-.24h0Z"/><path class="d" d="M1512.96,381.93c1.43-5.35,8.2-7.85,11.43-2.44,1.32,2.2,1.04,4.64-.14,6.82-1.02,1.87-2.88,3.07-3.27,5.22-.19,1.07,.28,2.5,1.54,2.7,4.46,.74,7.52-4.06,8.53-7.89,1.24-4.7-.25-9.73-4-12.85-6.46-5.39-18.99-1.01-16.04,8.44,.29,.93,1.68,.99,1.94,0h0Z"/><path class="d" d="M1525.79,374.8c.42-2.51,.99-4.66,3.18-6.22,1.97-1.4,5.07-2.25,7.35-1.31,2.35,.97,3.9,4.18,4.22,6.65,.39,2.99-1.93,3.89-3.73,5.65-1.25,1.22-.73,3.67,1.07,4.04,4.68,.99,8.6-3.53,8.87-7.98,.3-4.93-2.75-11.22-7.22-13.47-6.94-3.49-23.02,4.88-15.89,13.2,.6,.7,2,.36,2.16-.57h0Z"/><path class="d" d="M1525.37,396.44c1.87-2.07,2.27-4.83,4.63-6.6,3.03-2.26,8.37-3.77,11.94-2.38,4.53,1.77,4.78,5.72,1.91,9.22-2.64,3.23-5.4,4.33-9.12,5.86-2.09,.85-2.68,4.25,0,4.86,10.79,2.44,22.77-13.53,14.25-22.35-4.17-4.32-10.57-4.47-15.89-2.43-2.76,1.06-5.54,2.7-7.44,5.02-1.99,2.44-1.57,4.71-2.5,7.51-.42,1.25,1.34,2.27,2.22,1.29h0Z"/><path class="d" d="M1540.18,405.63c2.31-2.1,6.84-5.26,9.88-2.57,1.54,1.36,1.72,3.66,.59,5.38-.92,1.39-2.45,1.84-3.75,2.74-1.65,1.14-1.33,3.45,.54,4.13,7.74,2.8,11.51-9.64,7.5-14.65-5.07-6.33-13.28-2.04-16.85,3.36-.86,1.31,1.01,2.59,2.09,1.61h0Z"/><path class="d" d="M1546.65,416.56c2.51-1.04,6.6-3.25,9.12-1.39,3.26,2.41-2.46,5.46-3.72,7.45-.9,1.41,.27,3.37,1.92,3.34,5.97-.13,10.89-8.32,6.67-13.22-4.42-5.15-11.15-1.83-15.1,1.9-.79,.74,.03,2.37,1.12,1.92h0Z"/><path class="d" d="M1557.6,379.89c15.56-4.06,31.93-14.37,45.04-23.49,2.64-1.84,.36-5.87-2.54-4.35-7.94,4.15-15.58,8.87-23.39,13.26-6.91,3.89-14.26,7.29-20.51,12.19-1.18,.93,.12,2.73,1.39,2.39h0Z"/><path class="d" d="M1499.97,303.63l.39-.32c-.62-.16-1.24-.33-1.87-.49,.43,1.48-.66,4.97-.65,6.58,.01,2.77,.33,5.55,.72,8.29,.78,5.63,2.17,11.33,4.76,16.41,1.23,2.41,5.11,.74,4.35-1.83-1.47-4.94-3.3-9.68-4.31-14.77-.99-5-1.1-10.08-1.97-15.09-.14-.84-1.07-1.11-1.78-1.01-.58,.08-.78,.27-1.15,.73-.87,1.07,.45,2.4,1.51,1.51h0Z"/><path class="d" d="M1564.6,434.19c10.9,4.46,26.73,.77,37.81-1.78,3.18-.73,1.76-5.25-1.32-4.78-6.78,1.02-13.62,1.64-20.46,2.11-5.3,.37-10.95-.15-16.03,1.45-1.56,.49-1.37,2.43,0,2.99h0Z"/><path class="d" d="M1158.73,337.55c-11.06-16.47-10.7-44.04-10.85-63.31-.17-21.44,3.55-41.95,10.5-62.19,1.01-2.94-3.8-5.04-5.09-2.14-9.58,21.62-12.35,45.32-11.57,68.81,.38,11.47,1.6,22.92,3.48,34.24,1.63,9.81,2.8,20,10.55,26.89,1.52,1.35,4.24-.41,2.98-2.3h0Z"/><path class="d" d="M1147.51,278.86c-17.01-15.14-13.81-46.41-8.9-66.17,4.93-19.81,14.17-37.67,25.34-54.62,1.54-2.33-2.12-5.25-3.93-3.03-16.11,19.88-26.28,44.27-29.64,69.65-2.06,15.57-3.22,49.87,15.93,56.23,1.15,.38,2.11-1.25,1.2-2.06h0Z"/><path class="d" d="M1159.67,156.81c7.74,19.81,11.7,40.84,13.54,62,.95,10.93,1.38,21.62-1.88,32.24-1.11,3.62-14.99,36.43-23.23,27.62-2.53-2.71-6.5,.73-4.94,3.81,12.14,23.93,35.36-26.87,37.05-35.31,3.19-15.91,.31-32.95-2.57-48.72-2.63-14.41-5.33-31.81-15.45-43.11-.97-1.08-3.08,.05-2.53,1.47h0Z"/><path class="d" d="M1152.34,331.64c-22.08-17.16-56.88-19.37-82.84-11.35-3.55,1.1-2.07,6.24,1.52,5.52,14.14-2.81,28.03-4.14,42.38-2.22,13.18,1.76,24.77,6.83,37.28,10.92,1.55,.51,3.04-1.8,1.67-2.86h0Z"/><path class="d" d="M1096.57,316.66c-24.63-21.33-63.07-5.82-84.73,11.89-2.35,1.92,.7,5.78,3.23,4.18,12.12-7.66,24.55-15.37,38.75-18.42,14.63-3.15,27.38,.11,41.05,5.28,1.63,.62,3-1.81,1.71-2.93h0Z"/><path class="d" d="M1012.91,330.78c-3.27,21.8,81.23,20.55,85.84-11.44,.49-3.38-3.76-5.7-5.79-2.44-7.24,11.64-16.09,17.23-29.59,19.87-7.11,1.39-14.4,1.83-21.62,1.35-5.41-.36-22.54-1.58-25.31-7.81-.65-1.46-3.3-1.14-3.54,.46h0Z"/><path class="d" d="M1091.88,253.49c-12.42-15.52-19.28-40.03-21.85-59.47-2.83-21.37,1.08-41.51,12.32-59.93,2-3.27-2.96-6.06-5.08-2.97-12.76,18.6-16.14,42.03-12.98,64.07,1.77,12.31,5.46,24.22,10.22,35.69,3.48,8.4,7.01,20.49,15.69,24.79,1.47,.73,2.67-.96,1.69-2.19h0Z"/><path class="d" d="M1077.2,133.06c7.04,19.3,14.45,36.66,16.26,57.45,1.75,20.19-.9,40.03-7.08,59.28-1.18,3.67,4.55,5.22,5.76,1.59,12.21-36.81,11.72-87.05-12.72-119.26-.75-.99-2.73-.48-2.21,.93h0Z"/><path class="d" d="M1068.83,200.49c-4.09-13.22-14.97-24.38-26.18-32.05-8.33-5.7-24.65-15.62-34.81-10.45-2.67,1.36-.64,4.83,1.88,4.46,11.15-1.63,24.38,6.08,33.06,12.42,9.97,7.28,16.36,16.88,23.59,26.65,.85,1.14,2.96,.54,2.47-1.04h0Z"/><path class="d" d="M1007.9,156.95c-5.79,25.97,6.38,50.18,21.86,70.41,14.15,18.49,33.37,36.72,58.49,30.37,4.3-1.09,2.48-7.74-1.83-6.65-25.06,6.33-43.77-15.95-56.82-34.15-12.78-17.82-20.48-37.45-19.24-59.65,.08-1.4-2.15-1.71-2.46-.33h0Z"/><path class="d" d="M1049.81,176.79c-6.06-20.04-12.5-36.65-11.32-58.21-1.21,.92-2.41,1.84-3.62,2.76,6.35,2.45,11.67,6.94,17.08,10.95,5.83,4.33,13.42,8.33,16.69,15.03,1.78,3.64,7.34,.44,5.47-3.2-3.4-6.6-9.86-10.18-15.76-14.37-7.08-5.04-13.79-10.78-21.95-13.93-1.84-.71-3.53,1.07-3.62,2.76-1.04,19.66,1.55,43.42,13.87,59.55,1.1,1.44,3.79,.71,3.17-1.34h0Z"/><path class="d" d="M1019.44,160.41c1.04-8.38-.76-16.94,.79-25.35,.82-4.48,3.65-6.95,7.64-3.72,2.1,1.7,3.24,2.42,5.96,2.48,1.82,.04,3.01-2.49,1.55-3.75-5.57-4.84-13.34-12.57-18.27-3.1-4.66,8.96-4.01,24.7-.53,33.83,.6,1.58,2.65,1.25,2.85-.39h0Z"/></g><path class="d" d="M1701.26,658.07c14.71,20.85,28.04,42.7,39.85,65.37,11.77,22.69,22,46.2,30.63,70.3,8.61,24.1,15.65,48.81,20.8,73.93,5.17,25.11,8.66,50.58,10.47,76.18,.41,6.4,.97,12.8,1.02,19.22l.26,9.62c.07,3.21,.23,6.42,.11,9.63-.32,12.83-.15,25.69-1.31,38.5l-.66,9.61-.33,4.81-.17,2.4-.29,2.39-2.29,19.14c-.63,6.4-1.83,12.72-2.9,19.06l-1.62,9.51c-.57,3.16-1,6.36-1.77,9.48-2.86,12.54-5.33,25.18-9.05,37.51l-2.59,9.3-1.29,4.65c-.45,1.54-1,3.06-1.49,4.59l-6.09,18.32c-8.77,24.18-18.49,48.11-30.52,70.9l-4.36,8.62c-1.49,2.85-3.15,5.62-4.72,8.43l-9.55,16.8-10.34,16.33c-1.75,2.7-3.39,5.48-5.24,8.12l-5.56,7.91c-14.52,21.32-31.08,41.17-48.39,60.26l-13.3,14.04-1.67,1.75-1.74,1.67-3.49,3.35-6.98,6.7-6.98,6.7c-2.38,2.18-4.85,4.25-7.26,6.39-4.87,4.23-9.7,8.5-14.61,12.69l-15.18,12.01-3.8,3c-1.26,1.01-2.53,2-3.86,2.92l-7.87,5.63-7.87,5.63c-2.63,1.88-5.22,3.8-7.97,5.49l-16.26,10.5c-22.01,13.44-44.65,26.01-68.36,36.26l-8.82,4c-2.96,1.28-5.99,2.4-8.98,3.61l-18.01,7.12-18.34,6.23c-3.06,1.02-6.1,2.11-9.18,3.07l-9.31,2.66c-6.22,1.74-12.4,3.61-18.65,5.24l-18.87,4.38-4.72,1.09c-1.57,.38-3.14,.74-4.74,.99l-9.53,1.71-9.53,1.71-4.77,.86-2.38,.43-2.4,.31-19.21,2.46-4.8,.61-2.4,.3-2.41,.19-9.66,.75-9.66,.74-4.83,.37-2.41,.19-2.42,.07-19.36,.51c-3.23,.05-6.45,.25-9.68,.15l-9.68-.25c-6.45-.2-12.91-.28-19.36-.58l-19.31-1.49c-3.22-.27-6.44-.44-9.65-.8l-9.61-1.23c-6.4-.85-12.82-1.59-19.2-2.52l-19.07-3.42c-3.17-.6-6.37-1.07-9.52-1.79l-9.44-2.19-9.44-2.19-4.72-1.1c-1.57-.36-3.15-.72-4.69-1.19-12.39-3.63-24.93-6.78-37.07-11.21l-9.17-3.11c-3.06-1.04-6.13-2.03-9.11-3.28l-18.01-7.12c-23.75-10.1-47.17-21.13-69.29-34.46l-8.38-4.85c-2.78-1.64-5.44-3.47-8.17-5.19l-16.26-10.5-15.74-11.27c-2.6-1.9-5.28-3.7-7.83-5.69l-7.59-6c-20.49-15.7-39.44-33.3-57.56-51.62l-13.3-14.04-1.66-1.76-1.58-1.83-3.15-3.66-6.31-7.33-6.31-7.33c-2.05-2.49-3.99-5.07-5.98-7.6-3.96-5.09-7.96-10.14-11.86-15.27l-11.12-15.82-2.78-3.95c-.93-1.31-1.86-2.63-2.7-4.01l-5.17-8.16-5.17-8.16c-1.71-2.73-3.5-5.41-5.03-8.25l-9.54-16.8c-12.15-22.7-23.43-45.92-32.35-70.09l-3.49-9c-1.16-3-2.07-6.09-3.12-9.13l-6.09-18.32c-1.79-6.18-3.47-12.39-5.19-18.59l-2.56-9.3-2.1-9.42-4.17-18.83-3.25-19.01c-.52-3.17-1.12-6.33-1.58-9.51l-1.14-9.57c-.74-6.38-1.57-12.76-2.24-19.14l-1.32-19.23c-.2-3.2-.48-6.4-.62-9.61l-.17-9.63-.33-19.25,.51-19.25c2.29-51.28,11.32-102.23,27.18-150.92,7.93-24.34,17.5-48.13,28.64-71.14,11.18-22.99,23.92-45.19,38.07-66.42-13.55,21.62-25.63,44.13-36.13,67.34-10.54,23.18-19.52,47.05-26.82,71.4-14.64,48.69-22.72,99.27-23.97,149.97l-.19,19.02,.62,19,.31,9.5c.19,3.16,.51,6.32,.76,9.47l1.58,18.93c.75,6.29,1.67,12.55,2.49,18.83l1.27,9.41c.5,3.12,1.14,6.23,1.7,9.34l3.48,18.66,4.38,18.47,2.2,9.23,2.66,9.11,5.33,18.2,6.18,17.93c1.06,2.98,1.98,6,3.16,8.94l3.53,8.8c9.01,23.63,20.34,46.3,32.48,68.43,49.31,88.25,122.91,162.49,210.26,212.85,21.71,12.84,44.55,23.62,67.76,33.41l17.59,6.91c2.91,1.21,5.91,2.17,8.9,3.18l8.96,3.02c11.85,4.3,24.1,7.34,36.19,10.86,1.51,.46,3.04,.81,4.58,1.15l4.6,1.06,9.21,2.11,9.21,2.12c3.07,.69,6.2,1.14,9.29,1.72l18.61,3.3c6.23,.9,12.5,1.6,18.74,2.41l9.37,1.18c3.13,.34,6.28,.5,9.42,.76l18.85,1.41c6.29,.28,12.59,.34,18.89,.52l9.45,.23c1.57,.07,3.15,0,4.72-.04l4.72-.12c100.87-.78,201.03-30.27,286.91-83.08l15.95-10.15c2.7-1.64,5.24-3.5,7.82-5.32l7.72-5.45,7.73-5.45c1.31-.89,2.55-1.85,3.79-2.83l3.73-2.91,14.91-11.64c4.82-4.06,9.57-8.21,14.36-12.32,2.38-2.07,4.81-4.08,7.15-6.2l6.87-6.51,6.87-6.51,3.44-3.25,1.72-1.63,1.64-1.7,13.1-13.65c17.08-18.56,33.37-37.92,47.79-58.65l5.53-7.69c1.84-2.57,3.47-5.27,5.21-7.9l10.31-15.89,9.54-16.37c1.57-2.74,3.23-5.43,4.72-8.21l4.36-8.41c12.04-22.23,21.82-45.6,30.7-69.25l6.18-17.93c.5-1.5,1.06-2.98,1.52-4.49l1.32-4.55,2.64-9.11c3.78-12.08,6.43-24.45,9.42-36.75,.81-3.06,1.28-6.19,1.88-9.3l1.74-9.33c1.15-6.22,2.43-12.43,3.14-18.72l2.54-18.82,.32-2.35,.21-2.36,.4-4.73,.79-9.47c1.35-12.61,1.36-25.29,1.87-37.95,.17-3.17,.06-6.33,.03-9.5l-.11-9.51c.03-6.34-.42-12.67-.69-19-1.3-25.32-4.27-50.57-8.91-75.54-4.61-24.98-11.17-49.58-19.12-73.72-8-24.13-17.65-47.73-28.83-70.61-11.13-22.9-23.82-45.08-37.94-66.33Z"/></g><g><path class="d" d="M360.63,2054.16c0,2.24-.38,3.36-1.12,3.36h-72.24c-9.34,0-26.88-15.49-52.64-46.48-25.76-30.98-56.38-73.54-91.84-127.68-10.08,2.24-20.54,3.36-31.36,3.36-2.24,0-10.64-.56-25.2-1.68v127.12c0,11.58,1.12,19.98,3.36,25.2,2.24,5.23,6.62,8.78,13.16,10.64,6.53,1.87,16.89,2.8,31.08,2.8,1.12,0,1.68,1.12,1.68,3.36s-.56,3.36-1.68,3.36c-11.58,0-20.72-.18-27.44-.56l-38.64-.56-38.08,.56c-6.72,.38-16.24,.56-28.56,.56-.75,0-1.12-1.12-1.12-3.36s.37-3.36,1.12-3.36c14.18,0,24.64-.93,31.36-2.8,6.72-1.86,11.29-5.5,13.72-10.92,2.42-5.41,3.64-13.72,3.64-24.92v-259.28c0-11.2-1.12-19.41-3.36-24.64-2.24-5.22-6.63-8.86-13.16-10.92-6.54-2.05-16.9-3.08-31.08-3.08-1.12,0-1.68-1.12-1.68-3.36s.56-3.36,1.68-3.36l27.44,.56c15.68,.75,28.37,1.12,38.08,1.12,8.21,0,15.86-.18,22.96-.56,7.09-.37,13.06-.74,17.92-1.12,13.81-1.12,26.32-1.68,37.52-1.68,29.49,0,52.26,6.72,68.32,20.16,16.05,13.44,24.08,31.36,24.08,53.76,0,20.16-5.88,38.36-17.64,54.6-11.76,16.24-27.35,29.03-46.76,38.36,31.36,45.18,57.77,80.55,79.24,106.12,21.46,25.58,40.5,43.96,57.12,55.16,16.61,11.2,32.94,16.8,49,16.8,.74,0,1.12,1.12,1.12,3.36Zm-241.36-180.32c29.12,0,49.93-6.34,62.44-19.04,12.5-12.69,18.76-32.29,18.76-58.8,0-29.12-6.44-50.02-19.32-62.72-12.88-12.69-31.64-19.04-56.28-19.04-14.56,0-24.64,2.62-30.24,7.84-5.6,5.23-8.4,15.87-8.4,31.92v117.6c9.33,1.5,20.34,2.24,33.04,2.24Z"/><path class="d" d="M678.14,1972.96c1.12,0,2.14,.19,3.08,.56,.93,.38,1.4,.94,1.4,1.68-3.36,23.52-5.04,48.16-5.04,73.92,0,2.99-.66,5.14-1.96,6.44s-3.64,1.96-7,1.96h-234.64c-.75,0-1.12-1.12-1.12-3.36s.37-3.36,1.12-3.36c14.18,0,24.54-.93,31.08-2.8,6.53-1.86,11.01-5.5,13.44-10.92,2.42-5.41,3.64-13.72,3.64-24.92v-259.28c0-11.2-1.22-19.41-3.64-24.64-2.43-5.22-6.91-8.86-13.44-10.92-6.54-2.05-16.9-3.08-31.08-3.08-.75,0-1.12-1.12-1.12-3.36s.37-3.36,1.12-3.36h225.12c3.36,0,5.04,1.68,5.04,5.04l1.12,68.88c0,1.12-.94,1.78-2.8,1.96-1.87,.19-2.99-.28-3.36-1.4-1.12-19.78-7.1-35.18-17.92-46.2-10.83-11.01-25.2-16.52-43.12-16.52h-34.16c-13.07,0-22.68,1.03-28.84,3.08-6.16,2.06-10.46,5.6-12.88,10.64-2.43,5.04-3.64,12.6-3.64,22.68v113.68h68.32c17.92,0,30.7-2.98,38.36-8.96,7.65-5.97,11.48-16.05,11.48-30.24,0-.74,1.12-1.12,3.36-1.12s3.36,.38,3.36,1.12l-.56,45.36c0,10.83,.18,19.04,.56,24.64l.56,26.88c0,.75-1.12,1.12-3.36,1.12s-3.36-.37-3.36-1.12c0-16.42-4.02-28.18-12.04-35.28-8.03-7.09-21.38-10.64-40.04-10.64h-66.64v128.8c0,10.46,1.12,18.11,3.36,22.96,2.24,4.86,6.34,8.22,12.32,10.08,5.97,1.87,15.3,2.8,28,2.8h44.8c17.92,0,32.85-6.34,44.8-19.04,11.94-12.69,19.97-30.24,24.08-52.64,0-.74,.74-1.12,2.24-1.12Z"/><path class="d" d="M1142.93,1710.88c0,2.24-.56,3.36-1.68,3.36-12.7,0-23.71,3.36-33.04,10.08-9.34,6.72-17.18,18.11-23.52,34.16l-119.28,298.48c-.38,1.49-2.43,2.24-6.16,2.24-2.99,0-5.04-.75-6.16-2.24l-139.44-302.96c-6.35-14.56-13.07-24.82-20.16-30.8-7.1-5.97-16.24-8.96-27.44-8.96-1.12,0-1.68-1.12-1.68-3.36s.56-3.36,1.68-3.36l21.28,.56c10.45,.75,18.85,1.12,25.2,1.12,14.93,0,30.98-.37,48.16-1.12l22.96-.56c1.12,0,1.68,1.12,1.68,3.36s-.56,3.36-1.68,3.36c-23.15,0-34.72,6.54-34.72,19.6,0,4.48,1.68,10.46,5.04,17.92l117.04,256.48,100.8-252.56c2.98-7.84,4.48-14,4.48-18.48,0-7.84-3.55-13.62-10.64-17.36-7.1-3.73-18.11-5.6-33.04-5.6-1.12,0-1.68-1.12-1.68-3.36s.56-3.36,1.68-3.36l24.08,.56c12.69,.75,24.26,1.12,34.72,1.12,7.84,0,16.61-.37,26.32-1.12l23.52-.56c1.12,0,1.68,1.12,1.68,3.36Z"/><path class="d" d="M1463.79,1972.96c1.12,0,2.14,.19,3.08,.56,.93,.38,1.4,.94,1.4,1.68-3.36,23.52-5.04,48.16-5.04,73.92,0,2.99-.66,5.14-1.96,6.44s-3.64,1.96-7,1.96h-234.64c-.75,0-1.12-1.12-1.12-3.36s.37-3.36,1.12-3.36c14.18,0,24.54-.93,31.08-2.8,6.53-1.86,11.01-5.5,13.44-10.92,2.42-5.41,3.64-13.72,3.64-24.92v-259.28c0-11.2-1.22-19.41-3.64-24.64-2.43-5.22-6.91-8.86-13.44-10.92-6.54-2.05-16.9-3.08-31.08-3.08-.75,0-1.12-1.12-1.12-3.36s.37-3.36,1.12-3.36h225.12c3.36,0,5.04,1.68,5.04,5.04l1.12,68.88c0,1.12-.94,1.78-2.8,1.96-1.87,.19-2.99-.28-3.36-1.4-1.12-19.78-7.1-35.18-17.92-46.2-10.83-11.01-25.2-16.52-43.12-16.52h-34.16c-13.07,0-22.68,1.03-28.84,3.08-6.16,2.06-10.46,5.6-12.88,10.64-2.43,5.04-3.64,12.6-3.64,22.68v113.68h68.32c17.92,0,30.7-2.98,38.36-8.96,7.65-5.97,11.48-16.05,11.48-30.24,0-.74,1.12-1.12,3.36-1.12s3.36,.38,3.36,1.12l-.56,45.36c0,10.83,.18,19.04,.56,24.64l.56,26.88c0,.75-1.12,1.12-3.36,1.12s-3.36-.37-3.36-1.12c0-16.42-4.02-28.18-12.04-35.28-8.03-7.09-21.38-10.64-40.04-10.64h-66.64v128.8c0,10.46,1.12,18.11,3.36,22.96,2.24,4.86,6.34,8.22,12.32,10.08,5.97,1.87,15.3,2.8,28,2.8h44.8c17.92,0,32.85-6.34,44.8-19.04,11.94-12.69,19.97-30.24,24.08-52.64,0-.74,.74-1.12,2.24-1.12Z"/><path class="d" d="M1935.86,2054.16c0,2.24-.38,3.36-1.12,3.36h-72.24c-9.34,0-26.88-15.49-52.64-46.48-25.76-30.98-56.38-73.54-91.84-127.68-10.08,2.24-20.54,3.36-31.36,3.36-2.24,0-10.64-.56-25.2-1.68v127.12c0,11.58,1.12,19.98,3.36,25.2,2.24,5.23,6.62,8.78,13.16,10.64,6.53,1.87,16.89,2.8,31.08,2.8,1.12,0,1.68,1.12,1.68,3.36s-.56,3.36-1.68,3.36c-11.58,0-20.72-.18-27.44-.56l-38.64-.56-38.08,.56c-6.72,.38-16.24,.56-28.56,.56-.75,0-1.12-1.12-1.12-3.36s.37-3.36,1.12-3.36c14.18,0,24.64-.93,31.36-2.8,6.72-1.86,11.29-5.5,13.72-10.92,2.42-5.41,3.64-13.72,3.64-24.92v-259.28c0-11.2-1.12-19.41-3.36-24.64-2.24-5.22-6.63-8.86-13.16-10.92-6.54-2.05-16.9-3.08-31.08-3.08-1.12,0-1.68-1.12-1.68-3.36s.56-3.36,1.68-3.36l27.44,.56c15.68,.75,28.37,1.12,38.08,1.12,8.21,0,15.86-.18,22.96-.56,7.09-.37,13.06-.74,17.92-1.12,13.81-1.12,26.32-1.68,37.52-1.68,29.49,0,52.26,6.72,68.32,20.16,16.05,13.44,24.08,31.36,24.08,53.76,0,20.16-5.88,38.36-17.64,54.6-11.76,16.24-27.35,29.03-46.76,38.36,31.36,45.18,57.77,80.55,79.24,106.12,21.46,25.58,40.5,43.96,57.12,55.16,16.61,11.2,32.94,16.8,49,16.8,.74,0,1.12,1.12,1.12,3.36Zm-241.36-180.32c29.12,0,49.93-6.34,62.44-19.04,12.5-12.69,18.76-32.29,18.76-58.8,0-29.12-6.44-50.02-19.32-62.72-12.88-12.69-31.64-19.04-56.28-19.04-14.56,0-24.64,2.62-30.24,7.84-5.6,5.23-8.4,15.87-8.4,31.92v117.6c9.33,1.5,20.34,2.24,33.04,2.24Z"/><path class="d" d="M2066.9,1811.12c7.09,10.83,15.77,19.88,26.04,27.16,10.26,7.28,24.36,16.34,42.28,27.16,19.78,11.95,35,21.84,45.64,29.68s19.78,17.83,27.44,29.96c7.65,12.14,11.48,26.6,11.48,43.4,0,17.92-4.48,34.16-13.44,48.72s-22.12,26.04-39.48,34.44-38.18,12.6-62.44,12.6c-28.75,0-55.07-6.54-78.96-19.6-1.87-1.12-3.08-2.42-3.64-3.92-.56-1.49-1.03-3.73-1.4-6.72l-7.28-76.16c-.38-1.49,.46-2.42,2.52-2.8,2.05-.37,3.26,.19,3.64,1.68,5.97,26.88,17.08,50.03,33.32,69.44,16.24,19.42,37.8,29.12,64.68,29.12,18.66,0,34.44-5.13,47.32-15.4,12.88-10.26,19.32-26.6,19.32-49,0-16.8-3.74-31.36-11.2-43.68-7.47-12.32-16.52-22.49-27.16-30.52-10.64-8.02-25.11-17.45-43.4-28.28-17.92-10.82-32.02-20.16-42.28-28-10.27-7.84-18.95-17.73-26.04-29.68-7.1-11.94-10.64-25.94-10.64-42,0-18.66,4.94-34.62,14.84-47.88,9.89-13.25,22.77-23.14,38.64-29.68,15.86-6.53,32.76-9.8,50.68-9.8,22.02,0,43.86,4.48,65.52,13.44,5.6,1.87,8.4,5.04,8.4,9.52l3.92,64.4c0,1.5-.94,2.24-2.8,2.24s-2.99-.74-3.36-2.24c-2.99-19.41-11.02-37.42-24.08-54.04-13.07-16.61-31.92-24.92-56.56-24.92-20.91,0-36.5,6.07-46.76,18.2-10.27,12.14-15.4,27.16-15.4,45.08,0,14.56,3.54,27.26,10.64,38.08Z"/><path class="d" d="M2420.81,2037.08c2.24,5.42,6.62,9.06,13.16,10.92,6.53,1.87,16.89,2.8,31.08,2.8,1.12,0,1.68,1.12,1.68,3.36s-.56,3.36-1.68,3.36c-11.2,0-20.16-.18-26.88-.56l-39.76-.56-38.64,.56c-6.72,.38-15.87,.56-27.44,.56-1.12,0-1.68-1.12-1.68-3.36s.56-3.36,1.68-3.36c14.18,0,24.54-.93,31.08-2.8,6.53-1.86,11.01-5.5,13.44-10.92,2.42-5.41,3.64-13.72,3.64-24.92v-259.28c0-11.2-1.22-19.41-3.64-24.64-2.43-5.22-6.91-8.86-13.44-10.92-6.54-2.05-16.9-3.08-31.08-3.08-1.12,0-1.68-1.12-1.68-3.36s.56-3.36,1.68-3.36l27.44,.56c15.68,.75,28.56,1.12,38.64,1.12,11.2,0,24.64-.37,40.32-1.12l26.32-.56c1.12,0,1.68,1.12,1.68,3.36s-.56,3.36-1.68,3.36c-13.82,0-23.99,1.12-30.52,3.36-6.54,2.24-11.02,6.07-13.44,11.48-2.43,5.42-3.64,13.72-3.64,24.92v258.16c0,11.2,1.12,19.51,3.36,24.92Z"/></g></g></g></svg>